<svg width="28" height="34" viewBox="0 0 28 34" fill="none" xmlns="http://www.w3.org/2000/svg">
<g clip-path="url(#clip0_269_4109)">
<path d="M16 33C12.2886 32.999 8.69289 31.708 5.82844 29.348C2.964 26.9879 1.00894 23.7056 0.29794 20.0629C-0.413062 16.4202 0.164206 12.6437 1.93093 9.37971C3.69765 6.11574 6.54395 3.56735 9.98261 2.17078C12.8987 0.984348 16.1001 0.685021 19.1856 1.31032C22.2711 1.93561 25.1034 3.45772 27.3276 5.68585L27.9732 6.33421L26.6792 7.62825L26.0308 6.98257C24.7164 5.66523 23.155 4.62009 21.436 3.90699C19.7171 3.19389 17.8744 2.82684 16.0134 2.82684C14.1524 2.82684 12.3097 3.19389 10.5908 3.90699C8.87188 4.62009 7.31048 5.66523 5.99601 6.98257C3.68591 9.29475 2.24614 12.3344 1.92064 15.5866C1.59513 18.8388 2.40389 22.1036 4.20991 24.8277C6.01592 27.5519 8.70814 29.5679 11.8304 30.5344C14.9527 31.5008 18.3131 31.3581 21.3423 30.1306C22.8127 29.5348 24.1715 28.6942 25.361 27.6443L23.9438 26.2378C22.1463 27.7839 19.9367 28.772 17.5859 29.0811C15.2351 29.3901 12.8453 29.0065 10.7093 27.9774C8.57324 26.9483 6.78385 25.3184 5.56043 23.2874C4.33702 21.2564 3.73271 18.9127 3.8216 16.5433C3.91049 14.174 4.68869 11.8821 6.06085 9.94846C7.433 8.01485 9.33947 6.52358 11.5466 5.65742C13.7537 4.79126 16.1656 4.58785 18.4866 5.07212C20.8076 5.55639 22.9369 6.70729 24.6136 8.38378L25.2619 9.03749L21.27 13.0268L20.6296 12.3784C19.7152 11.466 18.5508 10.845 17.2837 10.594C16.0165 10.343 14.7033 10.4733 13.5101 10.9683C12.3169 11.4633 11.2972 12.3008 10.5798 13.3751C9.86244 14.4494 9.47956 15.7122 9.47956 17.004C9.47956 18.2958 9.86244 19.5586 10.5798 20.6329C11.2972 21.7072 12.3169 22.5447 13.5101 23.0397C14.7033 23.5347 16.0165 23.665 17.2837 23.414C18.5508 23.163 19.7152 22.542 20.6296 21.6296L21.278 20.9812L22.572 22.2779L21.9156 22.9156C20.773 24.057 19.3244 24.8431 17.7447 25.1792C16.165 25.5152 14.5218 25.3867 13.0136 24.8092C11.5053 24.2318 10.1965 23.23 9.24515 21.9249C8.29382 20.6198 7.74066 19.0672 7.65248 17.4546C7.56429 15.8419 7.94486 14.2383 8.74822 12.8372C9.55157 11.4362 10.7434 10.2977 12.1797 9.55916C13.616 8.82067 15.2353 8.51378 16.8422 8.67556C18.4491 8.83734 19.9749 9.46087 21.2351 10.4709L22.6444 9.06161C21.1056 7.76958 19.2241 6.95326 17.2294 6.71221C15.2346 6.47116 13.2129 6.81581 11.4106 7.70411C9.6084 8.59241 8.10362 9.98597 7.07982 11.7148C6.05602 13.4437 5.55746 15.4331 5.64493 17.4405C5.73241 19.4478 6.40214 21.3863 7.57245 23.0196C8.74276 24.6528 10.3631 25.9102 12.2357 26.6383C14.1084 27.3665 16.1525 27.534 18.1187 27.1203C20.0849 26.7066 21.8883 25.7297 23.3088 24.3088L23.9572 23.6604L27.9491 27.655L27.3276 28.3275C25.8421 29.8137 24.0782 30.9925 22.1369 31.7965C20.1955 32.6006 18.1147 33.0141 16.0134 33.0134L16 33Z" fill="#2A2F36"/>
</g>
<defs>
<clipPath id="clip0_269_4109">
<rect width="28" height="34" fill="white"/>
</clipPath>
</defs>
</svg>
