<svg width="7" height="10" viewBox="0 0 7 10" fill="none" xmlns="http://www.w3.org/2000/svg">
<g clip-path="url(#clip0_62_377)">
<path d="M0.986168 9.99998C0.846829 9.99998 0.714106 9.93674 0.621872 9.82633C0.52963 9.71591 0.486547 9.56889 0.503694 9.42268C0.52084 9.27634 0.596478 9.14492 0.711403 9.0616L5.08695 5.88128V5.8814C5.36281 5.68204 5.52776 5.35161 5.52776 4.9982C5.52776 4.64494 5.3628 4.31439 5.08695 4.11513L0.711403 0.934811C0.570544 0.830023 0.492517 0.654189 0.506516 0.472631C0.520407 0.290944 0.624153 0.130712 0.779228 0.0514098C0.934303 -0.0280129 1.11749 -0.0146999 1.26084 0.0864155L5.63639 3.26673C6.17682 3.65778 6.5 4.30565 6.5 4.99822C6.5 5.69075 6.17682 6.33877 5.63639 6.72982L1.26084 9.91013V9.91002C1.17989 9.96867 1.08417 10 0.986179 10L0.986168 9.99998Z" fill="#575757"/>
</g>
<defs>
<clipPath id="clip0_62_377">
<rect width="7" height="10" fill="white"/>
</clipPath>
</defs>
</svg>
