<svg width="8" height="16" viewBox="0 0 8 16" fill="none" xmlns="http://www.w3.org/2000/svg">
<path d="M0.627709 13.9831C0.451336 13.9831 0.28334 13.9074 0.166592 13.7753C0.0498345 13.6431 -0.00469935 13.4672 0.0170044 13.2922C0.0387078 13.1171 0.134448 12.9598 0.279918 12.8601L5.81838 9.05381V9.05395C6.16755 8.81535 6.37634 8.41989 6.37634 7.99693C6.37634 7.57414 6.16755 7.17854 5.81838 6.94005L0.279918 3.13381C0.101622 3.0084 0.00285787 2.79796 0.0205774 2.58067C0.0381598 2.36322 0.169479 2.17145 0.365769 2.07654C0.562059 1.98149 0.793936 1.99742 0.975387 2.11844L6.51385 5.92468C7.19791 6.39269 7.60698 7.16807 7.60698 7.99694C7.60698 8.82578 7.19791 9.60134 6.51385 10.0693L0.975387 13.8756V13.8755C0.872913 13.9456 0.75176 13.9831 0.627723 13.9831L0.627709 13.9831Z" fill="#EBF4F6"/>
</svg>
