<svg width="33" height="38" viewBox="0 0 33 38" fill="none" xmlns="http://www.w3.org/2000/svg">
<g clip-path="url(#clip0_62_588)">
<path d="M18.8235 37.8235C14.4571 37.8224 10.2269 36.3036 6.85697 33.527C3.48703 30.7505 1.18697 26.889 0.350493 22.6035C-0.48598 18.318 0.193158 13.8749 2.27165 10.035C4.35015 6.195 7.69874 3.1969 11.7442 1.55388C15.1749 0.158069 18.9413 -0.194081 22.5713 0.541563C26.2013 1.27721 29.5334 3.06791 32.15 5.68925L32.9097 6.45203L31.3873 7.97443L30.6245 7.2148C29.078 5.66499 27.2411 4.43542 25.2188 3.59648C23.1966 2.75753 21.0287 2.3257 18.8393 2.3257C16.6499 2.3257 14.482 2.75753 12.4598 3.59648C10.4375 4.43542 8.60054 5.66499 7.0541 7.2148C4.33634 9.93502 2.6425 13.5111 2.25955 17.3372C1.8766 21.1633 2.82808 25.0042 4.95281 28.2091C7.07753 31.414 10.2448 33.7858 13.9181 34.9228C17.5914 36.0598 21.5448 35.892 25.1086 34.4478C26.8385 33.7469 28.4371 32.7579 29.8365 31.5227L28.1691 29.868C26.0544 31.687 23.4549 32.8495 20.6893 33.213C17.9237 33.5766 15.1121 33.1253 12.5991 31.9146C10.0861 30.7039 7.98098 28.7864 6.54166 26.397C5.10235 24.0076 4.3914 21.2502 4.49597 18.4627C4.60055 15.6753 5.51609 12.9789 7.13038 10.7041C8.74468 8.42925 10.9876 6.67481 13.5842 5.6558C16.1808 4.63679 19.0183 4.39748 21.7489 4.96721C24.4795 5.53694 26.9846 6.89095 28.9571 8.86328L29.7199 9.63236L25.0234 14.3256L24.2701 13.5629C23.1943 12.4894 21.8245 11.7589 20.3337 11.4636C18.8429 11.1683 17.298 11.3215 15.8943 11.9039C14.4905 12.4862 13.2908 13.4716 12.4468 14.7354C11.6028 15.9993 11.1524 17.485 11.1524 19.0047C11.1524 20.5245 11.6028 22.0102 12.4468 23.274C13.2908 24.5379 14.4905 25.5232 15.8943 26.1056C17.298 26.6879 18.8429 26.8411 20.3337 26.5459C21.8245 26.2506 23.1943 25.5201 24.2701 24.4466L25.0329 23.6838L26.5553 25.2094L25.7831 25.9595C24.4388 27.3023 22.7345 28.2272 20.8761 28.6226C19.0176 29.0179 17.0845 28.8667 15.3101 28.1874C13.5356 27.508 11.9958 26.3294 10.8766 24.794C9.75741 23.2586 9.10663 21.432 9.00289 19.5348C8.89915 17.6376 9.34687 15.7509 10.292 14.1026C11.2371 12.4543 12.6392 11.1149 14.329 10.2461C16.0187 9.37727 17.9239 9.01623 19.8144 9.20656C21.7049 9.39689 23.4998 10.1304 24.9825 11.3187L26.6404 9.66073C24.8301 8.14069 22.6166 7.18032 20.2698 6.89673C17.9231 6.61315 15.5445 7.01861 13.4242 8.06367C11.304 9.10873 9.53364 10.7482 8.32918 12.7822C7.12471 14.8161 6.53816 17.1566 6.64107 19.5182C6.74398 21.8798 7.53191 24.1604 8.90874 26.0818C10.2856 28.0033 12.1918 29.4826 14.395 30.3392C16.5981 31.1959 19.0029 31.3929 21.3161 30.9062C23.6293 30.4196 25.7509 29.2703 27.4221 27.5986L28.1849 26.8358L32.8813 31.5354L32.15 32.3265C30.4024 34.075 28.3273 35.4618 26.0434 36.4077C23.7594 37.3536 21.3114 37.8401 18.8393 37.8393L18.8235 37.8235Z" fill="#2A2F36"/>
</g>
<defs>
<clipPath id="clip0_62_588">
<rect width="33" height="38" fill="white"/>
</clipPath>
</defs>
</svg>
