<svg width="1343" height="1079" viewBox="0 0 1343 1079" fill="none" xmlns="http://www.w3.org/2000/svg">
<g opacity="0.2">
<mask id="path-1-inside-1_62_340" fill="white">
<path d="M-461.715 167.18C-321.985 144.275 -189.636 86.2111 -77.3448 0H-85.1707C-193.39 81.9135 -320 137.842 -453.797 161.192C-552.732 178.456 -653.542 178.544 -752.977 165.29V169.796C-656.198 182.643 -558.142 182.948 -461.715 167.18ZM-601.714 148.049C-652.251 148.781 -702.815 145.27 -752.977 138.356V133.836C-701.57 140.968 -649.742 144.488 -597.97 143.492C-480.579 141.279 -363.659 115.84 -256.736 65.8948C-216.534 47.0975 -177.926 25.0599 -141.293 0L-133.042 0C-172.631 27.547 -214.566 51.5556 -258.361 71.7484C-366.084 121.37 -483.707 146.34 -601.714 148.026V148.049ZM-752.977 122.606V118.091C-651.381 132.29 -547.933 131.752 -447.036 111.52C-348.822 91.8377 -255.218 53.7569 -171.051 0H-162.396C-250.549 57.3598 -349.225 97.4413 -452.788 117.276C-551.904 136.263 -653.32 136.476 -752.977 122.606ZM-752.977 106.861V102.392C-657.776 115.901 -561.15 116.09 -466.399 99.1223C-373.197 82.4321 -283.3 48.5886 -201.886 0H-192.867C-278.751 52.3305 -374.28 88.2348 -473.391 104.934C-565.973 120.536 -660.146 119.99 -752.977 106.879V106.861ZM-752.977 91.1431V86.651C-574.881 111.946 -393.324 87.304 -234.425 0H-224.878C-226.405 0.86137 -227.935 1.71811 -229.469 2.57022C-389.747 91.458 -573.146 116.567 -752.977 91.1616V91.1431ZM-537.779 81.881C-609.535 88.7535 -681.707 85.998 -752.977 75.5412V71.0584C-679.365 81.9088 -604.801 84.4883 -530.768 76.6665C-448.22 67.937 -366.941 45.7637 -291.39 10.8366C-283.819 7.33553 -276.332 3.72334 -268.931 0H-258.782C-269.682 5.63749 -280.76 11.0403 -292.015 16.2086C-369.574 51.6544 -453.089 73.7721 -537.779 81.881ZM-752.977 59.9161V55.4472C-664.279 68.7428 -573.956 69.8034 -485.29 54.521C-423.719 43.909 -363.726 25.5917 -306.722 0L-295.685 0C-356.722 28.3564 -421.294 48.3659 -487.664 59.4901C-575.585 74.1936 -665.075 73.0358 -752.977 59.9161ZM-752.977 44.2494V39.7712C-622.85 59.4391 -489.899 51.2515 -365.362 6.66867C-359.383 4.52914 -353.433 2.30625 -347.513 0H-335.198C-345.614 4.25128 -356.133 8.25093 -366.755 11.999C-490.954 55.8038 -623.396 63.746 -752.977 44.2494ZM-752.977 28.6799V24.2202C-669.804 37.15 -585.289 38.6551 -502.015 25.5679C-465.69 19.847 -429.866 11.2985 -394.87 0L-380.523 0C-421.991 14.2414 -464.682 24.628 -508.054 31.0278C-589.413 42.9897 -671.831 41.2161 -752.977 28.6799ZM-736.279 0H-698.044C-649.201 4.5384 -600.191 4.68659 -551.686 0H-514.927C-587.96 10.7532 -662.506 10.2438 -736.279 0ZM-752.977 13.0456V8.59054C-653.667 24.0813 -552.871 22.2289 -456.134 0H-436.993C-539.631 26.3968 -647.141 29.4672 -752.977 13.0456ZM-752.977 154.014V149.508C-594.99 170.672 -433.915 156.51 -285.457 96.0798C-224.105 71.1093 -166.413 38.5949 -113.082 0H-105.149C-162.535 42.1423 -225.012 77.2593 -291.682 103.573C-438.557 161.548 -597.271 174.779 -752.977 154.014ZM-60.6752 228.406C-184.564 299.928 -322.573 344.427 -464.052 361.243C-559.91 372.63 -656.929 371.431 -752.977 360.428V355.861C-653.209 367.337 -552.376 368.134 -452.918 355.204C-312.313 336.93 -175.554 291.018 -53.1085 218.441C45.1188 160.233 133.053 85.7202 208.322 0H214.801C136.015 90.3512 43.2583 168.402 -60.6752 228.406ZM25.9869 130.743C-71.5692 204.617 -182.208 260.527 -299.646 294.894C-425.122 331.609 -556.8 343.418 -686.714 334.721C-708.823 333.245 -730.911 331.178 -752.977 328.52V323.949C-728.961 326.811 -704.904 329.011 -680.805 330.548C-551.256 338.625 -420.069 326.098 -295.208 288.712C-179.844 254.173 -71.2175 198.652 24.6356 125.732C74.2301 87.9321 120.423 45.8608 162.686 0H169.276C125.556 47.8207 77.5968 91.5804 25.9869 130.743ZM37.5938 184.958C-74.8643 265.779 -202.793 323.792 -337.563 355.44C-473.623 387.394 -614.547 392.243 -752.977 376.488V371.936C-612.895 388.024 -469.958 382.643 -332.342 349.392C-199.491 317.289 -74.1477 259.635 36.7052 179.642C109.03 127.381 173.779 66.8488 230.957 0H237.394C178.768 69.0022 112.172 131.354 37.5938 184.958ZM134.275 508.949C1.74597 585.254 -143.496 638.229 -293.634 666.867C-444.967 695.718 -599.881 699.696 -752.977 684.756V680.042C-598.155 695.185 -441.45 690.879 -288.525 660.99C-138.813 631.727 5.85559 578.095 137.705 501.22C346.428 379.531 515.499 203.857 640.767 0H646.815C519.696 207.636 347.321 386.283 134.275 508.949ZM626.138 0H620.122C544.284 122.259 452.194 234.117 343.836 330.192C207.706 450.895 47.9093 543.631 -124.832 600.768C-314.326 663.444 -515.926 682.529 -714.454 667.066C-727.301 666.066 -740.136 664.917 -752.958 663.62V668.326C-742.25 669.4 -731.53 670.377 -720.799 671.257C-521.772 687.466 -319.523 669.219 -129.191 607.303C44.0867 550.934 204.638 458.98 341.638 338.856C453.582 240.706 548.422 125.797 626.138 0ZM605.025 0H599.009C528.901 111.427 444.997 213.953 347.214 303.452C213.334 425.966 55.2815 520.916 -116.335 580.021C-304.006 644.661 -504.31 665.626 -701.843 651.64C-718.911 650.433 -735.956 648.963 -752.977 647.231V651.918C-735.958 653.628 -718.919 655.095 -701.857 656.317C-504.348 670.294 -304.024 649.482 -116.284 585.125C55.3602 526.311 213.556 431.838 347.77 309.76C447.922 218.672 533.654 113.923 605.049 0H605.025ZM583.561 0H577.499C485.149 144.668 369.354 273.767 230.549 377.308C93.4432 479.584 -63.2946 554.004 -229.001 596.123C-400.067 639.595 -577.783 648.199 -752.977 630.81V635.492C-579.394 652.696 -403.33 644.499 -233.652 602.236C-67.4042 560.835 90.014 487.151 227.963 385.449C370.618 280.274 489.328 148.239 583.561 0ZM710.343 0H704.326C589.471 194.623 436.699 365.92 248.135 493.592C105.531 590.154 -54.557 659.383 -222.226 698.395C-396.059 738.823 -575.677 746.437 -752.958 729.422V734.151C-577.408 750.952 -399.595 743.723 -227.284 704.512C-59.1665 666.246 101.542 597.74 244.905 501.817C437.685 372.834 593.632 198.439 710.343 0ZM366.952 433.311C224.154 550.077 59.3125 638.548 -117.015 692.648C-311.568 752.337 -517.065 769.68 -719.517 753.694C-730.677 752.814 -741.824 751.827 -752.958 750.734V746.006C-739.664 747.303 -726.354 748.459 -713.029 749.475C-511.03 764.757 -306.074 746.576 -112.295 686.085C63.5284 631.208 227.676 541.922 369.646 424.507C513.541 305.494 632.302 160.432 725.638 0H731.654C636.458 164.197 514.754 312.432 366.934 433.311H366.952ZM154.531 537.407C20.0632 614.828 -127.197 668.784 -279.441 698.284C-435.401 728.506 -595.096 732.882 -752.954 717.664V712.955C-595.295 728.181 -435.767 723.773 -280.028 693.504C-126.146 663.593 22.5901 608.581 158.095 529.566C377.259 401.801 553.896 215.731 683.061 0H689.124C558.108 219.58 378.082 408.673 154.508 537.407H154.531ZM17.6244 587.607C-224.271 695.046 -491.061 726.352 -752.954 701.187V696.505C-489.515 721.883 -221.074 689.786 21.7062 580.415C291.786 458.721 509.718 250.418 662.041 0H668.113C513.958 254.382 292.304 465.593 17.6012 587.607H17.6244ZM98.321 626.382C-166.011 755.19 -462.192 794.572 -752.954 767.263V762.507C-460.526 789.973 -162.753 749.748 102.463 618.788C376.231 483.594 595.2 262.116 746.681 0H752.781C599.481 266.172 376.782 490.675 98.2979 626.382H98.321ZM79.504 711.927C-182.232 826.266 -470.212 859.92 -752.977 833.787V828.994C-467.042 855.428 -175.878 820.496 87.8898 702.729C408.071 559.765 663.601 305.073 831.589 0H837.67C667.271 310.602 406.285 569.152 79.481 711.927H79.504ZM788.249 186.551C829.553 126.618 867.334 64.3291 901.401 0L895.311 0C863.358 60.1398 828.15 118.491 789.845 174.793C685.296 328.302 556.794 465.621 407.729 576.631C254.86 690.457 81.4338 775.233 -102.099 826.47C-313.595 885.525 -534.873 899.223 -752.977 879.185V883.997C-536.798 903.831 -317.538 890.665 -107.625 833.153C76.2506 782.767 250.283 698.913 403.906 585.898C553.535 475.819 682.82 339.347 788.249 186.551ZM891.289 57.4246C902.072 38.4467 912.53 19.3052 922.662 0H916.562C908.611 15.0971 900.463 30.0955 892.117 44.995C709.685 370.505 429.646 638.154 82.9518 781.183C-181.357 890.23 -469.675 921.749 -752.977 895.94V900.733C-471.526 926.329 -185.175 895.639 77.9398 788.663C425.287 647.477 706.89 381.753 891.289 57.4246ZM711.148 348.188C801.998 241.193 879.488 124.051 943.876 0H937.781C875.809 119.045 801.721 231.695 715.253 335.077C595.446 478.292 452.439 602.014 291.592 697.01C123.057 796.544 -63.5306 863.338 -256.32 896.287C-420.328 924.319 -587.492 927.931 -752.977 912.792V917.618C-591.25 932.391 -427.932 929.353 -267.468 903.137C-73.7582 871.493 114.024 805.996 283.937 707.439C445.816 613.545 590.04 490.749 711.148 348.179V348.188ZM1137.2 1.18091L1137.31 0H1131.5C970.241 334.42 723.49 627.633 403.925 820.177C236.621 920.98 52.5326 992.418 -138.433 1032.93C-340.247 1075.74 -547.808 1083.82 -752.968 1065.56V1070.46C-550.117 1088.52 -344.944 1080.88 -145.218 1039.5C45.8684 999.906 230.272 929.51 398.126 829.772C723.028 636.714 973.966 340.037 1137.2 1.18091ZM355.605 812.244C185.427 910.222 -1.3501 977.571 -194.301 1013.38C-378.427 1047.53 -566.704 1052.9 -752.977 1036.23V1031.33C-564.52 1048.19 -374.035 1042.44 -187.91 1007.07C4.83289 970.444 191.24 902.099 360.802 803.167C522.237 708.972 667.308 587.95 791.03 447.935C910.435 312.839 1009.27 161.447 1088.07 0H1094.28C1013.36 166.166 911.319 321.745 787.652 459.934C663.124 599.041 517.442 719.063 355.605 812.244ZM577.281 612.082C431.146 734.98 264.505 832.745 85.6545 899.603C-109.074 972.394 -316.32 1007.97 -523.914 1011.16C-600.386 1012.33 -676.829 1009.1 -752.972 1002.22V997.359C-672.558 1004.64 -591.801 1007.8 -511.049 1006.03C-304.297 1001.49 -98.1149 964.525 95.2712 890.522C273.205 822.446 438.713 723.574 583.566 599.81C777.572 434.051 931.348 227.429 1044.54 0H1050.69C935.087 232.824 777.123 444.017 577.277 612.082H577.281ZM513.685 732.025C356.632 845.101 180.823 931.048 -4.67749 986.023C-209.694 1046.78 -424.595 1069.46 -637.937 1060.95C-676.348 1059.4 -714.693 1056.88 -752.972 1053.39V1048.46C-710.195 1052.32 -667.336 1055.01 -624.395 1056.52C-411.85 1063.69 -197.916 1039.58 5.80933 977.534C190.463 921.3 365.189 834.162 520.997 720.133C775.078 534.174 972.467 281.895 1109.53 0H1115.77C976.28 287.517 774.208 544.432 513.68 732.002L513.685 732.025ZM670.719 826.757C533.369 931.293 382.342 1016.49 221.858 1079.95H207.396C376.46 1014.39 535.17 924.73 678.609 813.749C953.738 600.893 1164.98 315.59 1308.42 0H1314.89C1168.99 321.652 952.715 612.026 670.714 826.734L670.719 826.757ZM524.412 876.531C391.915 962.363 248.464 1030.61 98.645 1079.98H115.06C255.66 1032.41 390.522 968.226 515.837 888.429C832.14 687.044 1078.37 391.627 1243.25 56.5586C1243.96 50.7482 1244.65 44.9332 1245.31 39.1136C1082.88 375.358 839.091 672.655 524.407 876.508L524.412 876.531ZM445.812 1075.2C442.693 1076.81 439.572 1078.41 436.449 1080H448.376C775.332 911.283 1046.87 651.279 1245.56 342.663C1247.08 336.67 1248.58 330.672 1250.04 324.667C1051.21 638.942 777.253 904.095 445.807 1075.16L445.812 1075.2ZM1324.59 62.5651C1323.83 68.6965 1323.03 74.828 1322.21 80.9595C1158.67 413.499 918.367 708.856 610.366 917.284C517.693 979.956 419.713 1034.39 317.549 1079.95H304.314C414.509 1031.57 519.894 972.884 619.067 904.679C925.498 693.778 1163.53 396.415 1324.59 62.5651ZM885.499 1010.27C854.233 1034.42 822.372 1057.65 789.915 1079.96H779.632C819.324 1052.87 858.142 1024.41 896.088 994.576C892.599 999.821 889.069 1005.05 885.499 1010.27ZM742.844 1079.95H753.16C878.788 995.544 995.399 898.418 1101.15 790.112C1104.01 784.329 1106.85 778.534 1109.68 772.727C998.899 888.151 875.898 991.166 742.844 1079.95ZM706.543 1079.95H716.97C868.154 980.984 1007.01 862.972 1130.21 729.163C1132.89 723.319 1135.54 717.467 1138.16 711.607C1010.35 852.797 865.215 976.858 706.543 1079.95ZM669.52 1079.95H680.095C812.694 995.735 935.684 897.246 1046.87 786.245C1049.68 780.66 1052.48 775.06 1055.25 769.444C939.043 887.459 809.605 991.652 669.511 1079.95H669.52ZM633.7 1079.95H644.377C894.283 924.949 1109.56 717.428 1280.31 476.925C1282.25 470.711 1284.17 464.49 1286.08 458.262C1112.43 707.073 891.506 921.485 633.691 1079.95H633.7ZM1343 344.233V332.757C1174.61 605.932 953.261 845.939 685.199 1024.09C655.926 1043.54 626.212 1062.16 596.057 1079.96H607.048C630.147 1066.18 652.994 1051.91 675.587 1037.16C947.314 859.628 1171.98 618.936 1343 344.233ZM1343 304.008V292.25C1158.65 602.032 905.936 870.581 596.302 1057.22C583.464 1064.96 570.552 1072.54 557.566 1079.96H568.752C573.883 1076.99 579.004 1074 584.117 1070.98C898.388 885.395 1155.49 615.926 1343 304.008ZM1343 262.361V250.32C1195.64 507.402 1002.39 737.791 766.141 918.067C687.266 978.21 603.979 1032.32 516.984 1079.95H528.489C608.132 1035.88 684.636 986.343 757.455 931.71C997.013 751.864 1193.25 520.791 1343 262.361ZM1243.08 373.399C1241.47 379.41 1239.84 385.415 1238.18 391.414C1046.43 676.356 791.655 917.095 489.319 1079.95H477.749C788.503 914.552 1048.97 666.82 1243.08 373.399ZM1204.16 357.899C1202.62 363.765 1201.06 369.616 1199.47 375.451C998.888 672.938 728.183 920.813 406.155 1079.95H393.873C724.661 918.794 1001.27 663.94 1204.16 357.899ZM909.338 687.938C906.925 693.004 904.491 698.058 902.035 703.1C768.7 833.662 617.947 945.964 453.462 1034.22C423.519 1050.27 393.175 1065.52 362.431 1079.96H349.649C388.214 1062.12 426.163 1043.01 463.495 1022.62C627.258 933.085 777.058 819.551 909.338 687.938ZM255.961 1079.95H269.544C548.778 961.557 796.783 777.335 995.065 545.395C997.052 540.147 999.019 534.898 1000.97 529.65C798.944 769.726 544.03 959.936 255.961 1079.95ZM497.515 915.705C389.148 982.119 274.038 1037.04 154.587 1079.95H169.91C280.744 1039.31 387.47 988.235 488.652 927.403C809.482 734.202 1062.97 445.967 1236.1 115.447C1236.96 109.627 1237.8 103.803 1238.62 97.9738C1067.99 429.759 816.807 720.008 497.515 915.71V915.705ZM65.5093 1071.58C56.3645 1074.44 47.1997 1077.23 38.0149 1079.95H55.9064C240.351 1023.49 415.494 938.073 573.357 827.1C726.101 719.73 861.532 589.158 977.396 442.874C979.053 437.761 980.695 432.642 982.324 427.517C867.59 574.64 733.251 706.23 581.395 814.786C424.361 927.065 249.7 1013.85 65.5093 1071.58V1071.58ZM1225.59 0H1219.23C1074.12 310.278 860.12 588.602 582.173 791.126C426.203 904.665 253.109 992.542 69.4337 1051.44C36.915 1061.86 4.14026 1071.37 -28.8906 1079.96H-8.92126C13.7462 1073.81 36.2994 1067.24 58.7386 1060.23C242.929 1002.67 417.54 915.844 574.398 803.385C859.069 599.291 1078.08 316.15 1225.59 0ZM351.009 913.45C207.313 989.301 53.4767 1044.87 -105.034 1079.95H-86.3323C61.5247 1046.15 205.425 994.863 341.925 924.143C677.91 750.072 947.277 470.326 1131.15 141.399C1132.03 135.95 1132.89 130.494 1133.73 125.033C952.363 455.095 685.472 736.874 351.009 913.45ZM141.176 988.088C30.5686 1029.98 -83.4028 1060.21 -199.151 1079.96H-170.273C-67.9965 1060.97 32.8317 1033.75 131.068 997.383C489.078 864.866 791.535 616.713 1007.52 303.475C1008.78 298.353 1010.03 293.228 1011.27 288.1C797.93 602.607 497.76 853.034 141.176 988.088ZM1159.57 0H1153.29C1000.16 320.003 770.297 603.528 472.269 799.017C309.062 906.077 128.213 984.971 -60.8881 1033.02C-146.921 1054.88 -234.365 1070.35 -322.466 1079.96H-280.399C-210.236 1070.89 -140.637 1057.89 -71.9302 1041.01C117.962 994.238 299.862 916.59 464.282 810.539C769.103 613.934 1004.03 325.811 1159.57 0ZM44.7948 876.74C-210.587 967.702 -484.022 992.395 -752.977 968.202V963.368C-480.592 987.912 -203.645 962.02 54.356 867.932C407.78 739.037 702.799 487.702 904.275 171.695C939.755 116.058 972.357 58.8263 1002.08 0H1008.22C975.994 63.8725 940.368 125.971 901.498 186.028C697.324 501.15 399.81 750.294 44.7948 876.74ZM280.355 791.821C105.605 885.687 -85.5918 946.705 -281.759 974.987C-437.817 997.489 -596.091 999.374 -752.977 985.203V980.354C-592.231 994.868 -429.996 992.492 -270.25 968.314C-74.9244 938.726 115.139 876.406 288.574 781.503C452.865 691.601 600.897 573.357 726.952 434.931C845.866 304.323 944.491 157.269 1023.3 0H1029.43C948.203 162.507 845.926 314.173 722.102 448.107C594.789 585.824 445.59 703.049 280.332 791.821H280.355ZM610.065 608.516C466.225 733.09 301.93 833.463 125.015 903.567C-66.7562 979.562 -271.513 1019.39 -477.399 1027.05C-569.342 1030.48 -661.381 1027.52 -752.977 1019.24V1014.36C-657.179 1023 -560.864 1025.84 -464.71 1021.63C-259.638 1012.63 -55.9408 971.403 134.53 894.236C310.552 822.918 473.699 721.448 616.294 595.998C805.289 429.731 955.256 224.794 1066.13 0H1072.33C959.018 230.236 804.849 439.789 610.065 608.516ZM629.178 490.244C493.868 622.126 336.547 730.951 164.537 809.238C-19.9171 893.166 -219.343 941.023 -421.24 955.518C-531.74 963.442 -642.703 961.432 -752.977 951.383V946.543C-638.668 956.972 -523.576 958.718 -409.068 949.702C-208.055 933.873 -9.76355 884.631 173.307 799.569C344.345 720.096 500.453 610.234 634.473 477.597C775.392 338.134 890.502 175.766 980.246 0H986.355C894.2 180.962 775.291 347.822 629.178 490.226V490.244ZM188.001 778.562C6.88757 866.005 -190.002 917.822 -390.089 935.897C-510.827 946.807 -632.323 945.534 -752.977 934.507V929.672C-628.348 941.06 -502.811 942.028 -378.172 929.867C-178.988 910.417 16.7219 857.29 196.451 768.768C365.217 685.65 518.215 572.292 648.722 436.876C773.629 307.263 876.882 159.261 958.949 0H965.025C880.557 164.364 773.638 316.813 643.793 449.524C511.995 584.231 357.761 696.589 188.001 778.544V778.562ZM714.531 163.081C751.434 110.595 785.484 56.1551 816.53 0L810.477 0C781.518 52.1844 749.959 102.881 715.919 151.897C609.825 304.559 478.656 439.91 326.495 546.956C169.915 657.142 -7.53296 735.716 -193.926 779.035C-377.029 821.594 -566.213 829.851 -752.977 812.378V817.153C-568.083 834.431 -380.824 826.581 -199.392 785.305C-12.6144 742.811 165.43 665.121 322.811 555.755C475.56 449.621 607.529 315.081 714.531 163.081ZM858.306 0H852.29C751.693 185.398 620.353 353.43 458.242 490.462C311.829 614.226 142.698 709.903 -39.035 770.926C-238.752 837.987 -450.826 862.536 -660.868 852.432C-691.622 850.95 -722.32 848.748 -752.963 845.828V850.607C-724.579 853.278 -696.139 855.365 -667.643 856.868C-457.286 867.705 -244.805 844.068 -44.3988 777.932C137.714 717.831 307.502 623.099 454.711 500.164C621.195 361.118 755.719 189.566 858.306 0ZM651.901 332.174C740.665 230.305 816.599 118.554 880.025 0H873.967C812.573 114.386 739.471 222.419 654.368 321.295C532.117 463.366 385.867 584.592 221.761 675.332C48.8719 770.93 -141.923 831.351 -337.646 856.762C-475.409 874.647 -614.802 875.286 -753 862.486V867.288C-616.852 879.903 -479.533 879.472 -343.745 862.439C-147.703 837.849 43.61 778.359 217.235 683.612C381.849 593.785 528.799 473.485 651.915 332.174H651.901ZM795.191 0H789.1C630.609 280.927 396.4 517.442 102.944 657.294C-163.553 784.295 -460.956 822.932 -752.977 795.697V800.453C-462.632 827.438 -167.006 789.751 98.5988 664.889C396.872 524.667 634.908 285.09 795.191 0ZM159.9 614.467C-14.3267 708.337 -206.945 764.609 -403.621 784.319C-519.782 795.961 -636.835 794.97 -752.977 783.948V779.183C-634.836 790.399 -515.755 791.223 -397.633 778.868C-201.331 758.348 -9.32397 701.136 164.107 606.464C328.712 516.623 474.458 394.41 594.738 250.677C660.255 172.38 718.011 88.3367 768.164 0H774.208C722.019 92.2499 661.583 179.841 592.729 261.125C471.566 404.177 325.042 525.491 159.9 614.467ZM498.847 0H492.757C425.611 98.9973 346.395 189.682 255.04 268.488C119.489 385.426 -40.3308 472.535 -212.304 522.268C-387.757 573.005 -571.841 584.027 -752.977 565.549V570.18C-571.471 588.658 -387.021 577.632 -211.184 526.89C-40.6456 477.68 118.05 391.868 253.101 276.676C347.862 195.892 429.762 102.346 498.847 0ZM562.111 0H556.095C449.287 164.674 311.695 308.426 144.836 415.662C13.686 499.946 -132.496 559.483 -284.883 592.048C-438.65 624.928 -596.832 630.106 -752.977 614.471V619.167C-596.554 634.811 -438.085 629.601 -284.045 596.758C-133.204 564.595 11.6311 506.147 141.888 423.423C312.783 314.872 453.425 168.259 562.111 0ZM476.657 0H470.548C354.526 167.847 203.948 310.491 21.7524 408.678C-215.677 536.633 -486.873 576.353 -752.977 549.271V553.935C-488.205 580.836 -218.329 541.894 18.5916 415.93C204.943 316.808 358.705 171.413 476.657 0ZM520.247 0H514.143C424.412 134.207 312.741 253.734 181.859 348.586C28.5092 459.73 -149.036 534.396 -335.239 568.226C-473.068 593.266 -613.839 596.049 -752.995 581.901V586.569C-615.547 600.513 -476.525 598.022 -340.274 573.936C-153.502 540.926 24.8669 467.126 179.184 356.607C313.889 260.157 428.582 137.736 520.256 0H520.247ZM388.005 196.013C444.807 135.254 495.983 69.5023 541.498 0H534.556C389.791 218.584 189.75 398.138 -55.0383 502.109C-275.197 595.618 -516.32 621.802 -752.954 598.142V602.824C-517.778 626.304 -278.163 600.768 -58.9072 509.023C110.465 438.141 262.704 330.071 388.014 196.013H388.005ZM456.15 0H450.023C390.786 84.4744 322.321 162.456 244.544 231.583C111.487 349.841 -46.4999 438.395 -217.2 488.948C-390.867 540.384 -573.414 551.628 -752.977 533.03V537.661C-573.012 556.236 -390.071 545.001 -215.992 493.542C-46.7035 443.494 110.21 356.25 242.8 239.715C323.848 168.509 394.946 87.7208 456.15 0ZM291.476 170.31C343.956 117.628 391.712 60.5367 434.682 0H428.527C387.616 57.3505 342.383 111.608 292.864 161.831C164.412 292.18 7.91968 393.516 -164.771 454.474C-353.339 521.045 -554.977 537.462 -752.977 516.85V521.481C-556.379 541.903 -356.231 526 -168.69 460.911C4.61072 400.778 162.047 300.187 291.476 170.31ZM335.094 98.1405C362.67 66.6743 388.696 33.9608 413.171 0H405.734C276.796 176.72 107.133 321.782 -97.4624 410.123C-303.955 499.284 -530.634 523.889 -752.977 500.646V505.277C-531.981 528.33 -306.662 504.35 -100.961 416.847C66.5504 345.585 215.277 234.95 335.094 98.1405ZM391.582 0H385.39C333.511 70.1321 274.76 135.249 209.067 193.831C81.1747 307.898 -70.7594 393.428 -235.045 442.272C-402.913 492.18 -579.431 502.859 -752.977 484.465V489.096C-580.819 507.31 -405.759 497.043 -239.002 448.394C-74.0961 400.277 78.6571 315.433 207.502 201.82C276.343 141.112 337.681 73.2627 391.582 0ZM369.831 0H363.62C326.004 50.0409 284.742 97.2299 240.171 141.181C109.849 269.396 -49.1841 366.615 -223.661 421.529C-394.671 475.356 -575.381 487.322 -752.977 468.34V472.971C-575.293 491.921 -394.486 480.01 -223.318 426.401C-48.7814 371.723 110.502 274.907 241.194 147.081C287.776 101.42 330.787 52.2483 369.849 0L369.831 0ZM348.112 0H341.869C300.383 54.0484 254.54 104.603 204.8 151.156C84.3402 263.713 -59.4626 350.054 -216.14 401.625C-388.525 458.369 -572.248 471.966 -751.723 452.413L-752.995 452.275V456.878C-575.284 476.282 -393.569 463.542 -222.518 408.678C-63.5398 357.691 82.6001 271.165 204.999 157.677C257.1 109.283 304.984 56.5333 348.131 0L348.112 0ZM325.435 0H319.165C226.907 117.859 114.292 219.237 -17.8162 295.056C-241.08 423.187 -499.474 463.352 -752.977 436.057V440.66C-499.261 467.872 -240.714 427.943 -17.0109 300.164C117.499 223.331 231.947 120.119 325.477 0H325.435ZM220.734 94.6302C250.179 64.547 278.052 32.9615 304.24 0L297.927 0C273.245 30.8518 247.09 60.4904 219.461 88.9156C92.8138 218.908 -63.7018 318.003 -236.596 373.621C-403.223 427.212 -579.69 439.021 -752.977 420.033V424.641C-579.546 443.652 -402.932 431.847 -236.105 378.433C-63.1047 323.023 93.6793 224.28 220.734 94.6302ZM259.247 0H252.893C169.753 99.5993 70.7249 185.667 -43.7555 251.821C-258.953 376.201 -508.351 414.939 -752.977 387.839V392.442C-508.101 419.478 -258.407 380.897 -42.7698 256.804C74.0061 189.599 174.843 101.767 259.247 0ZM281.924 0H275.593C208.299 82.358 130.309 155.968 41.6339 217.514C-72.953 297.057 -202.52 353.703 -338.553 384.347C-474.585 414.99 -614.811 419.311 -753 403.927V408.521C-614.603 423.873 -474.178 419.57 -338.011 389.006C-201.845 358.441 -72.1014 301.979 42.7491 222.622C133.595 159.863 213.329 84.4744 281.901 0H281.924ZM-281.602 255.141C-433.693 304.753 -594.642 315.372 -752.977 296.557V292.004C-591.602 311.214 -427.515 299.682 -273.063 247.361C-124.661 197.096 6.61462 110.436 114.907 0H121.627C9.67822 115.053 -126.961 204.691 -281.602 255.141ZM-752.977 217.195V212.661C-624.53 228.999 -494.06 224.197 -368.458 191.571C-234.249 156.718 -111.147 89.851 -6.75085 0H0.533447C-107.718 94.1671 -236.29 163.558 -376.469 198.365C-499.659 228.958 -627.297 233.139 -752.977 217.195ZM-752.977 233.01V228.471C-582.809 249.705 -409.485 233.866 -249.748 169.097C-150.517 128.858 -60.5316 70.8546 18.2676 0H25.3622C-55.9408 73.8231 -149.212 134.008 -252.312 175.15C-411.405 238.664 -583.753 254.062 -752.977 233.01ZM-153.775 221.312C-266.862 275.856 -389.798 307.838 -514.469 317.919C-593.846 324.333 -673.77 321.935 -752.977 312.524V307.963C-670.202 317.818 -586.646 320.003 -503.769 312.399C-381.384 301.192 -260.901 268.636 -150.142 214.273C-42.3995 161.396 54.9299 88.6007 137.691 1.76442C138.251 1.18091 138.806 0.588139 139.361 0H146.058C143.87 2.32477 141.674 4.64028 139.468 6.94653C55.2075 94.9035 -44.0054 168.37 -153.775 221.312ZM75.4592 112.946C-22.5273 194.558 -135.203 257.962 -256.158 298.395C-386.618 342.01 -524.812 358.459 -661.636 352.069C-692.12 350.642 -722.599 348.053 -752.977 344.488V339.917C-718.513 343.969 -683.919 346.748 -649.312 348.026C-514.857 352.995 -379.241 335.573 -251.386 291.833C-132.551 251.182 -21.9258 188.223 74.3531 107.588C113.94 74.3827 151.143 38.4313 185.687 0L192.226 0C156.127 40.4615 117.099 78.2076 75.4592 112.932V112.946ZM-752.977 248.899V244.36C-661.275 255.813 -568.49 257.068 -476.96 245.194C-282.292 219.941 -100.295 133.836 43.7396 0H50.7833C-97.1338 138.931 -285.411 227.036 -486.373 250.964C-574.867 261.504 -664.417 259.921 -752.977 248.899ZM12.1217 77.8011C-161.86 216.333 -377.751 288.049 -598.734 289.8C-650.219 290.203 -701.755 286.952 -752.977 280.7V276.148C-700.103 282.631 -646.882 285.873 -593.731 285.211C-374.993 282.464 -161.591 210.531 10.34 73.1099C38.9424 50.2257 66.2957 25.8206 92.2816 0L99.1124 0C71.6129 27.563 42.5692 53.5387 12.1217 77.8011ZM-575.858 273.508C-634.965 275.268 -694.203 272.045 -752.977 264.783V260.263C-690.745 267.969 -628.023 271.114 -565.491 268.599C-357.698 260.296 -156.709 187.408 5.49915 55.512C27.2534 37.8154 48.1592 19.3113 68.2166 0H75.1584C53.5615 20.9754 30.9635 41.0339 7.36426 60.1755C-158.333 194.401 -363.932 267.173 -575.858 273.503V273.508ZM-545.092 192.812C-614.362 197.619 -684.007 194.665 -752.977 185.602V181.073C-682.739 190.363 -611.789 193.225 -541.26 188.019C-387.151 176.599 -237.35 125.653 -109.273 37.8401C-91.6868 25.7994 -74.6298 13.1907 -58.1021 0.0138931H-50.517C-68.72 14.6664 -87.5493 28.6614 -107.005 41.9987C-236.882 130.868 -388.877 181.967 -545.092 192.812ZM-524.201 207.007C-600.335 213.777 -677.056 211.239 -752.977 201.394V196.865C-674.085 207.136 -594.328 209.442 -515.279 201.616C-349.808 185.231 -190.969 123.352 -58.6342 21.4185C-49.5604 14.4318 -40.6348 7.29231 -31.8572 0H-24.4525C-34.8375 8.72484 -45.4293 17.2413 -56.2277 25.5493C-191.756 129.71 -354.746 191.946 -524.201 207.007Z"/>
</mask>
<path d="M-461.715 167.18C-321.985 144.275 -189.636 86.2111 -77.3448 0H-85.1707C-193.39 81.9135 -320 137.842 -453.797 161.192C-552.732 178.456 -653.542 178.544 -752.977 165.29V169.796C-656.198 182.643 -558.142 182.948 -461.715 167.18ZM-601.714 148.049C-652.251 148.781 -702.815 145.27 -752.977 138.356V133.836C-701.57 140.968 -649.742 144.488 -597.97 143.492C-480.579 141.279 -363.659 115.84 -256.736 65.8948C-216.534 47.0975 -177.926 25.0599 -141.293 0L-133.042 0C-172.631 27.547 -214.566 51.5556 -258.361 71.7484C-366.084 121.37 -483.707 146.34 -601.714 148.026V148.049ZM-752.977 122.606V118.091C-651.381 132.29 -547.933 131.752 -447.036 111.52C-348.822 91.8377 -255.218 53.7569 -171.051 0H-162.396C-250.549 57.3598 -349.225 97.4413 -452.788 117.276C-551.904 136.263 -653.32 136.476 -752.977 122.606ZM-752.977 106.861V102.392C-657.776 115.901 -561.15 116.09 -466.399 99.1223C-373.197 82.4321 -283.3 48.5886 -201.886 0H-192.867C-278.751 52.3305 -374.28 88.2348 -473.391 104.934C-565.973 120.536 -660.146 119.99 -752.977 106.879V106.861ZM-752.977 91.1431V86.651C-574.881 111.946 -393.324 87.304 -234.425 0H-224.878C-226.405 0.86137 -227.935 1.71811 -229.469 2.57022C-389.747 91.458 -573.146 116.567 -752.977 91.1616V91.1431ZM-537.779 81.881C-609.535 88.7535 -681.707 85.998 -752.977 75.5412V71.0584C-679.365 81.9088 -604.801 84.4883 -530.768 76.6665C-448.22 67.937 -366.941 45.7637 -291.39 10.8366C-283.819 7.33553 -276.332 3.72334 -268.931 0H-258.782C-269.682 5.63749 -280.76 11.0403 -292.015 16.2086C-369.574 51.6544 -453.089 73.7721 -537.779 81.881ZM-752.977 59.9161V55.4472C-664.279 68.7428 -573.956 69.8034 -485.29 54.521C-423.719 43.909 -363.726 25.5917 -306.722 0L-295.685 0C-356.722 28.3564 -421.294 48.3659 -487.664 59.4901C-575.585 74.1936 -665.075 73.0358 -752.977 59.9161ZM-752.977 44.2494V39.7712C-622.85 59.4391 -489.899 51.2515 -365.362 6.66867C-359.383 4.52914 -353.433 2.30625 -347.513 0H-335.198C-345.614 4.25128 -356.133 8.25093 -366.755 11.999C-490.954 55.8038 -623.396 63.746 -752.977 44.2494ZM-752.977 28.6799V24.2202C-669.804 37.15 -585.289 38.6551 -502.015 25.5679C-465.69 19.847 -429.866 11.2985 -394.87 0L-380.523 0C-421.991 14.2414 -464.682 24.628 -508.054 31.0278C-589.413 42.9897 -671.831 41.2161 -752.977 28.6799ZM-736.279 0H-698.044C-649.201 4.5384 -600.191 4.68659 -551.686 0H-514.927C-587.96 10.7532 -662.506 10.2438 -736.279 0ZM-752.977 13.0456V8.59054C-653.667 24.0813 -552.871 22.2289 -456.134 0H-436.993C-539.631 26.3968 -647.141 29.4672 -752.977 13.0456ZM-752.977 154.014V149.508C-594.99 170.672 -433.915 156.51 -285.457 96.0798C-224.105 71.1093 -166.413 38.5949 -113.082 0H-105.149C-162.535 42.1423 -225.012 77.2593 -291.682 103.573C-438.557 161.548 -597.271 174.779 -752.977 154.014ZM-60.6752 228.406C-184.564 299.928 -322.573 344.427 -464.052 361.243C-559.91 372.63 -656.929 371.431 -752.977 360.428V355.861C-653.209 367.337 -552.376 368.134 -452.918 355.204C-312.313 336.93 -175.554 291.018 -53.1085 218.441C45.1188 160.233 133.053 85.7202 208.322 0H214.801C136.015 90.3512 43.2583 168.402 -60.6752 228.406ZM25.9869 130.743C-71.5692 204.617 -182.208 260.527 -299.646 294.894C-425.122 331.609 -556.8 343.418 -686.714 334.721C-708.823 333.245 -730.911 331.178 -752.977 328.52V323.949C-728.961 326.811 -704.904 329.011 -680.805 330.548C-551.256 338.625 -420.069 326.098 -295.208 288.712C-179.844 254.173 -71.2175 198.652 24.6356 125.732C74.2301 87.9321 120.423 45.8608 162.686 0H169.276C125.556 47.8207 77.5968 91.5804 25.9869 130.743ZM37.5938 184.958C-74.8643 265.779 -202.793 323.792 -337.563 355.44C-473.623 387.394 -614.547 392.243 -752.977 376.488V371.936C-612.895 388.024 -469.958 382.643 -332.342 349.392C-199.491 317.289 -74.1477 259.635 36.7052 179.642C109.03 127.381 173.779 66.8488 230.957 0H237.394C178.768 69.0022 112.172 131.354 37.5938 184.958ZM134.275 508.949C1.74597 585.254 -143.496 638.229 -293.634 666.867C-444.967 695.718 -599.881 699.696 -752.977 684.756V680.042C-598.155 695.185 -441.45 690.879 -288.525 660.99C-138.813 631.727 5.85559 578.095 137.705 501.22C346.428 379.531 515.499 203.857 640.767 0H646.815C519.696 207.636 347.321 386.283 134.275 508.949ZM626.138 0H620.122C544.284 122.259 452.194 234.117 343.836 330.192C207.706 450.895 47.9093 543.631 -124.832 600.768C-314.326 663.444 -515.926 682.529 -714.454 667.066C-727.301 666.066 -740.136 664.917 -752.958 663.62V668.326C-742.25 669.4 -731.53 670.377 -720.799 671.257C-521.772 687.466 -319.523 669.219 -129.191 607.303C44.0867 550.934 204.638 458.98 341.638 338.856C453.582 240.706 548.422 125.797 626.138 0ZM605.025 0H599.009C528.901 111.427 444.997 213.953 347.214 303.452C213.334 425.966 55.2815 520.916 -116.335 580.021C-304.006 644.661 -504.31 665.626 -701.843 651.64C-718.911 650.433 -735.956 648.963 -752.977 647.231V651.918C-735.958 653.628 -718.919 655.095 -701.857 656.317C-504.348 670.294 -304.024 649.482 -116.284 585.125C55.3602 526.311 213.556 431.838 347.77 309.76C447.922 218.672 533.654 113.923 605.049 0H605.025ZM583.561 0H577.499C485.149 144.668 369.354 273.767 230.549 377.308C93.4432 479.584 -63.2946 554.004 -229.001 596.123C-400.067 639.595 -577.783 648.199 -752.977 630.81V635.492C-579.394 652.696 -403.33 644.499 -233.652 602.236C-67.4042 560.835 90.014 487.151 227.963 385.449C370.618 280.274 489.328 148.239 583.561 0ZM710.343 0H704.326C589.471 194.623 436.699 365.92 248.135 493.592C105.531 590.154 -54.557 659.383 -222.226 698.395C-396.059 738.823 -575.677 746.437 -752.958 729.422V734.151C-577.408 750.952 -399.595 743.723 -227.284 704.512C-59.1665 666.246 101.542 597.74 244.905 501.817C437.685 372.834 593.632 198.439 710.343 0ZM366.952 433.311C224.154 550.077 59.3125 638.548 -117.015 692.648C-311.568 752.337 -517.065 769.68 -719.517 753.694C-730.677 752.814 -741.824 751.827 -752.958 750.734V746.006C-739.664 747.303 -726.354 748.459 -713.029 749.475C-511.03 764.757 -306.074 746.576 -112.295 686.085C63.5284 631.208 227.676 541.922 369.646 424.507C513.541 305.494 632.302 160.432 725.638 0H731.654C636.458 164.197 514.754 312.432 366.934 433.311H366.952ZM154.531 537.407C20.0632 614.828 -127.197 668.784 -279.441 698.284C-435.401 728.506 -595.096 732.882 -752.954 717.664V712.955C-595.295 728.181 -435.767 723.773 -280.028 693.504C-126.146 663.593 22.5901 608.581 158.095 529.566C377.259 401.801 553.896 215.731 683.061 0H689.124C558.108 219.58 378.082 408.673 154.508 537.407H154.531ZM17.6244 587.607C-224.271 695.046 -491.061 726.352 -752.954 701.187V696.505C-489.515 721.883 -221.074 689.786 21.7062 580.415C291.786 458.721 509.718 250.418 662.041 0H668.113C513.958 254.382 292.304 465.593 17.6012 587.607H17.6244ZM98.321 626.382C-166.011 755.19 -462.192 794.572 -752.954 767.263V762.507C-460.526 789.973 -162.753 749.748 102.463 618.788C376.231 483.594 595.2 262.116 746.681 0H752.781C599.481 266.172 376.782 490.675 98.2979 626.382H98.321ZM79.504 711.927C-182.232 826.266 -470.212 859.92 -752.977 833.787V828.994C-467.042 855.428 -175.878 820.496 87.8898 702.729C408.071 559.765 663.601 305.073 831.589 0H837.67C667.271 310.602 406.285 569.152 79.481 711.927H79.504ZM788.249 186.551C829.553 126.618 867.334 64.3291 901.401 0L895.311 0C863.358 60.1398 828.15 118.491 789.845 174.793C685.296 328.302 556.794 465.621 407.729 576.631C254.86 690.457 81.4338 775.233 -102.099 826.47C-313.595 885.525 -534.873 899.223 -752.977 879.185V883.997C-536.798 903.831 -317.538 890.665 -107.625 833.153C76.2506 782.767 250.283 698.913 403.906 585.898C553.535 475.819 682.82 339.347 788.249 186.551ZM891.289 57.4246C902.072 38.4467 912.53 19.3052 922.662 0H916.562C908.611 15.0971 900.463 30.0955 892.117 44.995C709.685 370.505 429.646 638.154 82.9518 781.183C-181.357 890.23 -469.675 921.749 -752.977 895.94V900.733C-471.526 926.329 -185.175 895.639 77.9398 788.663C425.287 647.477 706.89 381.753 891.289 57.4246ZM711.148 348.188C801.998 241.193 879.488 124.051 943.876 0H937.781C875.809 119.045 801.721 231.695 715.253 335.077C595.446 478.292 452.439 602.014 291.592 697.01C123.057 796.544 -63.5306 863.338 -256.32 896.287C-420.328 924.319 -587.492 927.931 -752.977 912.792V917.618C-591.25 932.391 -427.932 929.353 -267.468 903.137C-73.7582 871.493 114.024 805.996 283.937 707.439C445.816 613.545 590.04 490.749 711.148 348.179V348.188ZM1137.2 1.18091L1137.31 0H1131.5C970.241 334.42 723.49 627.633 403.925 820.177C236.621 920.98 52.5326 992.418 -138.433 1032.93C-340.247 1075.74 -547.808 1083.82 -752.968 1065.56V1070.46C-550.117 1088.52 -344.944 1080.88 -145.218 1039.5C45.8684 999.906 230.272 929.51 398.126 829.772C723.028 636.714 973.966 340.037 1137.2 1.18091ZM355.605 812.244C185.427 910.222 -1.3501 977.571 -194.301 1013.38C-378.427 1047.53 -566.704 1052.9 -752.977 1036.23V1031.33C-564.52 1048.19 -374.035 1042.44 -187.91 1007.07C4.83289 970.444 191.24 902.099 360.802 803.167C522.237 708.972 667.308 587.95 791.03 447.935C910.435 312.839 1009.27 161.447 1088.07 0H1094.28C1013.36 166.166 911.319 321.745 787.652 459.934C663.124 599.041 517.442 719.063 355.605 812.244ZM577.281 612.082C431.146 734.98 264.505 832.745 85.6545 899.603C-109.074 972.394 -316.32 1007.97 -523.914 1011.16C-600.386 1012.33 -676.829 1009.1 -752.972 1002.22V997.359C-672.558 1004.64 -591.801 1007.8 -511.049 1006.03C-304.297 1001.49 -98.1149 964.525 95.2712 890.522C273.205 822.446 438.713 723.574 583.566 599.81C777.572 434.051 931.348 227.429 1044.54 0H1050.69C935.087 232.824 777.123 444.017 577.277 612.082H577.281ZM513.685 732.025C356.632 845.101 180.823 931.048 -4.67749 986.023C-209.694 1046.78 -424.595 1069.46 -637.937 1060.95C-676.348 1059.4 -714.693 1056.88 -752.972 1053.39V1048.46C-710.195 1052.32 -667.336 1055.01 -624.395 1056.52C-411.85 1063.69 -197.916 1039.58 5.80933 977.534C190.463 921.3 365.189 834.162 520.997 720.133C775.078 534.174 972.467 281.895 1109.53 0H1115.77C976.28 287.517 774.208 544.432 513.68 732.002L513.685 732.025ZM670.719 826.757C533.369 931.293 382.342 1016.49 221.858 1079.95H207.396C376.46 1014.39 535.17 924.73 678.609 813.749C953.738 600.893 1164.98 315.59 1308.42 0H1314.89C1168.99 321.652 952.715 612.026 670.714 826.734L670.719 826.757ZM524.412 876.531C391.915 962.363 248.464 1030.61 98.645 1079.98H115.06C255.66 1032.41 390.522 968.226 515.837 888.429C832.14 687.044 1078.37 391.627 1243.25 56.5586C1243.96 50.7482 1244.65 44.9332 1245.31 39.1136C1082.88 375.358 839.091 672.655 524.407 876.508L524.412 876.531ZM445.812 1075.2C442.693 1076.81 439.572 1078.41 436.449 1080H448.376C775.332 911.283 1046.87 651.279 1245.56 342.663C1247.08 336.67 1248.58 330.672 1250.04 324.667C1051.21 638.942 777.253 904.095 445.807 1075.16L445.812 1075.2ZM1324.59 62.5651C1323.83 68.6965 1323.03 74.828 1322.21 80.9595C1158.67 413.499 918.367 708.856 610.366 917.284C517.693 979.956 419.713 1034.39 317.549 1079.95H304.314C414.509 1031.57 519.894 972.884 619.067 904.679C925.498 693.778 1163.53 396.415 1324.59 62.5651ZM885.499 1010.27C854.233 1034.42 822.372 1057.65 789.915 1079.96H779.632C819.324 1052.87 858.142 1024.41 896.088 994.576C892.599 999.821 889.069 1005.05 885.499 1010.27ZM742.844 1079.95H753.16C878.788 995.544 995.399 898.418 1101.15 790.112C1104.01 784.329 1106.85 778.534 1109.68 772.727C998.899 888.151 875.898 991.166 742.844 1079.95ZM706.543 1079.95H716.97C868.154 980.984 1007.01 862.972 1130.21 729.163C1132.89 723.319 1135.54 717.467 1138.16 711.607C1010.35 852.797 865.215 976.858 706.543 1079.95ZM669.52 1079.95H680.095C812.694 995.735 935.684 897.246 1046.87 786.245C1049.68 780.66 1052.48 775.06 1055.25 769.444C939.043 887.459 809.605 991.652 669.511 1079.95H669.52ZM633.7 1079.95H644.377C894.283 924.949 1109.56 717.428 1280.31 476.925C1282.25 470.711 1284.17 464.49 1286.08 458.262C1112.43 707.073 891.506 921.485 633.691 1079.95H633.7ZM1343 344.233V332.757C1174.61 605.932 953.261 845.939 685.199 1024.09C655.926 1043.54 626.212 1062.16 596.057 1079.96H607.048C630.147 1066.18 652.994 1051.91 675.587 1037.16C947.314 859.628 1171.98 618.936 1343 344.233ZM1343 304.008V292.25C1158.65 602.032 905.936 870.581 596.302 1057.22C583.464 1064.96 570.552 1072.54 557.566 1079.96H568.752C573.883 1076.99 579.004 1074 584.117 1070.98C898.388 885.395 1155.49 615.926 1343 304.008ZM1343 262.361V250.32C1195.64 507.402 1002.39 737.791 766.141 918.067C687.266 978.21 603.979 1032.32 516.984 1079.95H528.489C608.132 1035.88 684.636 986.343 757.455 931.71C997.013 751.864 1193.25 520.791 1343 262.361ZM1243.08 373.399C1241.47 379.41 1239.84 385.415 1238.18 391.414C1046.43 676.356 791.655 917.095 489.319 1079.95H477.749C788.503 914.552 1048.97 666.82 1243.08 373.399ZM1204.16 357.899C1202.62 363.765 1201.06 369.616 1199.47 375.451C998.888 672.938 728.183 920.813 406.155 1079.95H393.873C724.661 918.794 1001.27 663.94 1204.16 357.899ZM909.338 687.938C906.925 693.004 904.491 698.058 902.035 703.1C768.7 833.662 617.947 945.964 453.462 1034.22C423.519 1050.27 393.175 1065.52 362.431 1079.96H349.649C388.214 1062.12 426.163 1043.01 463.495 1022.62C627.258 933.085 777.058 819.551 909.338 687.938ZM255.961 1079.95H269.544C548.778 961.557 796.783 777.335 995.065 545.395C997.052 540.147 999.019 534.898 1000.97 529.65C798.944 769.726 544.03 959.936 255.961 1079.95ZM497.515 915.705C389.148 982.119 274.038 1037.04 154.587 1079.95H169.91C280.744 1039.31 387.47 988.235 488.652 927.403C809.482 734.202 1062.97 445.967 1236.1 115.447C1236.96 109.627 1237.8 103.803 1238.62 97.9738C1067.99 429.759 816.807 720.008 497.515 915.71V915.705ZM65.5093 1071.58C56.3645 1074.44 47.1997 1077.23 38.0149 1079.95H55.9064C240.351 1023.49 415.494 938.073 573.357 827.1C726.101 719.73 861.532 589.158 977.396 442.874C979.053 437.761 980.695 432.642 982.324 427.517C867.59 574.64 733.251 706.23 581.395 814.786C424.361 927.065 249.7 1013.85 65.5093 1071.58V1071.58ZM1225.59 0H1219.23C1074.12 310.278 860.12 588.602 582.173 791.126C426.203 904.665 253.109 992.542 69.4337 1051.44C36.915 1061.86 4.14026 1071.37 -28.8906 1079.96H-8.92126C13.7462 1073.81 36.2994 1067.24 58.7386 1060.23C242.929 1002.67 417.54 915.844 574.398 803.385C859.069 599.291 1078.08 316.15 1225.59 0ZM351.009 913.45C207.313 989.301 53.4767 1044.87 -105.034 1079.95H-86.3323C61.5247 1046.15 205.425 994.863 341.925 924.143C677.91 750.072 947.277 470.326 1131.15 141.399C1132.03 135.95 1132.89 130.494 1133.73 125.033C952.363 455.095 685.472 736.874 351.009 913.45ZM141.176 988.088C30.5686 1029.98 -83.4028 1060.21 -199.151 1079.96H-170.273C-67.9965 1060.97 32.8317 1033.75 131.068 997.383C489.078 864.866 791.535 616.713 1007.52 303.475C1008.78 298.353 1010.03 293.228 1011.27 288.1C797.93 602.607 497.76 853.034 141.176 988.088ZM1159.57 0H1153.29C1000.16 320.003 770.297 603.528 472.269 799.017C309.062 906.077 128.213 984.971 -60.8881 1033.02C-146.921 1054.88 -234.365 1070.35 -322.466 1079.96H-280.399C-210.236 1070.89 -140.637 1057.89 -71.9302 1041.01C117.962 994.238 299.862 916.59 464.282 810.539C769.103 613.934 1004.03 325.811 1159.57 0ZM44.7948 876.74C-210.587 967.702 -484.022 992.395 -752.977 968.202V963.368C-480.592 987.912 -203.645 962.02 54.356 867.932C407.78 739.037 702.799 487.702 904.275 171.695C939.755 116.058 972.357 58.8263 1002.08 0H1008.22C975.994 63.8725 940.368 125.971 901.498 186.028C697.324 501.15 399.81 750.294 44.7948 876.74ZM280.355 791.821C105.605 885.687 -85.5918 946.705 -281.759 974.987C-437.817 997.489 -596.091 999.374 -752.977 985.203V980.354C-592.231 994.868 -429.996 992.492 -270.25 968.314C-74.9244 938.726 115.139 876.406 288.574 781.503C452.865 691.601 600.897 573.357 726.952 434.931C845.866 304.323 944.491 157.269 1023.3 0H1029.43C948.203 162.507 845.926 314.173 722.102 448.107C594.789 585.824 445.59 703.049 280.332 791.821H280.355ZM610.065 608.516C466.225 733.09 301.93 833.463 125.015 903.567C-66.7562 979.562 -271.513 1019.39 -477.399 1027.05C-569.342 1030.48 -661.381 1027.52 -752.977 1019.24V1014.36C-657.179 1023 -560.864 1025.84 -464.71 1021.63C-259.638 1012.63 -55.9408 971.403 134.53 894.236C310.552 822.918 473.699 721.448 616.294 595.998C805.289 429.731 955.256 224.794 1066.13 0H1072.33C959.018 230.236 804.849 439.789 610.065 608.516ZM629.178 490.244C493.868 622.126 336.547 730.951 164.537 809.238C-19.9171 893.166 -219.343 941.023 -421.24 955.518C-531.74 963.442 -642.703 961.432 -752.977 951.383V946.543C-638.668 956.972 -523.576 958.718 -409.068 949.702C-208.055 933.873 -9.76355 884.631 173.307 799.569C344.345 720.096 500.453 610.234 634.473 477.597C775.392 338.134 890.502 175.766 980.246 0H986.355C894.2 180.962 775.291 347.822 629.178 490.226V490.244ZM188.001 778.562C6.88757 866.005 -190.002 917.822 -390.089 935.897C-510.827 946.807 -632.323 945.534 -752.977 934.507V929.672C-628.348 941.06 -502.811 942.028 -378.172 929.867C-178.988 910.417 16.7219 857.29 196.451 768.768C365.217 685.65 518.215 572.292 648.722 436.876C773.629 307.263 876.882 159.261 958.949 0H965.025C880.557 164.364 773.638 316.813 643.793 449.524C511.995 584.231 357.761 696.589 188.001 778.544V778.562ZM714.531 163.081C751.434 110.595 785.484 56.1551 816.53 0L810.477 0C781.518 52.1844 749.959 102.881 715.919 151.897C609.825 304.559 478.656 439.91 326.495 546.956C169.915 657.142 -7.53296 735.716 -193.926 779.035C-377.029 821.594 -566.213 829.851 -752.977 812.378V817.153C-568.083 834.431 -380.824 826.581 -199.392 785.305C-12.6144 742.811 165.43 665.121 322.811 555.755C475.56 449.621 607.529 315.081 714.531 163.081ZM858.306 0H852.29C751.693 185.398 620.353 353.43 458.242 490.462C311.829 614.226 142.698 709.903 -39.035 770.926C-238.752 837.987 -450.826 862.536 -660.868 852.432C-691.622 850.95 -722.32 848.748 -752.963 845.828V850.607C-724.579 853.278 -696.139 855.365 -667.643 856.868C-457.286 867.705 -244.805 844.068 -44.3988 777.932C137.714 717.831 307.502 623.099 454.711 500.164C621.195 361.118 755.719 189.566 858.306 0ZM651.901 332.174C740.665 230.305 816.599 118.554 880.025 0H873.967C812.573 114.386 739.471 222.419 654.368 321.295C532.117 463.366 385.867 584.592 221.761 675.332C48.8719 770.93 -141.923 831.351 -337.646 856.762C-475.409 874.647 -614.802 875.286 -753 862.486V867.288C-616.852 879.903 -479.533 879.472 -343.745 862.439C-147.703 837.849 43.61 778.359 217.235 683.612C381.849 593.785 528.799 473.485 651.915 332.174H651.901ZM795.191 0H789.1C630.609 280.927 396.4 517.442 102.944 657.294C-163.553 784.295 -460.956 822.932 -752.977 795.697V800.453C-462.632 827.438 -167.006 789.751 98.5988 664.889C396.872 524.667 634.908 285.09 795.191 0ZM159.9 614.467C-14.3267 708.337 -206.945 764.609 -403.621 784.319C-519.782 795.961 -636.835 794.97 -752.977 783.948V779.183C-634.836 790.399 -515.755 791.223 -397.633 778.868C-201.331 758.348 -9.32397 701.136 164.107 606.464C328.712 516.623 474.458 394.41 594.738 250.677C660.255 172.38 718.011 88.3367 768.164 0H774.208C722.019 92.2499 661.583 179.841 592.729 261.125C471.566 404.177 325.042 525.491 159.9 614.467ZM498.847 0H492.757C425.611 98.9973 346.395 189.682 255.04 268.488C119.489 385.426 -40.3308 472.535 -212.304 522.268C-387.757 573.005 -571.841 584.027 -752.977 565.549V570.18C-571.471 588.658 -387.021 577.632 -211.184 526.89C-40.6456 477.68 118.05 391.868 253.101 276.676C347.862 195.892 429.762 102.346 498.847 0ZM562.111 0H556.095C449.287 164.674 311.695 308.426 144.836 415.662C13.686 499.946 -132.496 559.483 -284.883 592.048C-438.65 624.928 -596.832 630.106 -752.977 614.471V619.167C-596.554 634.811 -438.085 629.601 -284.045 596.758C-133.204 564.595 11.6311 506.147 141.888 423.423C312.783 314.872 453.425 168.259 562.111 0ZM476.657 0H470.548C354.526 167.847 203.948 310.491 21.7524 408.678C-215.677 536.633 -486.873 576.353 -752.977 549.271V553.935C-488.205 580.836 -218.329 541.894 18.5916 415.93C204.943 316.808 358.705 171.413 476.657 0ZM520.247 0H514.143C424.412 134.207 312.741 253.734 181.859 348.586C28.5092 459.73 -149.036 534.396 -335.239 568.226C-473.068 593.266 -613.839 596.049 -752.995 581.901V586.569C-615.547 600.513 -476.525 598.022 -340.274 573.936C-153.502 540.926 24.8669 467.126 179.184 356.607C313.889 260.157 428.582 137.736 520.256 0H520.247ZM388.005 196.013C444.807 135.254 495.983 69.5023 541.498 0H534.556C389.791 218.584 189.75 398.138 -55.0383 502.109C-275.197 595.618 -516.32 621.802 -752.954 598.142V602.824C-517.778 626.304 -278.163 600.768 -58.9072 509.023C110.465 438.141 262.704 330.071 388.014 196.013H388.005ZM456.15 0H450.023C390.786 84.4744 322.321 162.456 244.544 231.583C111.487 349.841 -46.4999 438.395 -217.2 488.948C-390.867 540.384 -573.414 551.628 -752.977 533.03V537.661C-573.012 556.236 -390.071 545.001 -215.992 493.542C-46.7035 443.494 110.21 356.25 242.8 239.715C323.848 168.509 394.946 87.7208 456.15 0ZM291.476 170.31C343.956 117.628 391.712 60.5367 434.682 0H428.527C387.616 57.3505 342.383 111.608 292.864 161.831C164.412 292.18 7.91968 393.516 -164.771 454.474C-353.339 521.045 -554.977 537.462 -752.977 516.85V521.481C-556.379 541.903 -356.231 526 -168.69 460.911C4.61072 400.778 162.047 300.187 291.476 170.31ZM335.094 98.1405C362.67 66.6743 388.696 33.9608 413.171 0H405.734C276.796 176.72 107.133 321.782 -97.4624 410.123C-303.955 499.284 -530.634 523.889 -752.977 500.646V505.277C-531.981 528.33 -306.662 504.35 -100.961 416.847C66.5504 345.585 215.277 234.95 335.094 98.1405ZM391.582 0H385.39C333.511 70.1321 274.76 135.249 209.067 193.831C81.1747 307.898 -70.7594 393.428 -235.045 442.272C-402.913 492.18 -579.431 502.859 -752.977 484.465V489.096C-580.819 507.31 -405.759 497.043 -239.002 448.394C-74.0961 400.277 78.6571 315.433 207.502 201.82C276.343 141.112 337.681 73.2627 391.582 0ZM369.831 0H363.62C326.004 50.0409 284.742 97.2299 240.171 141.181C109.849 269.396 -49.1841 366.615 -223.661 421.529C-394.671 475.356 -575.381 487.322 -752.977 468.34V472.971C-575.293 491.921 -394.486 480.01 -223.318 426.401C-48.7814 371.723 110.502 274.907 241.194 147.081C287.776 101.42 330.787 52.2483 369.849 0L369.831 0ZM348.112 0H341.869C300.383 54.0484 254.54 104.603 204.8 151.156C84.3402 263.713 -59.4626 350.054 -216.14 401.625C-388.525 458.369 -572.248 471.966 -751.723 452.413L-752.995 452.275V456.878C-575.284 476.282 -393.569 463.542 -222.518 408.678C-63.5398 357.691 82.6001 271.165 204.999 157.677C257.1 109.283 304.984 56.5333 348.131 0L348.112 0ZM325.435 0H319.165C226.907 117.859 114.292 219.237 -17.8162 295.056C-241.08 423.187 -499.474 463.352 -752.977 436.057V440.66C-499.261 467.872 -240.714 427.943 -17.0109 300.164C117.499 223.331 231.947 120.119 325.477 0H325.435ZM220.734 94.6302C250.179 64.547 278.052 32.9615 304.24 0L297.927 0C273.245 30.8518 247.09 60.4904 219.461 88.9156C92.8138 218.908 -63.7018 318.003 -236.596 373.621C-403.223 427.212 -579.69 439.021 -752.977 420.033V424.641C-579.546 443.652 -402.932 431.847 -236.105 378.433C-63.1047 323.023 93.6793 224.28 220.734 94.6302ZM259.247 0H252.893C169.753 99.5993 70.7249 185.667 -43.7555 251.821C-258.953 376.201 -508.351 414.939 -752.977 387.839V392.442C-508.101 419.478 -258.407 380.897 -42.7698 256.804C74.0061 189.599 174.843 101.767 259.247 0ZM281.924 0H275.593C208.299 82.358 130.309 155.968 41.6339 217.514C-72.953 297.057 -202.52 353.703 -338.553 384.347C-474.585 414.99 -614.811 419.311 -753 403.927V408.521C-614.603 423.873 -474.178 419.57 -338.011 389.006C-201.845 358.441 -72.1014 301.979 42.7491 222.622C133.595 159.863 213.329 84.4744 281.901 0H281.924ZM-281.602 255.141C-433.693 304.753 -594.642 315.372 -752.977 296.557V292.004C-591.602 311.214 -427.515 299.682 -273.063 247.361C-124.661 197.096 6.61462 110.436 114.907 0H121.627C9.67822 115.053 -126.961 204.691 -281.602 255.141ZM-752.977 217.195V212.661C-624.53 228.999 -494.06 224.197 -368.458 191.571C-234.249 156.718 -111.147 89.851 -6.75085 0H0.533447C-107.718 94.1671 -236.29 163.558 -376.469 198.365C-499.659 228.958 -627.297 233.139 -752.977 217.195ZM-752.977 233.01V228.471C-582.809 249.705 -409.485 233.866 -249.748 169.097C-150.517 128.858 -60.5316 70.8546 18.2676 0H25.3622C-55.9408 73.8231 -149.212 134.008 -252.312 175.15C-411.405 238.664 -583.753 254.062 -752.977 233.01ZM-153.775 221.312C-266.862 275.856 -389.798 307.838 -514.469 317.919C-593.846 324.333 -673.77 321.935 -752.977 312.524V307.963C-670.202 317.818 -586.646 320.003 -503.769 312.399C-381.384 301.192 -260.901 268.636 -150.142 214.273C-42.3995 161.396 54.9299 88.6007 137.691 1.76442C138.251 1.18091 138.806 0.588139 139.361 0H146.058C143.87 2.32477 141.674 4.64028 139.468 6.94653C55.2075 94.9035 -44.0054 168.37 -153.775 221.312ZM75.4592 112.946C-22.5273 194.558 -135.203 257.962 -256.158 298.395C-386.618 342.01 -524.812 358.459 -661.636 352.069C-692.12 350.642 -722.599 348.053 -752.977 344.488V339.917C-718.513 343.969 -683.919 346.748 -649.312 348.026C-514.857 352.995 -379.241 335.573 -251.386 291.833C-132.551 251.182 -21.9258 188.223 74.3531 107.588C113.94 74.3827 151.143 38.4313 185.687 0L192.226 0C156.127 40.4615 117.099 78.2076 75.4592 112.932V112.946ZM-752.977 248.899V244.36C-661.275 255.813 -568.49 257.068 -476.96 245.194C-282.292 219.941 -100.295 133.836 43.7396 0H50.7833C-97.1338 138.931 -285.411 227.036 -486.373 250.964C-574.867 261.504 -664.417 259.921 -752.977 248.899ZM12.1217 77.8011C-161.86 216.333 -377.751 288.049 -598.734 289.8C-650.219 290.203 -701.755 286.952 -752.977 280.7V276.148C-700.103 282.631 -646.882 285.873 -593.731 285.211C-374.993 282.464 -161.591 210.531 10.34 73.1099C38.9424 50.2257 66.2957 25.8206 92.2816 0L99.1124 0C71.6129 27.563 42.5692 53.5387 12.1217 77.8011ZM-575.858 273.508C-634.965 275.268 -694.203 272.045 -752.977 264.783V260.263C-690.745 267.969 -628.023 271.114 -565.491 268.599C-357.698 260.296 -156.709 187.408 5.49915 55.512C27.2534 37.8154 48.1592 19.3113 68.2166 0H75.1584C53.5615 20.9754 30.9635 41.0339 7.36426 60.1755C-158.333 194.401 -363.932 267.173 -575.858 273.503V273.508ZM-545.092 192.812C-614.362 197.619 -684.007 194.665 -752.977 185.602V181.073C-682.739 190.363 -611.789 193.225 -541.26 188.019C-387.151 176.599 -237.35 125.653 -109.273 37.8401C-91.6868 25.7994 -74.6298 13.1907 -58.1021 0.0138931H-50.517C-68.72 14.6664 -87.5493 28.6614 -107.005 41.9987C-236.882 130.868 -388.877 181.967 -545.092 192.812ZM-524.201 207.007C-600.335 213.777 -677.056 211.239 -752.977 201.394V196.865C-674.085 207.136 -594.328 209.442 -515.279 201.616C-349.808 185.231 -190.969 123.352 -58.6342 21.4185C-49.5604 14.4318 -40.6348 7.29231 -31.8572 0H-24.4525C-34.8375 8.72484 -45.4293 17.2413 -56.2277 25.5493C-191.756 129.71 -354.746 191.946 -524.201 207.007Z" fill="#575757" stroke="#000B0B" stroke-width="2" mask="url(#path-1-inside-1_62_340)"/>
</g>
</svg>
