<svg width="20" height="21" viewBox="0 0 20 21" fill="none" xmlns="http://www.w3.org/2000/svg">
<path d="M10 0.5C15.5228 0.5 20 4.97722 20 10.5C20 16.0228 15.5228 20.5 10 20.5C4.47722 20.5 0 16.0228 0 10.5C0 4.97722 4.47722 0.5 10 0.5Z" fill="#0052FF"/>
<path d="M10.0044 14.0141C8.06081 14.0141 6.49031 12.4393 6.49031 10.5C6.49031 8.56074 8.06514 6.98591 10.0044 6.98591C11.7441 6.98591 13.1888 8.25272 13.4664 9.91432H17.0066C16.7072 6.30478 13.6877 3.46747 10.0001 3.46747C6.1172 3.46747 2.96753 6.61714 2.96753 10.5C2.96753 14.3829 6.1172 17.5325 10.0001 17.5325C13.6877 17.5325 16.7072 14.6952 17.0066 11.0857H13.4621C13.1845 12.7473 11.7441 14.0141 10.0044 14.0141Z" fill="white"/>
</svg>
