<svg width="21" height="21" viewBox="0 0 21 21" fill="none" xmlns="http://www.w3.org/2000/svg">
<path d="M10.5428 0.514377C7.89068 0.514377 5.3472 1.56791 3.47175 3.44328C1.59638 5.31865 0.542847 7.86234 0.542847 10.5144C0.542847 13.1664 1.59638 15.71 3.47175 17.5855C5.34711 19.4608 7.89081 20.5144 10.5428 20.5144C13.1949 20.5144 15.7385 19.4608 17.6139 17.5855C19.4893 15.7101 20.5428 13.1664 20.5428 10.5144C20.5428 8.75905 20.0808 7.03454 19.2032 5.51416C18.3255 3.99404 17.063 2.73158 15.5429 1.85385C14.0226 0.976255 12.2981 0.514206 10.5427 0.514206L10.5428 0.514377ZM10.5428 18.5146C8.42104 18.5146 6.38616 17.6717 4.88605 16.1713C3.38569 14.6712 2.54276 12.6363 2.54276 10.5145C2.54276 8.39283 3.38569 6.35786 4.88605 4.85775C6.38624 3.35739 8.42113 2.51446 10.5428 2.51446C12.6646 2.51446 14.6995 3.35739 16.1996 4.85775C17.7 6.35795 18.5429 8.39283 18.5429 10.5145C18.5429 11.9188 18.1733 13.2985 17.471 14.5145C16.7688 15.7308 15.759 16.7406 14.5428 17.4428C13.3267 18.1451 11.947 18.5147 10.5428 18.5147L10.5428 18.5146Z" fill="#14A800"/>
<path d="M9.49283 8.58415H11.4929C11.7581 8.58415 12.0124 8.68962 12.1999 8.87712C12.3876 9.06462 12.4929 9.31907 12.4929 9.58427H14.493C14.493 8.78858 14.1769 8.02549 13.6142 7.46281C13.0515 6.90031 12.2884 6.58423 11.4929 6.58423V4.58415H9.49283V6.58423C8.69713 6.58423 7.93405 6.90031 7.37154 7.46281C6.80886 8.02549 6.49278 8.78858 6.49278 9.58427V11.5844V11.5842C6.49278 12.3799 6.80886 13.143 7.37154 13.7057C7.93405 14.2682 8.69713 14.5842 9.49283 14.5842V16.5843H11.4929V14.5842C12.2884 14.5842 13.0515 14.2682 13.6142 13.7057C14.1769 13.143 14.493 12.3799 14.493 11.5842H12.4929C12.4929 11.8495 12.3876 12.1038 12.1999 12.2913C12.0124 12.4788 11.7581 12.5843 11.4929 12.5843H9.49283C9.22765 12.5843 8.97318 12.4788 8.78568 12.2913C8.59818 12.1038 8.49287 11.8495 8.49287 11.5842V9.58411V9.58427C8.49287 9.31909 8.59818 9.06462 8.78568 8.87712C8.97318 8.68962 9.22763 8.58415 9.49283 8.58415Z" fill="#14A800"/>
</svg>
