<svg width="20" height="20" viewBox="0 0 20 20" fill="none" xmlns="http://www.w3.org/2000/svg">
<path d="M6.2896 18.3333C13.8368 18.3333 17.9648 11.9206 17.9648 6.3595C17.9648 6.17735 17.9648 5.99603 17.9528 5.81553C18.7559 5.2198 19.4491 4.48218 20 3.63721C19.2512 3.9777 18.4567 4.20089 17.6432 4.29932C18.4998 3.77345 19.141 2.94623 19.4472 1.97167C18.6417 2.46191 17.7605 2.80737 16.8416 2.99315C16.2229 2.31847 15.4047 1.87172 14.5135 1.72202C13.6223 1.57232 12.7078 1.72803 11.9116 2.16504C11.1154 2.60205 10.4819 3.29601 10.109 4.13952C9.73605 4.98304 9.64462 5.92908 9.8488 6.83126C8.21741 6.74733 6.62146 6.31252 5.16455 5.55504C3.70763 4.79756 2.4223 3.73435 1.392 2.43441C0.867274 3.36085 0.70656 4.45756 0.942583 5.50124C1.17861 6.54493 1.79362 7.45713 2.6624 8.05211C2.00936 8.03248 1.37054 7.85181 0.8 7.52537V7.5787C0.800259 8.5503 1.12821 9.49191 1.72823 10.2438C2.32824 10.9957 3.16338 11.5116 4.092 11.704C3.4879 11.873 2.85406 11.8977 2.2392 11.7762C2.50151 12.6123 3.01202 13.3435 3.69937 13.8674C4.38671 14.3914 5.21652 14.682 6.0728 14.6987C5.22203 15.3845 4.24776 15.8916 3.20573 16.1909C2.16369 16.4902 1.07435 16.5758 0 16.443C1.87653 17.6779 4.05994 18.333 6.2896 18.33" fill="#1DA1F2"/>
</svg>
