<svg width="141" height="28" viewBox="0 0 141 28" fill="none" xmlns="http://www.w3.org/2000/svg">
<g clip-path="url(#clip0_66_613)">
<path d="M9.39744 11.7653L14.8356 6.32936L20.2759 11.7697L23.4384 8.60501L14.8356 0L6.23276 8.6028L9.39744 11.7653Z" fill="#F3BA2F"/>
<path d="M0.833313 14.0005L3.99684 10.837L7.16036 14.0005L3.99684 17.164L0.833313 14.0005Z" fill="#F3BA2F"/>
<path d="M9.39743 16.2348L14.8356 21.6729L20.2759 16.2325L23.4406 19.3928L23.4383 19.395L14.8356 28L6.23276 19.3994L6.22833 19.395L9.39743 16.2348Z" fill="#F3BA2F"/>
<path d="M22.5054 14.0013L25.6689 10.8378L28.8324 14.0013L25.6689 17.1648L22.5054 14.0013Z" fill="#F3BA2F"/>
<path d="M18.0445 13.9989L14.8356 10.7878L12.4626 13.1607L12.1884 13.4328L11.6266 13.9945L11.6222 13.9989L11.6266 14.0055L14.8356 17.2122L18.0445 14.0011L18.0467 13.9989H18.0445Z" fill="#F3BA2F"/>
<path d="M33.7683 6.78491H40.6506C42.3579 6.78491 43.6494 7.22722 44.5252 8.11182C44.8551 8.43859 45.1152 8.82899 45.2897 9.25933C45.4642 9.68967 45.5494 10.151 45.5402 10.6153V10.6573C45.5462 11.0376 45.4932 11.4166 45.3832 11.7807C45.2852 12.0942 45.143 12.3921 44.9608 12.6653C44.791 12.923 44.5855 13.1553 44.3504 13.3553C44.1208 13.553 43.8693 13.7236 43.6007 13.864C44.3751 14.1337 45.0715 14.5893 45.6287 15.1909C46.1211 15.7511 46.3673 16.5252 46.3673 17.513V17.555C46.3813 18.1719 46.2471 18.7832 45.9759 19.3375C45.7131 19.8482 45.3279 20.2858 44.8547 20.6113C44.3197 20.97 43.7239 21.2285 43.0965 21.3743C42.3511 21.551 41.5869 21.6365 40.8209 21.6286H33.7683V6.78491ZM39.9606 12.787C40.556 12.8157 41.1486 12.6876 41.6789 12.4154C41.8858 12.2946 42.0546 12.1183 42.1664 11.9065C42.2782 11.6946 42.3284 11.4557 42.3114 11.2168V11.1748C42.3224 10.9546 42.2777 10.7353 42.1814 10.537C42.0852 10.3387 41.9405 10.1679 41.7608 10.0403C41.3936 9.7793 40.8636 9.64882 40.1707 9.64882H36.9507V12.787H39.9606ZM40.8297 18.7691C41.4229 18.8024 42.0134 18.6666 42.5326 18.3777C42.7348 18.2477 42.8985 18.0659 43.0067 17.8512C43.1148 17.6365 43.1634 17.3968 43.1474 17.1569V17.1149C43.1553 16.8869 43.1073 16.6604 43.0074 16.4553C42.9076 16.2502 42.759 16.0727 42.5746 15.9384C42.1942 15.6435 41.5794 15.4961 40.7302 15.4961H36.9507V18.7691H40.8297Z" fill="#F3BA2F"/>
<path d="M50.4675 6.78491H53.7339V21.633H50.4675V6.78491Z" fill="#F3BA2F"/>
<path d="M58.6766 6.78491H61.6887L68.6506 15.9229V6.78491H71.875V21.633H69.0951L61.9055 12.1943V21.633H58.6766V6.78491Z" fill="#F3BA2F"/>
<path d="M81.7649 6.67877H84.7725L91.135 21.633H87.7249L86.367 18.3025H80.0885L78.7307 21.633H75.4001L81.7649 6.67877ZM85.2016 15.4187L83.2245 10.602L81.2562 15.4187H85.2016Z" fill="#F3BA2F"/>
<path d="M94.6668 6.78491H97.6789L104.636 15.9229V6.78491H107.861V21.633H105.081L97.8912 12.1943V21.633H94.6668V6.78491Z" fill="#F3BA2F"/>
<path d="M119.617 21.894C118.576 21.9029 117.544 21.7013 116.583 21.3013C115.678 20.9277 114.857 20.3768 114.169 19.6809C113.48 18.9851 112.938 18.1585 112.573 17.2498C112.189 16.2993 111.995 15.2829 112.001 14.2577V14.2156C111.984 12.1948 112.761 10.2482 114.166 8.79521C114.857 8.08548 115.684 7.5228 116.598 7.14099C117.593 6.72913 118.66 6.52372 119.737 6.53725C120.373 6.5325 121.009 6.58953 121.634 6.70754C122.169 6.80875 122.692 6.96512 123.195 7.17417C123.652 7.36627 124.086 7.60804 124.489 7.89512C124.883 8.17511 125.253 8.48726 125.595 8.82838L123.518 11.2257C122.988 10.7361 122.392 10.3217 121.749 9.99385C121.117 9.69168 120.424 9.54027 119.723 9.55154C119.14 9.54533 118.563 9.66319 118.029 9.8973C117.495 10.1314 117.017 10.4764 116.627 10.9094C116.24 11.3413 115.937 11.8415 115.734 12.3845C115.521 12.9583 115.414 13.566 115.417 14.178V14.2201C115.415 14.8312 115.523 15.4379 115.734 16.0114C115.935 16.5563 116.235 17.0594 116.618 17.4953C117.005 17.9337 117.482 18.2837 118.016 18.5218C118.551 18.7599 119.13 18.8805 119.714 18.8753C120.459 18.8988 121.198 18.7385 121.866 18.4087C122.502 18.062 123.09 17.6338 123.616 17.1348L125.694 19.2358C125.327 19.6342 124.93 20.0038 124.507 20.3415C124.091 20.6705 123.639 20.9517 123.16 21.1797C122.65 21.4199 122.112 21.5974 121.559 21.7082C120.92 21.8364 120.269 21.8986 119.617 21.894Z" fill="#F3BA2F"/>
<path d="M129.549 6.78491H140.724V9.69084H132.762V12.7029H139.773V15.6089H132.773V18.7271H140.834V21.633H129.556L129.549 6.78491Z" fill="#F3BA2F"/>
</g>
<defs>
<clipPath id="clip0_66_613">
<rect width="141" height="28" fill="white"/>
</clipPath>
</defs>
</svg>
