<svg width="141" height="28" viewBox="0 0 141 28" fill="none" xmlns="http://www.w3.org/2000/svg">
<g clip-path="url(#clip0_66_628)">
<path d="M8.59186 13.8947C8.56065 14.4356 8.74649 14.9668 9.10855 15.3715C9.4706 15.7762 9.97926 16.0213 10.5227 16.0529H10.6348C11.035 16.0524 11.4264 15.9354 11.7606 15.7161C12.0948 15.4968 12.3571 15.1849 12.5153 14.8189C12.6735 14.453 12.7205 14.0489 12.6506 13.6566C12.5807 13.2643 12.397 12.901 12.122 12.6115C11.8471 12.3219 11.4929 12.1189 11.1034 12.0273C10.7138 11.9358 10.3059 11.9598 9.92984 12.0964C9.55383 12.233 9.22622 12.4762 8.98746 12.7959C8.74869 13.1157 8.60922 13.498 8.58626 13.8958L8.59186 13.8947Z" fill="#0033AD"/>
<path d="M0.948915 13.3774C0.818246 13.3701 0.688341 13.4016 0.575618 13.4677C0.462895 13.5339 0.372413 13.6319 0.315606 13.7492C0.2588 13.8666 0.238219 13.9981 0.256465 14.1271C0.27471 14.256 0.330963 14.3768 0.418115 14.4739C0.505266 14.5711 0.619404 14.6404 0.746104 14.673C0.872805 14.7057 1.00638 14.7002 1.12995 14.6573C1.25352 14.6144 1.36154 14.536 1.44036 14.432C1.51917 14.328 1.56525 14.2031 1.57276 14.073C1.5779 13.9865 1.56583 13.8999 1.53722 13.818C1.50862 13.7362 1.46405 13.6608 1.40608 13.5962C1.34812 13.5315 1.27789 13.4789 1.19943 13.4414C1.12097 13.4038 1.03584 13.3821 0.948915 13.3774Z" fill="#0033AD"/>
<path d="M8.46193 2.05455C8.57831 1.99506 8.67441 1.90264 8.73813 1.78891C8.80185 1.67518 8.83034 1.54523 8.82002 1.41542C8.8097 1.28561 8.76103 1.16174 8.68014 1.0594C8.59924 0.957063 8.48974 0.880832 8.36541 0.840304C8.24108 0.799776 8.10748 0.796763 7.98144 0.831644C7.85539 0.866525 7.74253 0.937742 7.65706 1.03633C7.57159 1.13491 7.51733 1.25646 7.50111 1.38568C7.4849 1.51489 7.50745 1.64599 7.56593 1.76247C7.60524 1.84044 7.65966 1.90989 7.72607 1.96683C7.79247 2.02376 7.86954 2.06706 7.95283 2.09421C8.03612 2.12136 8.12399 2.13183 8.21136 2.12502C8.29874 2.11822 8.3839 2.09426 8.46193 2.05455Z" fill="#0033AD"/>
<path d="M10.5418 5.66421C10.7225 5.57347 10.8722 5.43142 10.9718 5.25603C11.0715 5.08064 11.1166 4.87978 11.1016 4.67884C11.0866 4.47791 11.012 4.28592 10.8874 4.12715C10.7628 3.96838 10.5936 3.84996 10.4014 3.78685C10.2091 3.72374 10.0024 3.71878 9.80731 3.7726C9.61223 3.82642 9.43756 3.9366 9.30538 4.08921C9.17321 4.24182 9.08946 4.43001 9.06472 4.62999C9.03999 4.82997 9.07538 5.03276 9.16642 5.21273C9.2269 5.33229 9.31047 5.43882 9.41234 5.52623C9.51421 5.61364 9.63238 5.68021 9.76011 5.72213C9.88784 5.76406 10.0226 5.78053 10.1567 5.77059C10.2909 5.76065 10.4217 5.7245 10.5418 5.66421Z" fill="#0033AD"/>
<path d="M3.54286 8.14683C3.68227 8.23808 3.84574 8.28612 4.01258 8.28487C4.17943 8.28362 4.34216 8.23314 4.48017 8.13982C4.61819 8.04649 4.72529 7.91452 4.78793 7.76059C4.85056 7.60666 4.86592 7.4377 4.83205 7.27508C4.79818 7.11246 4.71662 6.9635 4.59767 6.84704C4.47872 6.73057 4.32773 6.65185 4.16382 6.62082C3.9999 6.58979 3.83043 6.60785 3.67683 6.67272C3.52323 6.73758 3.39241 6.84634 3.30093 6.98523C3.17841 7.17125 3.13507 7.39806 3.18043 7.61585C3.22579 7.83365 3.35614 8.02462 3.54286 8.14683Z" fill="#0033AD"/>
<path d="M4.78943 13.0062C4.58733 12.9948 4.38638 13.0434 4.21199 13.1457C4.03761 13.248 3.8976 13.3994 3.80968 13.5809C3.72175 13.7624 3.68986 13.9657 3.71802 14.1652C3.74618 14.3647 3.83314 14.5515 3.96791 14.7018C4.10267 14.8521 4.27918 14.9593 4.47514 15.0098C4.6711 15.0603 4.8777 15.0519 5.06883 14.9856C5.25997 14.9192 5.42705 14.798 5.54896 14.6371C5.67087 14.4763 5.74214 14.2831 5.75375 14.0819C5.76904 13.812 5.67607 13.5471 5.49525 13.3454C5.31444 13.1437 5.06057 13.0217 4.78943 13.0062Z" fill="#0033AD"/>
<path d="M3.65486 19.8565C3.50602 19.9314 3.38282 20.0485 3.30084 20.1931C3.21885 20.3376 3.18177 20.5031 3.19427 20.6686C3.20677 20.8341 3.2683 20.9923 3.37107 21.123C3.47384 21.2537 3.61325 21.3512 3.77166 21.4031C3.93007 21.455 4.10039 21.4589 4.26107 21.4145C4.42175 21.37 4.56559 21.2792 4.6744 21.1534C4.7832 21.0276 4.8521 20.8725 4.87238 20.7078C4.89265 20.543 4.8634 20.3759 4.7883 20.2277C4.73841 20.1292 4.6695 20.0415 4.58552 19.9696C4.50154 19.8976 4.40414 19.8428 4.29887 19.8083C4.19361 19.7739 4.08255 19.7604 3.97205 19.7686C3.86154 19.7769 3.75376 19.8068 3.65486 19.8565Z" fill="#0033AD"/>
<path d="M7.63425 10.9003C7.83359 11.0304 8.0672 11.0987 8.30552 11.0965C8.54385 11.0944 8.7762 11.022 8.97319 10.8885C9.17018 10.755 9.32297 10.5663 9.41223 10.3463C9.5015 10.1264 9.52323 9.88501 9.47468 9.65276C9.42614 9.42051 9.30949 9.2078 9.13949 9.04153C8.9695 8.87526 8.75378 8.76289 8.51963 8.71864C8.28547 8.67439 8.04339 8.70023 7.824 8.79291C7.6046 8.88559 7.41774 9.04094 7.28705 9.23932C7.2001 9.37102 7.1401 9.5185 7.1105 9.67331C7.08089 9.82812 7.08225 9.98723 7.1145 10.1415C7.14675 10.2958 7.20926 10.4422 7.29844 10.5725C7.38763 10.7027 7.50174 10.8141 7.63425 10.9003Z" fill="#0033AD"/>
<path d="M20.259 5.58395C20.4287 5.69414 20.6275 5.75178 20.8301 5.74957C21.0327 5.74737 21.2302 5.68541 21.3974 5.57154C21.5647 5.45767 21.6943 5.297 21.7698 5.10984C21.8454 4.92268 21.8635 4.71742 21.8218 4.52003C21.7802 4.32263 21.6807 4.14195 21.5359 4.00083C21.3911 3.85971 21.2075 3.76447 21.0084 3.72717C20.8092 3.68987 20.6034 3.71218 20.417 3.79127C20.2306 3.87036 20.0719 4.00269 19.9611 4.17152C19.8872 4.28366 19.8364 4.40921 19.8114 4.54096C19.7864 4.67271 19.7878 4.80807 19.8155 4.93928C19.8432 5.0705 19.8966 5.19498 19.9727 5.30561C20.0488 5.41623 20.1461 5.51082 20.259 5.58395Z" fill="#0033AD"/>
<path d="M22.3601 1.98543C22.4698 2.05701 22.5984 2.09458 22.7296 2.09341C22.8607 2.09224 22.9886 2.05236 23.097 1.97884C23.2054 1.90531 23.2895 1.80143 23.3385 1.68034C23.3876 1.55926 23.3995 1.42641 23.3727 1.2986C23.3459 1.17079 23.2816 1.05378 23.1879 0.962348C23.0943 0.870921 22.9755 0.809196 22.8466 0.784982C22.7177 0.760769 22.5845 0.775155 22.4638 0.826321C22.3431 0.877486 22.2404 0.963132 22.1686 1.07242C22.0725 1.21881 22.0387 1.39718 22.0746 1.56837C22.1105 1.73956 22.2132 1.88956 22.3601 1.98543Z" fill="#0033AD"/>
<path d="M20.4203 11.9527C20.1515 11.9373 19.8823 11.9748 19.628 12.063C19.3738 12.1512 19.1395 12.2883 18.9385 12.4666C18.5326 12.8267 18.287 13.3326 18.2559 13.8729C18.2247 14.4132 18.4104 14.9438 18.7722 15.3478C19.134 15.7518 19.6422 15.9962 20.1851 16.0272C20.2243 16.0272 20.2646 16.0272 20.3038 16.0272C20.6992 16.027 21.0862 15.913 21.418 15.6988C21.7498 15.4847 22.0122 15.1795 22.1737 14.8203C22.3352 14.461 22.3888 14.0628 22.3281 13.6739C22.2674 13.285 22.0949 12.9218 21.8315 12.6283C21.6531 12.428 21.4364 12.2652 21.1941 12.1492C20.9518 12.0332 20.6888 11.9664 20.4203 11.9527Z" fill="#0033AD"/>
<path d="M11.2149 10.7588C11.3851 11.0971 11.6467 11.3815 11.9705 11.5798C12.2942 11.7781 12.6671 11.8826 13.0472 11.8814C13.3977 11.8814 13.7424 11.7921 14.0483 11.6219C14.3542 11.4517 14.6112 11.2063 14.7947 10.9092C14.9783 10.612 15.0822 10.273 15.0967 9.92443C15.1112 9.57589 15.0356 9.22949 14.8773 8.91826C14.706 8.58146 14.4438 8.29878 14.1202 8.10189C13.7966 7.905 13.4243 7.80168 13.045 7.80348C12.6956 7.80407 12.3522 7.89351 12.0473 8.06329C11.7423 8.23308 11.4861 8.47759 11.3027 8.77363C11.1194 9.06967 11.0151 9.40742 10.9998 9.75485C10.9844 10.1023 11.0584 10.4478 11.2149 10.7588Z" fill="#0033AD"/>
<path d="M27.287 8.1446C27.4359 8.06983 27.5592 7.95281 27.6412 7.80833C27.7233 7.66385 27.7605 7.4984 27.7481 7.33289C27.7357 7.16738 27.6744 7.00923 27.5717 6.87844C27.4691 6.74764 27.3298 6.65007 27.1714 6.59805C27.0131 6.54603 26.8428 6.54191 26.6821 6.58619C26.5214 6.63047 26.3775 6.72118 26.2685 6.84684C26.1596 6.97251 26.0905 7.12749 26.0701 7.29221C26.0496 7.45693 26.0787 7.62398 26.1536 7.77227C26.2544 7.97115 26.4304 8.12208 26.6429 8.19189C26.8554 8.26171 27.0871 8.2447 27.287 8.1446Z" fill="#0033AD"/>
<path d="M22.0891 8.79452C21.8762 8.90124 21.6999 9.06839 21.5825 9.27483C21.465 9.48128 21.4117 9.71775 21.4293 9.95434C21.4469 10.1909 21.5346 10.417 21.6813 10.604C21.828 10.791 22.0271 10.9305 22.2534 11.0049C22.4797 11.0792 22.7231 11.0851 22.9529 11.0218C23.1826 10.9585 23.3882 10.8288 23.5439 10.6491C23.6995 10.4694 23.7981 10.2479 23.8273 10.0124C23.8564 9.77693 23.8147 9.53816 23.7075 9.32627C23.6364 9.18549 23.5381 9.06003 23.4183 8.95708C23.2985 8.85414 23.1594 8.77573 23.0091 8.72634C22.8588 8.67695 22.7001 8.65755 22.5423 8.66925C22.3844 8.68095 22.2304 8.72352 22.0891 8.79452Z" fill="#0033AD"/>
<path d="M15.3937 1.67775C15.5602 1.68719 15.7259 1.64725 15.8696 1.56298C16.0134 1.47872 16.1288 1.3539 16.2013 1.20434C16.2737 1.05477 16.3 0.887174 16.2768 0.722741C16.2535 0.558308 16.1818 0.404429 16.0707 0.28057C15.9596 0.156711 15.814 0.0684362 15.6525 0.026913C15.491 -0.0146103 15.3207 -0.00751673 15.1632 0.0472963C15.0057 0.102109 14.8681 0.202179 14.7678 0.334847C14.6675 0.467515 14.6089 0.62682 14.5996 0.792612C14.587 1.01478 14.6636 1.23281 14.8125 1.39878C14.9615 1.56476 15.1705 1.6651 15.3937 1.67775Z" fill="#0033AD"/>
<path d="M15.3847 6.9607C15.6226 6.97398 15.8591 6.91676 16.0644 6.79628C16.2696 6.67579 16.4344 6.49745 16.5378 6.28379C16.6413 6.07013 16.6787 5.83075 16.6455 5.59589C16.6123 5.36104 16.5099 5.14125 16.3512 4.96431C16.1926 4.78738 15.9847 4.66123 15.7541 4.60182C15.5234 4.54241 15.2802 4.55239 15.0552 4.63052C14.8302 4.70865 14.6335 4.8514 14.49 5.04075C14.3466 5.2301 14.2627 5.45753 14.249 5.69431C14.231 6.01213 14.3405 6.32406 14.5534 6.56154C14.7664 6.79901 15.0654 6.94259 15.3847 6.9607Z" fill="#0033AD"/>
<path d="M8.85506 19.2055C9.06791 19.0987 9.24415 18.9314 9.3615 18.7249C9.47885 18.5184 9.53203 18.2819 9.51432 18.0453C9.49661 17.8087 9.40879 17.5826 9.26199 17.3957C9.11518 17.2087 8.91598 17.0693 8.68958 16.9951C8.46317 16.9209 8.21973 16.9151 7.99005 16.9786C7.76037 17.0421 7.55476 17.172 7.39924 17.3518C7.24371 17.5316 7.14525 17.7533 7.11631 17.9888C7.08737 18.2243 7.12924 18.463 7.23664 18.6748C7.38061 18.9588 7.63198 19.1742 7.93547 19.2737C8.23896 19.3732 8.56973 19.3487 8.85506 19.2055Z" fill="#0033AD"/>
<path d="M16.1631 8.71091C15.9132 9.09057 15.7976 9.54235 15.8346 9.99476C15.8717 10.4472 16.0592 10.8744 16.3676 11.2087C16.6761 11.5431 17.0877 11.7655 17.5374 11.8408C17.9871 11.9161 18.4492 11.84 18.8506 11.6245C19.2519 11.409 19.5696 11.0664 19.7534 10.651C19.9371 10.2355 19.9764 9.77097 19.865 9.33081C19.7536 8.89065 19.498 8.50003 19.1384 8.22077C18.7789 7.94151 18.3361 7.78957 17.8801 7.78899C17.5395 7.78875 17.2042 7.8729 16.9045 8.03385C16.6047 8.1948 16.3499 8.42748 16.1631 8.71091Z" fill="#0033AD"/>
<path d="M19.727 17.2423C19.5628 16.9182 19.3146 16.6436 19.0082 16.4468C18.7018 16.25 18.3481 16.1381 17.9838 16.1227C17.6194 16.1073 17.2575 16.189 16.9354 16.3593C16.6134 16.5295 16.3428 16.7823 16.1516 17.0914C15.9604 17.4005 15.8555 17.7548 15.8477 18.1177C15.84 18.4806 15.9297 18.839 16.1076 19.1559C16.2854 19.4728 16.545 19.7367 16.8596 19.9204C17.1741 20.1041 17.5322 20.201 17.8969 20.201C18.2177 20.1988 18.5336 20.1225 18.8198 19.978C19.3038 19.7342 19.671 19.3094 19.841 18.7967C20.011 18.2839 19.97 17.725 19.727 17.2423Z" fill="#0033AD"/>
<path d="M23.3088 17.0997C23.1095 16.9695 22.8759 16.901 22.6376 16.9029C22.3993 16.9049 22.1668 16.9771 21.9697 17.1105C21.7727 17.2439 21.6197 17.4325 21.5303 17.6524C21.4409 17.8723 21.419 18.1137 21.4674 18.346C21.5158 18.5783 21.6323 18.7911 21.8022 18.9574C21.9721 19.1238 22.1878 19.2363 22.4219 19.2807C22.6561 19.3251 22.8982 19.2994 23.1176 19.2068C23.3371 19.1143 23.524 18.959 23.6549 18.7607C23.8297 18.4946 23.8914 18.1703 23.8265 17.859C23.7617 17.5477 23.5755 17.2746 23.3088 17.0997Z" fill="#0033AD"/>
<path d="M27.2333 14.0351C27.2447 13.834 27.1959 13.634 27.0931 13.4604C26.9904 13.2868 26.8382 13.1475 26.6559 13.0599C26.4735 12.9724 26.2692 12.9407 26.0688 12.9687C25.8683 12.9967 25.6807 13.0833 25.5297 13.2174C25.3787 13.3516 25.271 13.5273 25.2202 13.7223C25.1695 13.9173 25.178 14.123 25.2446 14.3132C25.3113 14.5035 25.4331 14.6698 25.5947 14.7911C25.7563 14.9124 25.9504 14.9834 26.1525 14.9949C26.4236 15.0102 26.6898 14.9176 26.8924 14.7377C27.0951 14.5577 27.2177 14.305 27.2333 14.0351Z" fill="#0033AD"/>
<path d="M30.0691 13.3094C29.9382 13.3019 29.808 13.3332 29.695 13.3994C29.5819 13.4655 29.4911 13.5636 29.4341 13.6811C29.377 13.7986 29.3562 13.9303 29.3744 14.0596C29.3925 14.1889 29.4488 14.3099 29.536 14.4073C29.6233 14.5048 29.7376 14.5743 29.8645 14.6071C29.9915 14.6398 30.1253 14.6344 30.2492 14.5915C30.373 14.5485 30.4813 14.47 30.5603 14.3658C30.6393 14.2616 30.6855 14.1364 30.693 14.0061C30.7028 13.8315 30.6426 13.6601 30.5257 13.5295C30.4088 13.3989 30.2446 13.3197 30.0691 13.3094Z" fill="#0033AD"/>
<path d="M27.399 19.8532C27.2595 19.7622 27.0961 19.7145 26.9293 19.716C26.7625 19.7175 26.6 19.7682 26.4621 19.8616C26.3243 19.9551 26.2174 20.0871 26.1549 20.241C26.0925 20.395 26.0773 20.5639 26.1113 20.7264C26.1452 20.8889 26.2269 21.0377 26.3458 21.1541C26.4647 21.2704 26.6157 21.3491 26.7795 21.3801C26.9434 21.411 27.1128 21.393 27.2663 21.3282C27.4198 21.2633 27.5506 21.1547 27.6421 21.0159C27.7029 20.9237 27.7448 20.8204 27.7655 20.7121C27.7862 20.6037 27.7852 20.4924 27.7626 20.3844C27.7401 20.2764 27.6963 20.1739 27.6339 20.0828C27.5716 19.9916 27.4917 19.9136 27.399 19.8532Z" fill="#0033AD"/>
<path d="M8.5829 26.0146C8.47327 25.943 8.34477 25.9053 8.21365 25.9064C8.08253 25.9075 7.95468 25.9472 7.84626 26.0206C7.73783 26.094 7.65371 26.1978 7.60452 26.3188C7.55533 26.4397 7.54328 26.5725 7.5699 26.7003C7.59651 26.8281 7.6606 26.9452 7.75406 27.0367C7.84752 27.1283 7.96615 27.1902 8.09495 27.2146C8.22375 27.2391 8.35694 27.2249 8.47769 27.174C8.59843 27.1232 8.7013 27.0378 8.7733 26.9287C8.82112 26.8562 8.85413 26.7751 8.87045 26.6899C8.88676 26.6048 8.88606 26.5173 8.86838 26.4324C8.85069 26.3475 8.81638 26.2669 8.7674 26.1952C8.71841 26.1235 8.65572 26.0621 8.5829 26.0146Z" fill="#0033AD"/>
<path d="M22.48 25.9455C22.3629 26.0042 22.2659 26.0962 22.2013 26.2098C22.1367 26.3234 22.1074 26.4536 22.1172 26.5837C22.1269 26.7139 22.1752 26.8383 22.256 26.9412C22.3367 27.044 22.4463 27.1207 22.5709 27.1616C22.6954 27.2024 22.8293 27.2056 22.9557 27.1707C23.0821 27.1358 23.1952 27.0644 23.2808 26.9654C23.3664 26.8665 23.4206 26.7446 23.4365 26.615C23.4525 26.4854 23.4294 26.3541 23.3704 26.2375C23.3313 26.1601 23.2772 26.091 23.2113 26.0344C23.1453 25.9778 23.0688 25.9347 22.9861 25.9076C22.9034 25.8804 22.8161 25.8698 22.7292 25.8763C22.6424 25.8828 22.5577 25.9063 22.48 25.9455Z" fill="#0033AD"/>
<path d="M14.7788 19.2857C15.0288 18.906 15.1444 18.4542 15.1073 18.0018C15.0702 17.5493 14.8826 17.1221 14.5741 16.7877C14.2656 16.4534 13.8539 16.231 13.4041 16.1558C12.9543 16.0805 12.4922 16.1568 12.0908 16.3724C11.6895 16.5881 11.3719 16.9308 11.1883 17.3463C11.0046 17.7619 10.9655 18.2265 11.0771 18.6667C11.1887 19.1068 11.4445 19.4974 11.8042 19.7765C12.1639 20.0556 12.6068 20.2073 13.0629 20.2077C13.4035 20.2088 13.739 20.1251 14.0387 19.964C14.3384 19.803 14.5929 19.5698 14.7788 19.2857Z" fill="#0033AD"/>
<path d="M10.6829 22.4172C10.5135 22.3069 10.3151 22.249 10.1127 22.251C9.91024 22.2529 9.71295 22.3145 9.54571 22.428C9.37848 22.5416 9.24881 22.7019 9.1731 22.8887C9.09739 23.0756 9.07903 23.2806 9.12036 23.4778C9.16168 23.6751 9.26082 23.8557 9.40526 23.9968C9.54969 24.138 9.73293 24.2334 9.93181 24.2709C10.1307 24.3084 10.3363 24.2864 10.5226 24.2077C10.7089 24.1289 10.8676 23.997 10.9786 23.8285C11.1272 23.6023 11.1796 23.3265 11.1242 23.0619C11.0687 22.7973 10.91 22.5654 10.6829 22.4172Z" fill="#0033AD"/>
<path d="M15.462 26.3223C15.2955 26.3128 15.1299 26.3528 14.9862 26.437C14.8425 26.5212 14.7271 26.646 14.6546 26.7955C14.5821 26.945 14.5557 27.1125 14.5789 27.2769C14.6021 27.4413 14.6737 27.5952 14.7847 27.719C14.8957 27.8429 15.0411 27.9313 15.2025 27.9729C15.364 28.0146 15.5342 28.0076 15.6917 27.953C15.8492 27.8983 15.9869 27.7984 16.0873 27.6659C16.1878 27.5334 16.2465 27.3742 16.2561 27.2085C16.2624 27.0984 16.2469 26.9881 16.2105 26.884C16.174 26.7799 16.1173 26.6839 16.0435 26.6016C15.9698 26.5193 15.8805 26.4523 15.7807 26.4043C15.6809 26.3564 15.5726 26.3285 15.462 26.3223Z" fill="#0033AD"/>
<path d="M15.4709 21.0404C15.2328 21.026 14.9958 21.0823 14.7898 21.2021C14.5838 21.3219 14.4182 21.4998 14.3139 21.7134C14.2097 21.9269 14.1714 22.1665 14.204 22.4017C14.2366 22.6369 14.3387 22.8572 14.4972 23.0347C14.6557 23.2121 14.8635 23.3388 15.0944 23.3986C15.3252 23.4584 15.5688 23.4486 15.794 23.3705C16.0193 23.2925 16.2163 23.1496 16.36 22.96C16.5036 22.7705 16.5875 22.5427 16.601 22.3057C16.6194 21.9888 16.5107 21.6776 16.2989 21.4404C16.087 21.2032 15.7893 21.0594 15.4709 21.0404Z" fill="#0033AD"/>
<path d="M20.4001 22.3358C20.2193 22.4271 20.0697 22.5698 19.9704 22.7458C19.871 22.9217 19.8264 23.1231 19.8421 23.3243C19.8578 23.5256 19.9331 23.7177 20.0585 23.8763C20.1839 24.0349 20.3538 24.1529 20.5467 24.2154C20.7395 24.2778 20.9466 24.282 21.1418 24.2272C21.337 24.1725 21.5115 24.0613 21.6432 23.9078C21.7748 23.7543 21.8578 23.5654 21.8816 23.3649C21.9053 23.1645 21.8688 22.9615 21.7766 22.7817C21.7157 22.6624 21.6318 22.5562 21.5297 22.4691C21.4275 22.3821 21.3091 22.316 21.1813 22.2746C21.0534 22.2332 20.9186 22.2173 20.7846 22.2278C20.6505 22.2383 20.5199 22.275 20.4001 22.3358Z" fill="#0033AD"/>
<path d="M43.0176 9.18024C45.0022 9.18024 46.3922 10.266 46.3922 12.2816H48.9917C48.9917 8.74547 46.372 7.04208 42.9784 7.04208C38.8097 7.04208 36.3882 9.29506 36.3882 14.0563C36.3882 18.9357 38.8097 21.0694 42.9784 21.0694C46.4123 21.0694 48.9917 19.4106 48.9917 15.8734H46.4907C46.4907 17.8488 45.1209 18.9357 43.0187 18.9357C40.259 18.9357 38.9867 17.414 38.9867 14.2536V13.859C38.9889 10.7599 40.278 9.18024 43.0176 9.18024Z" fill="#0033AD"/>
<path d="M55.8652 7.28288L50.5653 20.8364H53.1861L54.277 17.8923H60.5054L61.6254 20.8364H64.3649L59.0617 7.28288H55.8652ZM55.0711 15.7552L56.461 12.0397C56.7388 11.3095 57.235 9.72871 57.3346 9.45224H57.4332C57.5329 9.72871 58.029 11.3284 58.3068 12.0397L59.6956 15.7541L55.0711 15.7552Z" fill="#0033AD"/>
<path d="M78.5375 11.392C78.5375 8.88371 77.0882 7.28288 74.0911 7.28288H66.9051V20.8364H69.4464V15.5969H73.6733L76.2493 20.8364H79.0281L76.1161 15.2056C77.7233 14.5736 78.5375 13.2302 78.5375 11.392ZM73.8917 13.4666H69.4464V9.43664H73.8917C75.2615 9.43664 75.9761 10.1679 75.9761 11.392C75.9761 12.6773 75.2021 13.4666 73.8917 13.4666Z" fill="#0033AD"/>
<path d="M87.4505 7.28288H82.0095V20.8364H87.4483C91.5565 20.8364 94.0564 18.7027 94.0564 14.0596C94.0564 9.41657 91.5587 7.28288 87.4505 7.28288ZM91.4602 14.257C91.44 17.2212 90.031 18.6826 87.4505 18.6826H84.5531V9.43664H87.4505C90.0266 9.43664 91.4602 10.8992 91.4602 13.8623V14.257Z" fill="#0033AD"/>
<path d="M100.714 7.28288L95.4116 20.8364H98.0313L99.1233 17.8923H105.356L106.467 20.8364H109.207L103.907 7.28288H100.714ZM99.9196 15.7552L101.307 12.0397C101.585 11.3095 102.081 9.72871 102.181 9.45224H102.282C102.38 9.72871 102.878 11.3284 103.155 12.0397L104.544 15.7541L99.9196 15.7552Z" fill="#0033AD"/>
<path d="M120.822 15.3439C120.822 15.6003 120.862 16.2914 120.862 16.4107L120.763 16.4497C120.704 16.3717 120.306 15.6794 120.091 15.3639L114.176 7.28288H111.751V20.8364H114.193V12.7163C114.193 12.3819 114.153 11.7286 114.153 11.6294L114.252 11.5703C114.312 11.6495 114.61 12.2225 114.924 12.6773L120.879 20.8364H123.261V7.28288H120.82V15.3439H120.822Z" fill="#0033AD"/>
<path d="M133.382 7.04654C129.115 7.04654 126.534 9.2984 126.534 14.0596C126.534 18.8209 129.11 21.0727 133.382 21.0727C137.654 21.0727 140.25 18.8209 140.25 14.0596C140.25 9.2984 137.649 7.04654 133.382 7.04654ZM137.649 14.277C137.649 17.3784 136.161 18.939 133.382 18.939C130.624 18.939 129.135 17.3784 129.135 14.277V13.8623C129.135 10.7599 130.644 9.18024 133.382 9.18024C136.142 9.18024 137.649 10.7599 137.649 13.8623V14.277Z" fill="#0033AD"/>
</g>
<defs>
<clipPath id="clip0_66_628">
<rect width="140" height="28" fill="white" transform="translate(0.25)"/>
</clipPath>
</defs>
</svg>
