<svg width="114" height="28" viewBox="0 0 114 28" fill="none" xmlns="http://www.w3.org/2000/svg">
<g clip-path="url(#clip0_66_633)">
<path d="M32.5179 16.1109C32.5163 16.2082 32.4762 16.3009 32.4064 16.3688C32.3366 16.4367 32.2427 16.4741 32.1454 16.473H25.2851C25.461 18.17 26.7337 19.7221 28.5342 19.7221C29.7655 19.7221 30.6761 19.2565 31.359 18.2735C31.3908 18.2218 31.4348 18.1788 31.4871 18.1481C31.5394 18.1174 31.5985 18.1001 31.6591 18.0976C31.7042 18.0963 31.7492 18.1042 31.7912 18.1209C31.8332 18.1376 31.8714 18.1627 31.9034 18.1947C31.9353 18.2267 31.9604 18.2648 31.9771 18.3068C31.9939 18.3489 32.0018 18.3938 32.0005 18.439C32.0008 18.5014 31.9828 18.5626 31.9488 18.6149C31.2555 19.8152 29.8793 20.405 28.5342 20.405C26.2267 20.405 24.5711 18.3356 24.5711 16.1316C24.5711 13.9276 26.2163 11.8581 28.5342 11.8581C30.852 11.8581 32.5075 13.9069 32.5179 16.1109ZM31.7832 15.7901C31.6384 14.0931 30.3346 12.541 28.5342 12.541C26.7337 12.541 25.461 14.0931 25.2851 15.7901H31.7832Z" fill="#3B3B3B"/>
<path d="M40.8579 12.0236C40.9476 12.0262 41.033 12.0631 41.0964 12.1265C41.1599 12.19 41.1967 12.2754 41.1993 12.3651C41.2006 12.4103 41.1927 12.4553 41.176 12.4973C41.1593 12.5393 41.1341 12.5775 41.1022 12.6094C41.0702 12.6414 41.0321 12.6665 40.99 12.6832C40.948 12.6999 40.9031 12.7079 40.8579 12.7066H39.016V19.9394C39.0152 20.0297 38.979 20.1161 38.9151 20.1799C38.8513 20.2438 38.7649 20.28 38.6746 20.2809C38.5848 20.2782 38.4995 20.2414 38.436 20.178C38.3725 20.1145 38.3357 20.0291 38.3331 19.9394V12.7066H36.5637C36.5185 12.7079 36.4735 12.6999 36.4315 12.6832C36.3895 12.6665 36.3514 12.6414 36.3194 12.6094C36.2874 12.5775 36.2623 12.5393 36.2456 12.4973C36.2289 12.4553 36.221 12.4103 36.2222 12.3651C36.2231 12.2748 36.2593 12.1884 36.3231 12.1246C36.387 12.0607 36.4734 12.0245 36.5637 12.0236H38.3331V9.38506C38.3333 9.29763 38.3646 9.21313 38.4215 9.14674C38.4784 9.08036 38.5572 9.03645 38.6435 9.0229C38.6918 9.01649 38.7409 9.02058 38.7875 9.03489C38.834 9.04919 38.8769 9.07338 38.9133 9.1058C38.9496 9.13822 38.9786 9.17811 38.9981 9.22273C39.0176 9.26736 39.0273 9.31567 39.0264 9.36437V12.0236H40.8579Z" fill="#3B3B3B"/>
<path d="M52.0848 15.5211V19.898C52.0822 19.9878 52.0454 20.0731 51.9819 20.1366C51.9184 20.2001 51.833 20.2369 51.7433 20.2395C51.6981 20.2408 51.6531 20.2328 51.6111 20.2161C51.5691 20.1994 51.531 20.1743 51.499 20.1423C51.467 20.1104 51.4419 20.0722 51.4252 20.0302C51.4085 19.9882 51.4006 19.9432 51.4018 19.898V15.5211C51.4018 14.0414 50.5637 12.5721 48.9185 12.5721C46.8076 12.5721 45.897 14.4139 46.0212 16.3075C46.0212 16.3592 46.0419 16.5765 46.0419 16.6076V19.8877C46.0417 19.9751 46.0104 20.0596 45.9535 20.126C45.8966 20.1924 45.8179 20.2363 45.7315 20.2498C45.6832 20.2562 45.6341 20.2522 45.5875 20.2379C45.541 20.2235 45.4981 20.1994 45.4617 20.1669C45.4254 20.1345 45.3964 20.0946 45.3769 20.05C45.3574 20.0054 45.3478 19.9571 45.3486 19.9084V5.51517C45.3494 5.42486 45.3857 5.33848 45.4495 5.27461C45.5134 5.21075 45.5998 5.17452 45.6901 5.17371C45.7798 5.17631 45.8652 5.21312 45.9287 5.2766C45.9921 5.34008 46.0289 5.42543 46.0316 5.51517V13.6482C46.6214 12.5928 47.6768 11.8788 48.9081 11.8788C50.9362 11.8788 52.0848 13.6482 52.0848 15.5211Z" fill="#3B3B3B"/>
<path d="M64.4085 16.1109C64.4069 16.2082 64.3668 16.3009 64.297 16.3688C64.2272 16.4367 64.1334 16.4741 64.036 16.473H57.1757C57.3516 18.17 58.6243 19.7221 60.4248 19.7221C61.6561 19.7221 62.5667 19.2565 63.2496 18.2735C63.2814 18.2218 63.3254 18.1788 63.3777 18.1481C63.43 18.1174 63.4891 18.1001 63.5497 18.0976C63.5949 18.0963 63.6399 18.1042 63.6819 18.1209C63.7239 18.1376 63.762 18.1627 63.794 18.1947C63.826 18.2267 63.8511 18.2648 63.8678 18.3068C63.8845 18.3489 63.8924 18.3938 63.8912 18.439C63.8914 18.5014 63.8734 18.5626 63.8394 18.6149C63.1461 19.8152 61.7699 20.405 60.4248 20.405C58.1173 20.405 56.4617 18.3356 56.4617 16.1316C56.4617 13.9276 58.107 11.8581 60.4248 11.8581C62.7219 11.8581 64.3982 13.9069 64.4085 16.1109ZM63.6635 15.7901C63.5186 14.0931 62.2149 12.541 60.4144 12.541C58.614 12.541 57.3413 14.0931 57.1654 15.7901H63.6635Z" fill="#3B3B3B"/>
<path d="M72.8416 12.3444C72.8482 12.4363 72.8182 12.527 72.7581 12.5968C72.698 12.6666 72.6127 12.7098 72.5209 12.7169C70.5031 13.017 69.5926 14.6622 69.5926 16.5765V19.8566C69.5924 19.944 69.561 20.0285 69.5041 20.0949C69.4472 20.1613 69.3685 20.2052 69.2821 20.2187C69.2339 20.2252 69.1848 20.2211 69.1382 20.2068C69.0916 20.1925 69.0487 20.1683 69.0124 20.1358C68.976 20.1034 68.9471 20.0635 68.9276 20.0189C68.9081 19.9743 68.8984 19.926 68.8993 19.8773V12.3961C68.8995 12.3087 68.9308 12.2242 68.9877 12.1578C69.0446 12.0914 69.1233 12.0475 69.2097 12.034C69.258 12.0276 69.3071 12.0316 69.3536 12.0459C69.4002 12.0603 69.4431 12.0844 69.4795 12.1169C69.5158 12.1493 69.5447 12.1892 69.5643 12.2338C69.5838 12.2784 69.5934 12.3267 69.5926 12.3754V13.8965C70.1617 12.9342 71.2895 12.0236 72.4691 12.0236C72.645 12.0236 72.8416 12.1478 72.8416 12.3444Z" fill="#3B3B3B"/>
<path d="M84.1203 16.1109C84.1186 16.2082 84.0785 16.3009 84.0087 16.3688C83.9389 16.4367 83.8451 16.4741 83.7477 16.473H76.8874C77.0633 18.17 78.3361 19.7221 80.1365 19.7221C81.3678 19.7221 82.2784 19.2565 82.9613 18.2735C82.9931 18.2218 83.0371 18.1788 83.0894 18.1481C83.1418 18.1174 83.2008 18.1001 83.2614 18.0976C83.3066 18.0963 83.3516 18.1042 83.3936 18.1209C83.4356 18.1376 83.4738 18.1627 83.5057 18.1947C83.5377 18.2267 83.5628 18.2648 83.5795 18.3068C83.5962 18.3489 83.6042 18.3938 83.6029 18.439C83.6031 18.5014 83.5851 18.5626 83.5511 18.6149C82.8579 19.8152 81.4817 20.405 80.1365 20.405C77.829 20.405 76.1735 18.3356 76.1735 16.1316C76.1735 13.9276 77.8187 11.8581 80.1365 11.8581C82.4543 11.8581 84.1099 13.9069 84.1203 16.1109ZM83.3856 15.7901C83.2407 14.0931 81.937 12.541 80.1365 12.541C78.3361 12.541 77.0633 14.0931 76.8874 15.7901H83.3856Z" fill="#3B3B3B"/>
<path d="M95.2127 12.4272V19.9394C95.2101 20.0291 95.1733 20.1145 95.1098 20.1779C95.0463 20.2414 94.9609 20.2782 94.8712 20.2808C94.826 20.2821 94.781 20.2742 94.739 20.2575C94.697 20.2408 94.6589 20.2157 94.6269 20.1837C94.5949 20.1517 94.5698 20.1136 94.5531 20.0716C94.5364 20.0295 94.5285 19.9846 94.5297 19.9394V18.5114C93.9606 19.6393 92.9569 20.4567 91.6739 20.4567C89.6354 20.4567 88.5076 18.6873 88.5076 16.8145V12.4168C88.5084 12.3265 88.5446 12.2401 88.6085 12.1763C88.6723 12.1124 88.7587 12.0762 88.849 12.0754C88.9388 12.078 89.0241 12.1148 89.0876 12.1783C89.1511 12.2417 89.1879 12.3271 89.1905 12.4168V16.8145C89.1905 18.2941 90.0286 19.7635 91.6739 19.7635C93.9813 19.7635 94.5297 17.6009 94.5297 15.2106V12.4065C94.5305 12.3511 94.5445 12.2968 94.5706 12.2479C94.5967 12.1991 94.6341 12.1572 94.6797 12.1258C94.7253 12.0944 94.7777 12.0744 94.8327 12.0674C94.8876 12.0604 94.9434 12.0667 94.9954 12.0857C95.0604 12.1159 95.1154 12.1642 95.1539 12.2247C95.1925 12.2852 95.2128 12.3555 95.2127 12.4272Z" fill="#3B3B3B"/>
<path d="M112.586 15.49V19.8877C112.583 19.9774 112.546 20.0627 112.483 20.1262C112.42 20.1897 112.334 20.2265 112.244 20.2291C112.199 20.2304 112.154 20.2224 112.112 20.2057C112.07 20.189 112.032 20.1639 112 20.132C111.968 20.1 111.943 20.0618 111.926 20.0198C111.91 19.9778 111.902 19.9328 111.903 19.8877V15.49C111.903 14.0103 111.065 12.5617 109.42 12.5617C107.35 12.5617 106.564 14.776 106.564 16.4937V19.8877C106.561 19.9774 106.524 20.0627 106.461 20.1262C106.397 20.1897 106.312 20.2265 106.222 20.2291C106.177 20.2304 106.132 20.2224 106.09 20.2057C106.048 20.189 106.01 20.1639 105.978 20.132C105.946 20.1 105.921 20.0618 105.904 20.0198C105.887 19.9778 105.879 19.9328 105.881 19.8877V15.49C105.881 14.0103 105.043 12.5617 103.397 12.5617C101.307 12.5617 100.448 14.2069 100.521 16.4006C100.521 16.4523 100.542 16.5455 100.521 16.5765V19.8773C100.521 19.9647 100.489 20.0492 100.432 20.1156C100.376 20.182 100.297 20.2259 100.21 20.2395C100.162 20.2459 100.113 20.2418 100.066 20.2275C100.02 20.2132 99.977 20.189 99.9407 20.1566C99.9043 20.1241 99.8754 20.0843 99.8559 20.0396C99.8364 19.995 99.8267 19.9467 99.8276 19.898V12.3962C99.8277 12.3087 99.8591 12.2242 99.916 12.1578C99.9729 12.0915 100.052 12.0475 100.138 12.034C100.186 12.0276 100.235 12.0317 100.282 12.046C100.328 12.0603 100.371 12.0845 100.408 12.1169C100.444 12.1493 100.473 12.1892 100.493 12.2338C100.512 12.2784 100.522 12.3268 100.521 12.3755V13.6275C101.111 12.5721 102.166 11.8788 103.397 11.8788C104.794 11.8788 105.881 12.7687 106.326 14.0621C106.895 12.779 108.002 11.8788 109.42 11.8788C111.437 11.8788 112.586 13.6275 112.586 15.49Z" fill="#3B3B3B"/>
<path opacity="0.6" d="M9.42255 10.3577L0.834229 14.2587L9.42255 19.3392L18.0212 14.2587L9.42255 10.3577Z" fill="black"/>
<path opacity="0.45" d="M0.834229 14.2587L9.42255 19.3392V0L0.834229 14.2587Z" fill="black"/>
<path opacity="0.8" d="M9.42255 0V19.3392L18.0212 14.2587L9.42255 0Z" fill="black"/>
<path opacity="0.45" d="M0.834229 15.8936L9.42255 28V20.9638L0.834229 15.8936Z" fill="black"/>
<path opacity="0.8" d="M9.42255 20.9638V28L18.0212 15.8936L9.42255 20.9638Z" fill="black"/>
</g>
<defs>
<clipPath id="clip0_66_633">
<rect width="113" height="28" fill="white" transform="translate(0.5)"/>
</clipPath>
</defs>
</svg>
