<svg width="110" height="28" viewBox="0 0 110 28" fill="none" xmlns="http://www.w3.org/2000/svg">
<g clip-path="url(#clip0_269_2858)">
<path d="M11.2399 0.268218C11.9204 -0.0894058 12.9559 -0.0894058 13.6364 0.268218L20.5806 3.91743C20.9905 4.13281 21.2156 4.45376 21.2559 4.78508H21.2625V23.128C21.2535 23.4893 21.0263 23.8483 20.5806 24.0826L13.6364 27.7318C12.9559 28.0894 11.9204 28.0894 11.2399 27.7318L4.2957 24.0826C3.8519 23.8494 3.63892 23.4878 3.62838 23.128C3.62733 23.0925 3.6272 23.063 3.6282 23.0385L3.62816 4.9029C3.62746 4.88304 3.62739 4.8632 3.62796 4.84344L3.62838 4.78508L3.63149 4.78506C3.66233 4.45011 3.87721 4.13736 4.2957 3.91743L11.2399 0.268218ZM20.1693 15.0185L13.6364 18.4516C12.9559 18.8092 11.9204 18.8092 11.2399 18.4516L4.72125 15.0261V23.0916L11.2399 26.4991C11.608 26.6949 11.99 26.8856 12.3636 26.9099L12.4382 26.9123C12.8274 26.9136 13.2053 26.717 13.5886 26.5308L20.1693 23.0623V15.0185ZM2.49891 22.7292C2.49891 23.4318 2.581 23.8938 2.744 24.2193C2.8791 24.489 3.08181 24.6951 3.45194 24.946L3.47307 24.9602C3.5543 25.0147 3.64378 25.0718 3.75269 25.1387L3.88114 25.217L4.27557 25.4539L3.70986 26.3845L3.26839 26.1191L3.19419 26.0739C3.06654 25.9953 2.96074 25.9282 2.86206 25.8619C1.80718 25.1542 1.41376 24.3829 1.406 22.778L1.40588 22.7292H2.49891ZM11.8915 10.102C11.8409 10.1193 11.7936 10.1393 11.7504 10.162L4.80617 13.8112C4.79889 13.815 4.79193 13.8188 4.78532 13.8226L4.77944 13.826L4.79033 13.8322L4.80617 13.8407L11.7504 17.4899C11.7936 17.5127 11.8409 17.5326 11.8915 17.5499V10.102ZM12.9848 10.102V17.5499C13.0354 17.5326 13.0828 17.5127 13.126 17.4899L20.0702 13.8407C20.0774 13.8369 20.0844 13.8331 20.091 13.8294L20.0969 13.826L20.086 13.8198L20.0702 13.8112L13.126 10.162C13.0828 10.1393 13.0354 10.1193 12.9848 10.102ZM20.1693 6.08627L13.94 9.35986L20.1693 12.6334V6.08627ZM4.72125 6.09392V12.6258L10.9361 9.35986L4.72125 6.09392ZM13.126 1.22984C12.7648 1.04007 12.1115 1.04007 11.7504 1.22984L4.80617 4.87908C4.79889 4.88291 4.79193 4.88669 4.78532 4.89043L4.77944 4.89382L4.79033 4.90003L4.80617 4.90859L11.7504 8.55781C12.1115 8.74758 12.7648 8.74758 13.126 8.55781L20.0702 4.90859C20.0774 4.90476 20.0844 4.90097 20.091 4.89721L20.0969 4.89382L20.086 4.88761L20.0702 4.87908L13.126 1.22984ZM21.1956 1.63002L21.6371 1.8953L21.7113 1.94063C21.8389 2.01902 21.9447 2.08637 22.0434 2.15256C23.0983 2.86015 23.4917 3.63161 23.4994 5.23645L23.4996 5.28534H22.4066C22.4066 4.58254 22.3245 4.12063 22.1615 3.7952C22.0264 3.52548 21.8237 3.31935 21.4535 3.06853L21.4324 3.05429C21.3512 2.9998 21.2617 2.94273 21.1528 2.87564L21.0243 2.79737L20.6299 2.56055L21.1956 1.63002Z" fill="#1969FF"/>
<path d="M34.6034 22.3632V12.1337H37.4401V10.2607H34.6034V8.91602C34.6034 7.39523 35.2686 6.63484 36.5988 6.63484C36.9834 6.63484 37.3922 6.69886 37.8249 6.82692V4.83387C37.296 4.67379 36.711 4.59375 36.0699 4.59375C34.8359 4.59375 33.8782 4.94594 33.197 5.65031C32.5158 6.35468 32.1753 7.37922 32.1753 8.72394V10.2607H29.8434V12.1337H32.1753V22.3632H34.6034ZM44.46 22.5312C45.3897 22.5312 46.203 22.3392 46.9002 21.9548C47.5973 21.5707 48.1223 21.0184 48.4749 20.298V22.3632H50.879V10.2607H48.4749V12.2298C48.1061 11.5094 47.5774 10.9531 46.8881 10.5609C46.1991 10.1687 45.3897 9.97258 44.46 9.97258C43.4183 9.97258 42.4886 10.2367 41.6714 10.765C40.8539 11.2933 40.2169 12.0377 39.7602 12.9982C39.3034 13.9587 39.0751 15.0633 39.0751 16.3119C39.0751 17.5606 39.2993 18.6532 39.7481 19.5897C40.1968 20.5262 40.8259 21.2505 41.6353 21.7628C42.4447 22.2751 43.3862 22.5312 44.46 22.5312ZM45.0371 20.6102C43.9311 20.6102 43.0696 20.234 42.4528 19.4816C41.8357 18.7292 41.527 17.6727 41.527 16.3119C41.527 14.9352 41.8357 13.8586 42.4528 13.0822C43.0696 12.3058 43.9232 11.9176 45.013 11.9176C46.1188 11.9176 46.9723 12.2938 47.5733 13.0462C48.1744 13.7986 48.4749 14.8712 48.4749 16.2639C48.4749 17.6406 48.1744 18.7092 47.5733 19.4696C46.9723 20.23 46.1269 20.6102 45.0371 20.6102ZM56.841 22.3632V15.4715C56.841 14.3989 57.1494 13.5425 57.7665 12.9021C58.3836 12.2618 59.205 11.9416 60.2308 11.9416C61.1283 11.9416 61.7813 12.1818 62.1901 12.662C62.5987 13.1423 62.803 13.9107 62.803 14.9672V22.3632H65.2312V14.8232C65.2312 11.5894 63.7806 9.97258 60.8798 9.97258C59.9503 9.97258 59.1208 10.1767 58.3915 10.5849C57.6624 10.9931 57.1055 11.5814 56.7207 12.3498L56.5044 10.2607H54.2447C54.3729 11.2693 54.437 12.4059 54.437 13.6705V22.3632H56.841ZM73.3568 22.5312C74.0299 22.5312 74.631 22.4433 75.16 22.2672V20.298C74.7271 20.4261 74.3025 20.4901 73.8858 20.4901C73.2446 20.4901 72.7439 20.318 72.3832 19.9739C72.0227 19.6297 71.8422 19.0414 71.8422 18.2089V12.1337H75.184V10.2607H71.8422V6.39469L69.4143 7.23515V10.2607H67.0581V12.1337H69.4143V18.401C69.4143 19.7457 69.7588 20.7703 70.4479 21.4747C71.1372 22.179 72.1067 22.5312 73.3568 22.5312ZM82.6366 22.5312C83.8065 22.5312 84.8403 22.2751 85.7378 21.7628C86.6354 21.2505 87.3284 20.5222 87.8173 19.5777C88.3062 18.6332 88.5505 17.5286 88.5505 16.2639C88.5505 14.9992 88.3062 13.8906 87.8173 12.9381C87.3284 11.9856 86.6354 11.2533 85.7378 10.741C84.8403 10.2287 83.8065 9.97258 82.6366 9.97258C81.4506 9.97258 80.4089 10.2287 79.5113 10.741C78.6138 11.2533 77.9206 11.9856 77.4317 12.9381C76.943 13.8906 76.6984 14.9992 76.6984 16.2639C76.6984 17.5286 76.943 18.6332 77.4317 19.5777C77.9206 20.5222 78.6138 21.2505 79.5113 21.7628C80.4089 22.2751 81.4506 22.5312 82.6366 22.5312ZM82.6126 20.6102C81.5066 20.6102 80.6532 20.242 80.0521 19.5056C79.4512 18.7692 79.1506 17.6887 79.1506 16.2639C79.1506 14.8712 79.4551 13.7986 80.0641 13.0462C80.6731 12.2938 81.5306 11.9176 82.6366 11.9176C83.7264 11.9176 84.5719 12.2938 85.1728 13.0462C85.7739 13.7986 86.0743 14.8712 86.0743 16.2639C86.0743 17.6887 85.7779 18.7692 85.1848 19.5056C84.5918 20.242 83.7343 20.6102 82.6126 20.6102ZM93.7913 22.3632V15.5195C93.7913 14.4149 94.0639 13.5425 94.6088 12.9021C95.1537 12.2618 95.8909 11.9416 96.8206 11.9416C97.6218 11.9416 98.2028 12.1818 98.5633 12.662C98.924 13.1423 99.1043 13.9027 99.1043 14.9432V22.3632H101.532V15.5195C101.532 14.4149 101.801 13.5425 102.338 12.9021C102.875 12.2618 103.608 11.9416 104.538 11.9416C105.339 11.9416 105.92 12.1818 106.28 12.662C106.641 13.1423 106.821 13.9027 106.821 14.9432V22.3632H109.249V14.8232C109.249 11.5894 107.903 9.97258 105.211 9.97258C104.313 9.97258 103.508 10.1807 102.795 10.5969C102.081 11.0131 101.541 11.5814 101.172 12.3018C100.595 10.749 99.3688 9.97258 97.4936 9.97258C96.6121 9.97258 95.8427 10.1727 95.1856 10.5729C94.5285 10.9731 94.0238 11.5414 93.6712 12.2778L93.4549 10.2607H91.195C91.3232 11.2693 91.3873 12.4059 91.3873 13.6705V22.3632H93.7913Z" fill="#1969FF"/>
</g>
<defs>
<clipPath id="clip0_269_2858">
<rect width="109" height="28" fill="white" transform="translate(0.571411)"/>
</clipPath>
</defs>
</svg>
