<svg width="131" height="28" viewBox="0 0 131 28" fill="none" xmlns="http://www.w3.org/2000/svg">
<g clip-path="url(#clip0_66_649)">
<path d="M41.4042 4.32922C39.8965 4.32922 38.4319 4.52307 37.8288 4.67384C36.9673 4.91076 36.7519 5.29846 36.5796 6.07384L33.1765 21.9046C33.1119 22.2277 33.0688 22.5077 33.0688 22.7661C33.0688 23.5415 33.5858 24.0585 34.4258 24.0585C35.3519 24.0585 35.7181 23.4554 35.9119 22.5508L36.8812 18.0492C37.5488 18.1354 38.4535 18.2215 39.7242 18.2215C45.3242 18.2215 48.7919 15.2061 48.7919 10.64C48.7704 6.6123 45.9919 4.32922 41.4042 4.32922ZM39.5735 15.6154C38.7119 15.6154 38.0227 15.5938 37.4196 15.5077L39.2288 7.10768C39.7888 7.02153 40.6288 6.91384 41.4904 6.91384C44.4627 6.91384 45.9704 8.31384 45.9704 10.64C45.9704 13.6123 43.8165 15.6154 39.5735 15.6154ZM129.389 18.8461C128.937 18.8461 128.635 19.1261 128.075 19.7292C127.084 20.7631 126.46 21.3231 125.663 21.3231C124.952 21.3231 124.586 20.7631 124.586 19.8369C124.586 19.32 124.693 18.6954 124.823 18.0277L125.813 13.3323H128.807C129.755 13.3323 130.315 12.7938 130.315 11.8246C130.315 11.2861 129.97 10.8769 129.152 10.8769H126.33L126.826 8.67999C126.89 8.35691 126.933 8.05538 126.933 7.79692C126.933 7.04307 126.417 6.50461 125.577 6.50461C124.693 6.50461 124.284 7.10769 124.09 8.0123L123.466 10.8769H122.195C121.226 10.8769 120.666 11.4154 120.666 12.3846C120.666 12.9231 121.053 13.3323 121.85 13.3323H122.949L121.958 17.9846C121.85 18.5015 121.721 19.3415 121.721 20.2031C121.721 22.4 122.863 23.9938 125.297 23.9938C126.697 23.9938 127.946 23.2831 128.893 22.4431C129.82 21.6246 130.487 20.6338 130.487 19.9877C130.509 19.3631 130.013 18.8461 129.389 18.8461ZM67.2719 5.92307C67.2719 5.14768 66.7335 4.63076 65.8935 4.63076C65.0104 4.63076 64.6012 5.23384 64.4073 6.13845L61.0258 21.8184C60.9396 22.1415 60.8965 22.4215 60.8965 22.68C60.8965 23.4554 61.435 23.9723 62.2535 23.9723C63.1796 23.9723 63.5673 23.3692 63.7612 22.4646L67.1427 6.78461C67.1858 6.46153 67.2719 6.18153 67.2719 5.92307ZM115.475 10.6184C111.146 10.6184 108.217 14.9046 108.217 18.9969C108.217 19.0831 108.217 19.1477 108.217 19.2338C107.549 20.2677 106.666 21.3231 106.084 21.3231C105.653 21.3231 105.481 20.9138 105.481 20.2892C105.481 19.5354 105.697 18.2646 105.933 17.1661L108.173 6.78461C108.238 6.46153 108.281 6.18153 108.281 5.92307C108.281 5.14768 107.764 4.63076 106.924 4.63076C105.998 4.63076 105.632 5.23384 105.438 6.13845L104.232 11.76C103.586 11.0923 102.638 10.6184 101.217 10.6184C98.3519 10.6184 95.4658 12.8369 94.3458 16.2184C93.0965 19.4277 91.9981 21.3231 91.115 21.3231C90.7919 21.3231 90.5981 21.0431 90.5981 20.5908C90.5981 19.2338 91.3519 15.9385 91.675 14.3446C91.7827 13.7415 91.8473 13.5046 91.8473 13.16C91.8473 11.9754 89.8658 10.5754 87.3027 10.5754C84.3304 10.5754 81.6381 12.4492 80.3027 15.2492C78.2996 18.7815 76.4688 21.3231 75.5642 21.3231C75.155 21.3231 75.0258 20.8061 74.9181 20.3323L74.2504 16.6061L78.3858 13.2246C78.7735 12.9015 79.2473 12.4492 79.2473 11.8461C79.2473 11.1138 78.7519 10.64 78.0412 10.64C77.5027 10.64 77.0504 10.9631 76.5765 11.3508L70.3735 16.4769L72.4627 6.80615C72.5273 6.48307 72.5919 6.20307 72.5919 5.94461C72.5919 5.16922 72.0535 4.6523 71.2135 4.6523C70.3304 4.6523 69.9212 5.25538 69.7273 6.15999L66.3458 21.84C66.2596 22.1631 66.2165 22.4431 66.2165 22.7015C66.2165 23.4769 66.755 23.9938 67.5735 23.9938C68.4996 23.9938 68.8873 23.3908 69.0812 22.4861L69.5119 20.4615L72.0535 18.4154L72.6781 21.5385C72.915 22.7877 73.5612 23.9938 75.2412 23.9938C76.8996 23.9938 78.2135 22.4646 79.5273 20.4184C79.915 22.5723 81.4658 23.9938 83.5765 23.9938C85.7089 23.9938 87.1735 22.7231 88.1212 21.0215V21.0861C88.1212 22.8523 89.0042 23.9938 90.5765 23.9938C91.9981 23.9938 93.1612 23.1323 94.2165 21.3231C94.8196 22.8954 96.155 23.9938 98.0073 23.9938C100.204 23.9938 101.755 22.68 102.767 20.8277V21C102.767 22.9384 103.737 23.9938 105.33 23.9938C106.73 23.9938 107.937 23.1754 108.949 21.84C109.724 23.1754 111.124 23.9938 112.998 23.9938C117.327 23.9938 120.257 19.7077 120.257 15.5938C120.235 12.6861 118.49 10.6184 115.475 10.6184ZM88.5519 16.1108C87.7765 19.4923 86.0965 21.4092 84.2012 21.4092C82.9304 21.4092 82.2196 20.44 82.2196 18.9754C82.2196 16.1108 84.3088 13.0308 87.0873 13.0308C87.9273 13.0308 88.5735 13.2677 89.1335 13.6338L88.5519 16.1108ZM103.607 14.6677C102.746 18.6308 100.764 21.3877 98.6104 21.3877C97.4258 21.3877 96.715 20.4615 96.715 18.9538C96.715 16.0677 98.7181 13.0738 101.389 13.0738C102.423 13.0738 103.198 13.4185 103.758 13.8923L103.607 14.6677ZM113.3 21.3877C111.727 21.3877 111.081 20.2461 111.081 18.8246C111.081 16.1969 112.89 13.2031 115.152 13.2031C116.724 13.2031 117.37 14.3446 117.37 15.7661C117.37 18.4154 115.561 21.3877 113.3 21.3877ZM55.5119 10.6184C51.1827 10.6184 48.2535 14.9046 48.2535 18.9969C48.2535 21.9046 50.0196 23.9938 53.0135 23.9938C57.3427 23.9938 60.2719 19.7077 60.2719 15.5938C60.2504 12.6861 58.5058 10.6184 55.5119 10.6184ZM53.315 21.3877C51.7427 21.3877 51.0965 20.2461 51.0965 18.8246C51.0965 16.1969 52.9058 13.2031 55.1673 13.2031C56.7396 13.2031 57.3858 14.3446 57.3858 15.7661C57.3858 18.4154 55.5765 21.3877 53.315 21.3877Z" fill="black"/>
<path d="M14.2657 0.193848C17.0227 0.193848 19.2411 1.48616 19.2411 3.10154C19.2411 4.69539 17.0011 6.00923 14.2657 6.00923C11.5304 6.00923 9.29035 4.71692 9.29035 3.10154C9.29035 1.50769 11.5088 0.193848 14.2657 0.193848ZM14.2657 22.0338C17.0227 22.0338 19.2411 23.3262 19.2411 24.9415C19.2411 26.5569 17.0011 27.8492 14.2657 27.8492C11.5304 27.8492 9.29035 26.5569 9.29035 24.9415C9.29035 23.3262 11.5088 22.0338 14.2657 22.0338ZM2.29035 7.10769C3.66881 4.71693 5.90881 3.44616 7.28728 4.24308C8.66574 5.04 8.68728 7.62462 7.30881 10.0154C5.93035 12.4062 3.69035 13.6769 2.31189 12.88C0.933429 12.0831 0.91189 9.49846 2.29035 7.10769ZM21.2011 18.0277C22.5796 15.6369 24.8196 14.3662 26.198 15.1631C27.5765 15.96 27.598 18.5446 26.2196 20.9354C24.8411 23.3262 22.6011 24.5969 21.2227 23.8C19.8442 23.0031 19.8442 20.4185 21.2011 18.0277ZM2.31189 15.1631C3.69035 14.3662 5.93035 15.6369 7.30881 18.0277C8.68728 20.4185 8.66574 23.0031 7.28728 23.8C5.90881 24.5969 3.66881 23.3262 2.29035 20.9354C0.91189 18.5446 0.933429 15.96 2.31189 15.1631ZM21.2227 4.24308C22.6011 3.44616 24.8411 4.71693 26.2196 7.10769C27.598 9.49846 27.598 12.0831 26.198 12.88C24.8196 13.6769 22.5796 12.4062 21.2011 10.0154C19.8442 7.62462 19.8442 5.04 21.2227 4.24308Z" fill="#E6007A"/>
</g>
<defs>
<clipPath id="clip0_66_649">
<rect width="130" height="28" fill="white" transform="translate(0.75)"/>
</clipPath>
</defs>
</svg>
