<svg width="151" height="28" viewBox="0 0 151 28" fill="none" xmlns="http://www.w3.org/2000/svg">
<g clip-path="url(#clip0_66_652)">
<path d="M51.6381 15.335H57.286C58.0802 15.335 58.7237 15.9854 58.7237 16.7795C58.7237 17.5805 58.0802 18.224 57.286 18.224H50.4743C50.3648 18.224 50.2621 18.2651 50.1868 18.3335L48.133 20.1066C47.8181 20.3805 48.0098 20.8939 48.4205 20.8939H56.9437C56.9437 20.8939 56.9506 20.8939 56.9506 20.8871C56.9506 20.8802 56.9574 20.8802 56.9574 20.8802C57.067 20.8871 57.1697 20.8939 57.2792 20.8939C59.5384 20.8939 61.3731 19.0524 61.3731 16.7795C61.3731 14.623 59.7232 12.8499 57.6146 12.6788C57.6146 12.6788 57.6078 12.6788 57.6078 12.6719C57.6078 12.6651 57.6078 12.6651 57.601 12.6651H51.5217C50.7276 12.6651 50.0841 12.0147 50.0841 11.2206C50.0841 10.4196 50.7276 9.77607 51.5217 9.77607H58.3198C58.4293 9.77607 58.5388 9.73499 58.621 9.65969L60.531 7.88658C60.8322 7.6059 60.6337 7.10614 60.2298 7.10614H51.6381C51.6039 7.10614 51.5628 7.10614 51.5286 7.10614C49.2694 7.10614 47.4347 8.9477 47.4347 11.2206C47.4347 13.4934 49.2694 15.335 51.5286 15.335C51.5628 15.335 51.597 15.335 51.6381 15.335Z" fill="black"/>
<path d="M84.5125 7.09925C84.266 7.09925 84.0675 7.29779 84.0675 7.55109V20.4489C84.0675 20.6953 84.266 20.9007 84.5125 20.9007H94.8499C94.9731 20.9007 95.0895 20.846 95.1785 20.757L96.4724 19.3672C96.7394 19.0797 96.5408 18.6073 96.1438 18.6073H87.1208C86.8743 18.6073 86.6758 18.4088 86.6758 18.1555V7.54424C86.6758 7.29779 86.4773 7.09241 86.2308 7.09241H84.5125V7.09925Z" fill="black"/>
<path fill-rule="evenodd" clip-rule="evenodd" d="M67.9589 7.09924C67.9589 7.10609 67.9589 7.10609 67.9589 7.09924C66.6376 7.16086 65.5765 8.22198 65.5149 9.54325V18.2171C65.5149 18.2513 65.5149 18.2924 65.5149 18.3266C65.5149 19.7027 66.5966 20.8254 67.9589 20.8802H77.3379C78.6934 20.8186 79.7819 19.6958 79.7819 18.3266C79.7819 18.2924 79.7819 18.2513 79.7819 18.2171V9.5501C79.7271 8.22883 78.666 7.16086 77.3447 7.10609H67.9589V7.09924ZM69.7115 9.5501C69.7046 9.5501 69.7046 9.5501 69.7115 9.5501C68.8831 9.58433 68.219 10.2552 68.1848 11.0904V16.5467C68.1848 16.5672 68.1848 16.5946 68.1848 16.6151C68.1848 17.4777 68.8626 18.1897 69.7115 18.2239H75.5921C76.441 18.1897 77.1188 17.4777 77.1188 16.6151C77.1188 16.5946 77.1188 16.5672 77.1188 16.5467V11.0904C77.0846 10.2552 76.4205 9.59118 75.5921 9.5501H69.7115Z" fill="black"/>
<path fill-rule="evenodd" clip-rule="evenodd" d="M111.499 20.4489C111.499 20.6954 111.698 20.9008 111.944 20.9008H113.697C113.943 20.9008 114.142 20.7022 114.142 20.4489V9.77606C114.142 9.74183 114.142 9.70075 114.142 9.66652C114.142 8.29048 113.067 7.16774 111.725 7.11298H102.723C102.689 7.11298 102.647 7.11298 102.613 7.11298C101.217 7.11298 100.087 8.25625 100.087 9.67337C100.087 9.7076 100.087 9.74867 100.087 9.7829V20.4558C100.087 20.7022 100.286 20.9076 100.532 20.9076H102.285C102.531 20.9076 102.73 20.7091 102.73 20.4558V16.0127C102.73 15.7663 102.928 15.5609 103.175 15.5609H111.075C111.321 15.5609 111.52 15.7594 111.52 16.0127V20.4489H111.499ZM102.716 13.1032V10.8851C102.716 10.0225 103.407 9.32422 104.256 9.32422H109.966C110.815 9.32422 111.506 10.0225 111.506 10.8851V13.1032C111.506 13.3497 111.308 13.555 111.061 13.555H103.161C102.914 13.555 102.716 13.3565 102.716 13.1032Z" fill="black"/>
<path fill-rule="evenodd" clip-rule="evenodd" d="M148.502 20.9008C148.255 20.9008 148.057 20.7022 148.057 20.4489V16.0059C148.057 15.7594 147.858 15.5541 147.612 15.5541H139.622C139.376 15.5541 139.177 15.7526 139.177 16.0059V20.4489C139.177 20.6954 138.979 20.9008 138.732 20.9008H136.966C136.72 20.9008 136.521 20.7022 136.521 20.4489V9.77607C136.521 9.74184 136.521 9.70076 136.521 9.66653C136.521 8.25626 137.665 7.10614 139.075 7.10614C139.109 7.10614 139.15 7.10614 139.184 7.10614H148.283C149.638 7.16775 150.727 8.29049 150.727 9.65969C150.727 9.69392 150.727 9.73499 150.727 9.76922V20.4421C150.727 20.6885 150.528 20.8939 150.282 20.8939H148.502V20.9008ZM139.177 10.8851V13.1032C139.177 13.3497 139.376 13.555 139.622 13.555H147.612C147.858 13.555 148.057 13.3565 148.057 13.1032V10.8851C148.057 10.0225 147.358 9.32423 146.503 9.32423H140.732C139.869 9.32423 139.177 10.0225 139.177 10.8851Z" fill="black"/>
<path d="M120.741 7.09924C120.871 7.09924 120.995 7.15401 121.077 7.2567L128.936 16.6288C129.203 16.9437 129.716 16.7521 129.716 16.3344V7.55108C129.716 7.30462 129.915 7.09924 130.161 7.09924H131.914C132.16 7.09924 132.359 7.29778 132.359 7.55108V20.4489C132.359 20.6953 132.16 20.9007 131.914 20.9007H129.737C129.73 20.9007 129.723 20.8939 129.723 20.887C129.723 20.8802 129.723 20.8802 129.716 20.8733L121.72 11.5697C121.453 11.2547 120.94 11.4533 120.94 11.864V20.4557C120.94 20.7022 120.741 20.9076 120.495 20.9076H118.729C118.482 20.9076 118.284 20.709 118.284 20.4557V7.55108C118.284 7.30462 118.482 7.09924 118.729 7.09924H120.741Z" fill="black"/>
<g clip-path="url(#clip1_66_652)">
<path d="M7.51222 21.3705C7.72782 21.1549 8.02426 21.0292 8.33866 21.0292H36.8507C37.3717 21.0292 37.6322 21.658 37.2639 22.0263L31.6316 27.6586C31.416 27.8742 31.1195 28 30.8051 28H2.2931C1.77209 28 1.51158 27.3712 1.87989 27.0029L7.51222 21.3705Z" fill="url(#paint0_linear_66_652)"/>
<path d="M7.51222 0.341354C7.7368 0.125762 8.03324 0 8.33866 0H36.8507C37.3717 0 37.6322 0.62881 37.2639 0.997113L31.6316 6.62945C31.416 6.84504 31.1195 6.9708 30.8051 6.9708H2.2931C1.77209 6.9708 1.51158 6.34199 1.87989 5.97369L7.51222 0.341354Z" fill="url(#paint1_linear_66_652)"/>
<path d="M31.6316 10.7886C31.416 10.573 31.1195 10.4472 30.8051 10.4472H2.2931C1.77209 10.4472 1.51158 11.076 1.87989 11.4443L7.51222 17.0767C7.72782 17.2922 8.02426 17.418 8.33866 17.418H36.8507C37.3717 17.418 37.6322 16.7892 37.2639 16.4209L31.6316 10.7886Z" fill="url(#paint2_linear_66_652)"/>
</g>
</g>
<defs>
<linearGradient id="paint0_linear_66_652" x1="34.127" y1="-3.36463" x2="14.3944" y2="34.4312" gradientUnits="userSpaceOnUse">
<stop stop-color="#00FFA3"/>
<stop offset="1" stop-color="#DC1FFF"/>
</linearGradient>
<linearGradient id="paint1_linear_66_652" x1="25.4988" y1="-7.86923" x2="5.7662" y2="29.9266" gradientUnits="userSpaceOnUse">
<stop stop-color="#00FFA3"/>
<stop offset="1" stop-color="#DC1FFF"/>
</linearGradient>
<linearGradient id="paint2_linear_66_652" x1="29.7854" y1="-5.63128" x2="10.0528" y2="32.1646" gradientUnits="userSpaceOnUse">
<stop stop-color="#00FFA3"/>
<stop offset="1" stop-color="#DC1FFF"/>
</linearGradient>
<clipPath id="clip0_66_652">
<rect width="151" height="28" fill="white"/>
</clipPath>
<clipPath id="clip1_66_652">
<rect width="36.75" height="28" fill="white" transform="translate(0.834229)"/>
</clipPath>
</defs>
</svg>
