<svg width="94" height="28" viewBox="0 0 94 28" fill="none" xmlns="http://www.w3.org/2000/svg">
<g clip-path="url(#clip0_269_2891)">
<path d="M37.9602 11.0805H36.4004V21.2652H37.9602V11.0805Z" fill="#262729"/>
<path d="M44.9481 6.76636H32.2339V8.32621H44.9481V6.76636Z" fill="#262729"/>
<path d="M40.7779 11.0805H39.218V21.2652H40.7779V11.0805Z" fill="#262729"/>
<path d="M83.8706 21.2758H85.4445V15.1418L83.8706 13.3922V21.2758Z" fill="#262729"/>
<path d="M92.1581 6.76636V18.1385L81.0249 5.76511V21.2758H82.5953V9.90011L93.7356 22.277V6.76636H92.1581Z" fill="#262729"/>
<path d="M70.8331 6.75934C66.8316 6.75934 63.5784 10.0125 63.5784 14.014C63.5784 18.0155 66.8316 21.2687 70.8331 21.2687C74.8346 21.2687 78.0878 18.0155 78.0878 14.014C78.0878 10.0161 74.8346 6.75934 70.8331 6.75934ZM70.8331 19.7054C67.6958 19.7054 65.1417 17.1548 65.1417 14.014C65.1417 10.8733 67.6923 8.3227 70.8331 8.3227C73.9703 8.3227 76.5244 10.8733 76.5244 14.014C76.5244 17.1513 73.9703 19.7054 70.8331 19.7054Z" fill="#262729"/>
<path d="M70.833 12.9706C70.2568 12.9706 69.7896 13.4379 69.7896 14.0141C69.7896 14.5902 70.2568 15.0575 70.833 15.0575C71.4091 15.0575 71.8764 14.5902 71.8764 14.0141C71.8764 13.4379 71.4091 12.9706 70.833 12.9706Z" fill="#262729"/>
<path d="M60.8487 11.2175C60.8487 8.76535 58.8673 6.76987 56.4326 6.76987H48.1345V21.2793H49.6838V8.34377H56.4326C57.996 8.34377 59.2678 9.6331 59.2678 11.2175C59.2678 12.795 58.0136 14.0773 56.4643 14.0948L50.9591 14.0913V21.2793H52.5084V15.6652H56.1375L59.1027 21.2758H60.9049L57.8098 15.4439C59.598 14.8502 60.8487 13.1217 60.8487 11.2175Z" fill="#262729"/>
<path d="M21.5083 3.89259L0.365967 0.00350952L11.4922 27.9965L26.9923 9.10966L21.5083 3.89259ZM21.171 5.60702L24.4066 8.68105L15.5604 10.2831L21.171 5.60702ZM13.6387 9.96336L4.31477 2.23086L19.5514 5.03437L13.6387 9.96336ZM12.9712 11.3335L11.4535 23.9001L3.25731 3.27076L12.9712 11.3335ZM14.3765 11.9975L24.1712 10.2233L12.9396 23.9107L14.3765 11.9975Z" fill="#EB0029"/>
</g>
<defs>
<clipPath id="clip0_269_2891">
<rect width="94" height="28" fill="white"/>
</clipPath>
</defs>
</svg>
