<svg width="368" height="72" viewBox="0 0 368 72" fill="none" xmlns="http://www.w3.org/2000/svg">
<path d="M209.987 50.2777H203.433C202.928 50.2777 202.521 49.8714 202.521 49.3658C202.521 48.8603 202.928 48.4539 203.433 48.4539L209.987 48.4544C210.743 48.4544 211.355 47.8426 211.355 47.0866V3.19175C211.355 2.43573 210.743 1.82394 209.987 1.82394H158.012C157.256 1.82394 156.644 2.43578 156.644 3.19175V47.0831C156.644 47.8391 157.256 48.4509 158.012 48.4509H163.342C163.848 48.4509 164.254 48.8573 164.254 49.3628C164.254 49.8683 163.848 50.2747 163.342 50.2747H158.012C156.253 50.2747 154.82 48.8424 154.82 47.0831V3.19168C154.82 1.43275 156.252 0 158.012 0H209.989C211.747 0 213.18 1.43229 213.18 3.19168V47.0831C213.18 48.846 211.747 50.2783 209.988 50.2783L209.987 50.2777Z" fill="#26619C"/>
<path d="M201.013 50.2777H194.903C194.398 50.2777 193.991 49.8713 193.991 49.3658C193.991 48.8603 194.398 48.4539 194.903 48.4539H201.013C201.518 48.4539 201.925 48.8603 201.925 49.3658C201.925 49.8713 201.518 50.2777 201.013 50.2777Z" fill="#26619C"/>
<path d="M212.267 9.86386H155.732C155.226 9.86386 154.82 9.45747 154.82 8.95196C154.82 8.44645 155.226 8.04006 155.732 8.04006H212.267C212.772 8.04006 213.178 8.44645 213.178 8.95196C213.178 9.45747 212.772 9.86386 212.267 9.86386Z" fill="#26619C"/>
<path d="M207.134 5.84393H184.451C183.946 5.84393 183.539 5.43754 183.539 4.93203C183.539 4.42652 183.946 4.02013 184.451 4.02013H207.134C207.639 4.02013 208.046 4.42652 208.046 4.93203C208.046 5.43754 207.635 5.84393 207.134 5.84393Z" fill="#26619C"/>
<path d="M162.837 4.93194C162.837 5.59514 162.299 6.13262 161.636 6.13262C160.973 6.13262 160.435 5.59512 160.435 4.93194C160.435 4.26876 160.973 3.73125 161.636 3.73125C162.299 3.73125 162.837 4.26876 162.837 4.93194Z" fill="#26619C"/>
<path d="M167.863 4.93194C167.863 5.59514 167.326 6.13262 166.662 6.13262C166 6.13262 165.462 5.59512 165.462 4.93194C165.462 4.26876 166 3.73125 166.662 3.73125C167.326 3.73125 167.863 4.26876 167.863 4.93194Z" fill="#26619C"/>
<path d="M172.037 3.78315C172.672 3.97509 173.031 4.6455 172.839 5.27992C172.646 5.91474 171.976 6.27337 171.342 6.08144C170.707 5.88905 170.348 5.21864 170.541 4.58433C170.732 3.94951 171.403 3.59087 172.037 3.78326" fill="#26619C"/>
<path d="M194.744 22.5501H188.152C187.647 22.5501 187.24 22.1437 187.24 21.6382V15.0463C187.24 14.5408 187.647 14.1344 188.152 14.1344C188.658 14.1344 189.064 14.5408 189.064 15.0463V20.7227H194.741C195.246 20.7227 195.652 21.1291 195.652 21.6346C195.652 22.1397 195.246 22.5501 194.744 22.5501Z" fill="#26619C"/>
<path d="M193.091 55.9997H165.155C163.654 55.9997 162.431 54.7766 162.431 53.2758L162.43 16.6992C162.43 15.1984 163.654 13.9753 165.154 13.9753H187.4C187.787 13.9753 188.175 14.0591 188.529 14.2186C188.829 14.3555 189.095 14.5416 189.327 14.7732L195.018 20.4608C195.25 20.6924 195.436 20.9623 195.573 21.2587C195.732 21.6084 195.816 21.9994 195.816 22.3874V53.2765C195.82 54.7804 194.596 56 193.092 56L193.091 55.9997ZM165.155 15.7981C164.657 15.7981 164.254 16.2009 164.254 16.6987V53.2799C164.254 53.7777 164.657 54.1805 165.155 54.1805H193.091C193.589 54.1805 193.992 53.7777 193.992 53.2799V22.3907C193.992 22.2614 193.965 22.1326 193.912 22.0186C193.867 21.9199 193.806 21.8325 193.73 21.7528L188.038 16.061C187.962 15.9848 187.871 15.924 187.772 15.8785C187.658 15.8254 187.529 15.7988 187.4 15.7988L165.155 15.7981Z" fill="#26619C"/>
<path d="M183.007 23.4509H168.531C168.025 23.4509 167.619 23.0445 167.619 22.539C167.619 22.0335 168.025 21.6271 168.531 21.6271H183.007C183.513 21.6271 183.919 22.0335 183.919 22.539C183.919 23.0445 183.513 23.4509 183.007 23.4509Z" fill="#26619C"/>
<path d="M187.727 42.1244H178.369C177.863 42.1244 177.457 41.718 177.457 41.2125C177.457 40.707 177.863 40.3006 178.369 40.3006H187.726C188.232 40.3006 188.638 40.707 188.638 41.2125C188.639 41.718 188.228 42.1244 187.727 42.1244Z" fill="#26619C"/>
<path d="M189.718 29.6735H178.977C178.471 29.6735 178.065 29.2671 178.065 28.7616C178.065 28.2561 178.471 27.8497 178.977 27.8497H189.718C190.223 27.8497 190.629 28.2561 190.629 28.7616C190.629 29.2671 190.219 29.6735 189.718 29.6735Z" fill="#26619C"/>
<path d="M174.216 29.6735H168.532C168.026 29.6735 167.62 29.2671 167.62 28.7616C167.62 28.2561 168.026 27.8497 168.532 27.8497H174.216C174.721 27.8497 175.128 28.2561 175.128 28.7616C175.128 29.2671 174.721 29.6735 174.216 29.6735Z" fill="#26619C"/>
<path d="M168.532 35.8972C168.026 35.8972 167.62 35.4908 167.62 34.9853C167.62 34.4798 168.026 34.0734 168.532 34.0734H189.718C190.223 34.0734 190.629 34.4798 190.629 34.9853C190.629 35.4904 190.219 35.8972 189.718 35.8972H168.532Z" fill="#26619C"/>
<path d="M173.714 42.1244H168.532C168.026 42.1244 167.62 41.718 167.62 41.2125C167.62 40.707 168.026 40.3006 168.532 40.3006H173.714C174.22 40.3006 174.626 40.707 174.626 41.2125C174.626 41.718 174.216 42.1244 173.714 42.1244Z" fill="#26619C"/>
<path d="M185.309 48.3481H168.531C168.025 48.3481 167.619 47.9417 167.619 47.4362C167.619 46.9307 168.025 46.5243 168.531 46.5243H185.309C185.815 46.5243 186.221 46.9307 186.221 47.4362C186.221 47.9417 185.815 48.3481 185.309 48.3481Z" fill="#26619C"/>
<path d="M204.645 47.6526H199.724C199.219 47.6526 198.813 47.2462 198.813 46.7407V27.3867C198.813 26.8812 199.219 26.4748 199.724 26.4748H204.645C205.15 26.4748 205.557 26.8812 205.557 27.3867V46.7407C205.557 47.2422 205.15 47.6526 204.645 47.6526ZM200.636 45.8289H203.733V28.2984H200.636V45.8289Z" fill="#26619C"/>
<path d="M202.27 52.8198C201.924 52.8198 201.605 52.622 201.453 52.3107L198.9 47.1398C198.759 46.8587 198.778 46.5203 198.942 46.2545C199.109 45.9887 199.401 45.8251 199.717 45.8251L204.637 45.8287C204.949 45.8287 205.237 45.9882 205.404 46.2468C205.572 46.509 205.595 46.8357 205.465 47.1209L203.098 52.2882C202.95 52.6072 202.635 52.8162 202.281 52.8203C202.278 52.8198 202.274 52.8198 202.27 52.8198ZM201.183 47.6489L202.239 49.7841L203.22 47.6489H201.183Z" fill="#26619C"/>
<path d="M204.653 28.2986L199.729 28.295C199.223 28.295 198.817 27.8846 198.817 27.3831V25.4299C198.817 24.7424 199.087 24.0927 199.573 23.6062C200.059 23.1201 200.705 22.8538 201.393 22.8538H202.985C203.672 22.8538 204.322 23.1237 204.808 23.6098C205.295 24.0959 205.561 24.7456 205.561 25.4336V27.3867C205.561 27.63 205.466 27.8616 205.295 28.0328C205.128 28.2036 204.896 28.2986 204.653 28.2986ZM200.645 26.4712L203.742 26.4748V25.4336C203.742 25.2322 203.662 25.042 203.521 24.9015C203.381 24.7573 203.19 24.6811 202.989 24.6811L201.401 24.6816C201.199 24.6816 201.009 24.7613 200.869 24.9019C200.725 25.0425 200.648 25.2326 200.648 25.434L200.645 26.4712Z" fill="#26619C"/>
</svg>
