<svg width="368" height="72" viewBox="0 0 368 72" fill="none" xmlns="http://www.w3.org/2000/svg">
<path d="M192.129 28C192.129 23.5176 188.482 19.8711 184 19.8711C179.518 19.8711 175.871 23.5176 175.871 28C175.871 32.4824 179.518 36.1289 184 36.1289C188.482 36.1289 192.129 32.4824 192.129 28ZM177.677 28C177.677 24.5137 180.513 21.6773 184 21.6773C187.486 21.6773 190.322 24.5136 190.322 28C190.322 31.4864 187.486 34.3227 184 34.3227C180.513 34.3227 177.677 31.4864 177.677 28Z" fill="#26619C"/>
<path d="M184.903 32.516V30.7098H186.71V28.9032H184.903V27.4712L187.348 25.0259L186.071 23.7486L184 25.8197L181.929 23.7486L180.651 25.0259L183.097 27.4712V28.9032H181.29V30.7098H183.097V32.516H184.903Z" fill="#26619C"/>
<path d="M165.936 12.645C165.438 12.645 165.033 12.2399 165.033 11.7419L163.226 11.7415C163.226 12.9188 163.981 13.9227 165.033 14.2958V16.2579H166.839V14.4513H168.646V11.7415C168.646 10.2474 167.43 9.03169 165.936 9.03169C165.438 9.03169 165.033 8.62661 165.033 8.12857V7.22545H165.936C166.434 7.22545 166.839 7.63053 166.839 8.12857H168.646C168.646 6.95127 167.891 5.94737 166.839 5.57427L166.839 3.61257H165.033V5.41917H163.226V8.12897C163.226 9.62307 164.442 10.8388 165.936 10.8388C166.434 10.8388 166.839 11.2438 166.839 11.7419V12.645L165.936 12.645Z" fill="#26619C"/>
<path d="M165.936 19.871C171.414 19.871 175.871 15.414 175.871 9.9355C175.871 4.457 171.414 0 165.936 0C160.457 0 156 4.457 156 9.9355C156 15.414 160.457 19.871 165.936 19.871ZM165.936 1.807C170.418 1.807 174.065 5.4535 174.065 9.9359C174.065 14.4183 170.418 18.0648 165.936 18.0648C161.454 18.0648 157.807 14.4183 157.807 9.9359C157.807 5.4535 161.454 1.807 165.936 1.807Z" fill="#26619C"/>
<path d="M202.064 19.871C207.542 19.871 211.999 15.414 211.999 9.9355C211.999 4.457 207.542 0 202.064 0C196.585 0 192.128 4.457 192.128 9.9355C192.128 15.414 196.585 19.871 202.064 19.871ZM202.064 1.807C206.546 1.807 210.193 5.4535 210.193 9.9359C210.193 14.4183 206.546 18.0648 202.064 18.0648C197.582 18.0648 193.935 14.4183 193.935 9.9359C193.935 5.4535 197.582 1.807 202.064 1.807Z" fill="#26619C"/>
<path d="M165.936 36.129C160.457 36.129 156 40.586 156 46.0645C156 51.543 160.457 56 165.936 56C171.414 56 175.871 51.543 175.871 46.0645C175.871 40.586 171.414 36.129 165.936 36.129ZM165.936 54.193C161.454 54.193 157.807 50.5465 157.807 46.0641C157.807 41.5817 161.454 37.9352 165.936 37.9352C170.418 37.9352 174.065 41.5817 174.065 46.0641C174.065 50.5465 170.418 54.193 165.936 54.193Z" fill="#26619C"/>
<path d="M202.064 36.129C196.585 36.129 192.128 40.586 192.128 46.0645C192.128 51.543 196.585 56 202.064 56C207.542 56 211.999 51.543 211.999 46.0645C211.999 40.586 207.542 36.129 202.064 36.129ZM202.064 54.193C197.582 54.193 193.935 50.5465 193.935 46.0641C193.935 41.5817 197.582 37.9352 202.064 37.9352C206.546 37.9352 210.193 41.5817 210.193 46.0641C210.193 50.5465 206.546 54.193 202.064 54.193Z" fill="#26619C"/>
<path d="M161.42 40.645H170.452V42.4516H161.42V40.645Z" fill="#26619C"/>
<path d="M170.374 49.381C170.183 49.5724 169.928 49.6779 169.658 49.6779C169.099 49.6779 168.645 49.2236 168.645 48.665V46.0646H170.452V44.258L161.419 44.2584V46.065H163.226V47.8716C163.226 48.8677 162.415 49.6782 161.419 49.6782V51.4848C163.411 51.4848 165.032 49.8641 165.032 47.8719V46.0653H166.839V48.6653C166.838 50.2192 168.103 51.4841 169.658 51.4841C170.411 51.4841 171.119 51.1907 171.651 50.6583L171.993 50.3165L170.716 49.0392L170.374 49.381Z" fill="#26619C"/>
<path d="M203.871 40.645H199.355V47.8708H197.548V49.6774H199.355V51.484H201.162V49.6774H204.774V47.8708H201.162V46.0642H203.871C205.365 46.0642 206.581 44.8486 206.581 43.3544C206.58 41.8606 205.365 40.645 203.871 40.645ZM203.871 44.2579H201.161V42.4513H203.871C204.369 42.4513 204.774 42.8564 204.774 43.3544C204.774 43.8525 204.369 44.2579 203.871 44.2579Z" fill="#26619C"/>
<path d="M202.968 16.258C204.96 16.258 206.581 14.6373 206.581 12.6451H204.774C204.774 13.6412 203.964 14.4517 202.968 14.4517C201.972 14.4517 201.161 13.6411 201.161 12.6451H202.968L202.968 10.8385H201.161L201.162 9.0323H202.968L202.968 7.2257H201.161C201.161 6.22961 201.972 5.4191 202.968 5.4191C203.964 5.4191 204.775 6.22965 204.775 7.2257H206.581C206.581 5.2335 204.961 3.6128 202.968 3.6128C200.976 3.6128 199.355 5.2335 199.355 7.2257H197.549V9.0323H199.355V10.8389H197.549V12.6455H199.355C199.355 14.6373 200.976 16.258 202.968 16.258Z" fill="#26619C"/>
<path d="M184 48.774C182.506 48.774 181.29 49.9896 181.29 51.4838C181.29 52.978 182.506 54.1936 184 54.1936C185.494 54.1936 186.71 52.978 186.71 51.4838C186.71 49.9896 185.494 48.774 184 48.774ZM184 52.3869C183.502 52.3869 183.097 51.9818 183.097 51.4838C183.097 50.9857 183.502 50.5807 184 50.5807C184.498 50.5807 184.903 50.9857 184.903 51.4838C184.903 51.9818 184.498 52.3869 184 52.3869Z" fill="#26619C"/>
<path d="M188.516 43.884V38.8383C191.364 37.6469 193.647 35.3645 194.838 32.5164H199.884L201.161 33.7941C201.502 34.1351 201.956 34.323 202.438 34.323L204.774 34.3226V32.516H202.439L201.161 31.2383C200.82 30.8973 200.366 30.7094 199.884 30.7094L195.426 30.7098C195.565 30.1231 195.661 29.52 195.707 28.9032L202.968 28.9036V27.097H195.707C195.66 26.4802 195.565 25.8771 195.426 25.2904H199.884C200.366 25.2904 200.82 25.1025 201.161 24.7611L202.439 23.4841H204.774V21.6775H202.439C201.956 21.6775 201.503 21.8654 201.161 22.2068L199.884 23.4841H194.838C193.647 20.6357 191.364 18.3532 188.516 17.1622V12.1165L189.794 10.8392C190.135 10.4982 190.323 10.0443 190.323 9.56189L190.323 7.22599H188.516V9.56149L187.239 10.8388C186.897 11.1798 186.709 11.6337 186.709 12.1161L186.71 16.5743C186.123 16.4352 185.52 16.3395 184.903 16.2926L184.904 9.03245H183.097V16.2926C182.48 16.3399 181.877 16.4352 181.29 16.5743V12.1161C181.29 11.6337 181.102 11.1798 180.761 10.8388L179.484 9.56149V7.22599H177.678V9.56149C177.678 10.0439 177.865 10.4978 178.206 10.8388L179.484 12.1161V17.1618C176.636 18.3532 174.353 20.6356 173.162 23.4841H168.117L166.839 22.2064C166.498 21.8654 166.044 21.6775 165.562 21.6775H163.226V23.4841H165.562L166.839 24.7618C167.18 25.1028 167.634 25.2907 168.116 25.2907L172.574 25.2903C172.435 25.877 172.34 26.4801 172.293 27.0969H165.033V28.9035H172.293C172.34 29.5203 172.435 30.1234 172.574 30.7101H168.116C167.634 30.7101 167.18 30.898 166.839 31.2394L165.562 32.516H163.226V34.3226H165.562C166.044 34.3226 166.498 34.1347 166.839 33.7933L168.116 32.516H173.162C174.353 35.3644 176.636 37.6469 179.484 38.8379V43.8836L178.206 45.1609C177.865 45.5019 177.677 45.9558 177.677 46.4382L177.678 48.7741H179.484V46.4386L180.761 45.1613C181.103 44.8203 181.291 44.3664 181.291 43.884L181.29 39.4258C181.877 39.5649 182.48 39.6606 183.097 39.7074L183.097 46.9676H184.903V39.7074C185.52 39.6602 186.123 39.5649 186.71 39.4258V43.884C186.71 44.3664 186.898 44.8203 187.239 45.1613L188.516 46.4386V48.7741H190.323V46.4386C190.323 45.9562 190.135 45.5023 189.794 45.1613L188.516 43.884ZM174.064 28C174.064 22.5215 178.521 18.0645 183.999 18.0645C189.478 18.0645 193.935 22.5215 193.935 28C193.935 33.4785 189.478 37.9355 183.999 37.9355C178.521 37.9355 174.064 33.4785 174.064 28Z" fill="#26619C"/>
<path d="M188.516 50.58H190.323V52.3866H188.516V50.58Z" fill="#26619C"/>
<path d="M177.677 50.58H179.484V52.3866H177.677V50.58Z" fill="#26619C"/>
<path d="M210.193 28C210.193 26.5059 208.977 25.2902 207.483 25.2902C205.989 25.2902 204.773 26.5058 204.773 28C204.773 29.4942 205.989 30.7098 207.483 30.7098C208.978 30.7098 210.193 29.4942 210.193 28ZM207.484 28.9031C206.986 28.9031 206.58 28.498 206.58 28C206.58 27.502 206.986 27.0969 207.484 27.0969C207.982 27.0969 208.387 27.502 208.387 28C208.387 28.498 207.982 28.9031 207.484 28.9031Z" fill="#26619C"/>
<path d="M206.58 21.677H208.387V23.4836H206.58V21.677Z" fill="#26619C"/>
<path d="M206.58 32.516H208.387V34.3226H206.58V32.516Z" fill="#26619C"/>
<path d="M184 7.2258C185.494 7.2258 186.71 6.0102 186.71 4.516C186.71 3.0218 185.494 1.8062 184 1.8062C182.506 1.8062 181.29 3.0218 181.29 4.516C181.29 6.0102 182.506 7.2258 184 7.2258ZM184 3.6129C184.498 3.6129 184.903 4.01798 184.903 4.51602C184.903 5.01407 184.498 5.41914 184 5.41914C183.502 5.41914 183.097 5.01406 183.097 4.51602C183.097 4.01797 183.502 3.6129 184 3.6129Z" fill="#26619C"/>
<path d="M177.677 3.6129H179.484V5.4195H177.677V3.6129Z" fill="#26619C"/>
<path d="M188.516 3.6129H190.323V5.4195H188.516V3.6129Z" fill="#26619C"/>
<path d="M163.226 28C163.226 26.5059 162.01 25.2902 160.516 25.2902C159.022 25.2902 157.806 26.5058 157.806 28C157.806 29.4942 159.022 30.7098 160.516 30.7098C162.01 30.7098 163.226 29.4942 163.226 28ZM160.516 28.9031C160.018 28.9031 159.613 28.498 159.613 28C159.613 27.502 160.018 27.0969 160.516 27.0969C161.014 27.0969 161.419 27.502 161.419 28C161.42 28.498 161.014 28.9031 160.516 28.9031Z" fill="#26619C"/>
<path d="M159.613 32.516H161.42V34.3226H159.613V32.516Z" fill="#26619C"/>
<path d="M159.613 21.677H161.42V23.4836H159.613V21.677Z" fill="#26619C"/>
</svg>
