<svg width="368" height="72" viewBox="0 0 368 72" fill="none" xmlns="http://www.w3.org/2000/svg">
<path d="M165.261 41.2657C165.327 41.3355 165.409 41.3829 165.489 41.4362C169.265 44.18 173.895 45.8185 178.91 45.8185C183.924 45.8185 188.553 44.18 192.33 41.4362C192.41 41.3829 192.492 41.3355 192.557 41.2657C193.111 40.8529 193.644 40.4177 194.158 39.9575L209.828 55.6271C210.076 55.8759 210.402 56 210.728 56C211.053 56 211.379 55.8759 211.627 55.6271C212.124 55.1301 212.124 54.3247 211.627 53.8272L195.958 38.1576C199.589 34.1024 201.818 28.7676 201.818 22.9093C201.818 10.2769 191.542 0 178.909 0C166.277 0 156 10.2769 156 22.9093C156 30.4247 159.653 37.0857 165.261 41.2653L165.261 41.2657ZM167.455 39.7327V38.1821C167.455 34.6734 170.31 31.8182 173.819 31.8182H184.001C187.51 31.8182 190.365 34.6734 190.365 38.1821V39.7327C187.098 41.9635 183.154 43.2729 178.91 43.2729C174.664 43.2729 170.721 41.9635 167.455 39.7327ZM178.91 2.54468C190.138 2.54468 199.273 11.68 199.273 22.908C199.273 28.4825 197.018 33.5375 193.376 37.2181C193.346 37.2426 193.31 37.2528 193.282 37.281C193.254 37.3087 193.244 37.3454 193.219 37.3753C193.112 37.4818 192.993 37.5766 192.884 37.6805C192.622 33.0015 188.744 29.2717 184 29.2717H173.818C169.075 29.2717 165.196 33.001 164.934 37.6805C161.01 33.9662 158.545 28.7252 158.545 22.9081C158.545 11.6793 167.68 2.5434 178.91 2.5434L178.91 2.54468Z" fill="#26619C"/>
<path d="M178.91 26.7279C183.121 26.7279 186.547 23.3022 186.547 19.0914C186.547 14.8806 183.121 11.455 178.91 11.455C174.699 11.455 171.274 14.8806 171.274 19.0914C171.274 23.3022 174.699 26.7279 178.91 26.7279ZM178.91 14.0001C181.717 14.0001 184.001 16.2842 184.001 19.0909C184.001 21.8981 181.717 24.1817 178.91 24.1817C176.103 24.1817 173.819 21.8976 173.819 19.0909C173.819 16.2842 176.103 14.0001 178.91 14.0001Z" fill="#26619C"/>
</svg>
