<svg width="368" height="73" viewBox="0 0 368 73" fill="none" xmlns="http://www.w3.org/2000/svg">
<path fill-rule="evenodd" clip-rule="evenodd" d="M195.048 3.13395C198.439 4.53279 201.426 6.5478 203.939 9.06104C206.452 11.5743 208.467 14.5613 209.866 17.9517C211.241 21.3186 212 25.0407 212 29C212 32.9591 211.241 36.6818 209.866 40.0483C208.467 43.4386 206.452 46.4262 203.939 48.939C201.426 51.4522 198.439 53.4677 195.048 54.8665C191.681 56.2413 187.959 57 184 57C180.041 57 176.318 56.2414 172.952 54.8665C169.561 53.4677 166.574 51.4522 164.061 48.939C161.548 46.4262 159.532 43.4387 158.134 40.0483C156.759 36.6819 156 32.9593 156 29C156 25.0405 156.759 21.3182 158.134 17.9517C159.532 14.5614 161.548 11.5743 164.061 9.06104C166.574 6.5478 169.561 4.53279 172.952 3.13395C176.318 1.75867 180.041 1 184 1C187.959 1 191.682 1.75864 195.048 3.13395ZM194.384 53.1825C197.514 51.9026 200.335 50.0055 202.683 47.6822C205.006 45.3349 206.902 42.5138 208.183 39.3843C209.487 36.2073 210.198 32.7221 210.198 28.9999C210.198 25.2773 209.487 21.7925 208.183 18.6155C206.902 15.4857 205.006 12.6645 202.683 10.3172C200.335 7.99384 197.514 6.09722 194.384 4.8169C191.207 3.51302 187.722 2.80145 184 2.80145C180.278 2.80145 176.792 3.51304 173.615 4.8169C170.486 6.09722 167.665 7.99384 165.318 10.3172C162.994 12.6645 161.097 15.4856 159.817 18.6155C158.513 21.7925 157.802 25.2773 157.802 28.9999C157.802 32.7221 158.513 36.2073 159.817 39.3843C161.097 42.5138 162.994 45.3349 165.318 47.6822C167.665 50.0055 170.486 51.9026 173.615 53.1825C176.792 54.4868 180.278 55.1979 184 55.1979C187.722 55.1979 191.207 54.4867 194.384 53.1825Z" fill="#26619C"/>
<path fill-rule="evenodd" clip-rule="evenodd" d="M170.226 21.0098C170.131 21.0098 170.06 21.0334 169.989 21.0808C169.846 21.1522 169.68 21.2468 169.562 21.3892C169.444 21.5076 169.325 21.65 169.254 21.8159C169.23 21.8869 169.206 21.9583 169.183 22.0293C169.159 22.1003 169.159 22.1717 169.159 22.2427V25.5856L182.293 29.1894H185.589L198.699 25.6096V22.2427C198.699 22.1717 198.699 22.1003 198.676 22.0293C198.652 21.9583 198.628 21.8869 198.605 21.8159C198.534 21.65 198.415 21.5076 198.296 21.3892C198.154 21.2468 198.012 21.1522 197.846 21.0808C197.775 21.0334 197.704 21.0098 197.633 21.0098C197.562 20.9863 197.49 20.9863 197.419 20.9863H170.415C170.343 20.9863 170.272 20.9863 170.225 21.0098H170.226ZM169.159 38.5544C169.159 38.6019 169.159 38.6733 169.183 38.7443C169.206 38.8153 169.23 38.8867 169.254 38.9577C169.325 39.1236 169.444 39.2895 169.562 39.408C169.704 39.5264 169.846 39.6453 170.012 39.7163C170.083 39.7638 170.155 39.7873 170.226 39.7873C170.273 39.8112 170.344 39.8348 170.416 39.8348H197.42C197.491 39.8348 197.562 39.8112 197.61 39.7873C197.704 39.7873 197.776 39.7638 197.847 39.7163C198.013 39.6453 198.155 39.5264 198.274 39.408C198.416 39.266 198.511 39.1236 198.605 38.9577C198.629 38.8867 198.653 38.8153 198.676 38.7443C198.7 38.6733 198.7 38.6019 198.7 38.5544V27.4824L187.273 30.5884C187.296 30.6598 187.32 30.7308 187.344 30.7783C187.367 30.9203 187.391 31.0627 187.391 31.2286V32.0347C187.391 32.1771 187.367 32.3191 187.344 32.4615C187.296 32.58 187.273 32.6984 187.202 32.8408C187.107 33.0542 186.941 33.2676 186.751 33.4575C186.585 33.6469 186.372 33.7893 186.135 33.9078C186.016 33.9552 185.874 34.0027 185.755 34.0262C185.613 34.0737 185.471 34.0972 185.328 34.0972H182.531C182.388 34.0972 182.246 34.0737 182.104 34.0262C181.962 34.0027 181.843 33.9552 181.725 33.8838C181.488 33.7893 181.274 33.6234 181.108 33.4335C180.919 33.2676 180.776 33.0542 180.682 32.8173C180.61 32.6984 180.563 32.58 180.539 32.438C180.516 32.2956 180.492 32.1532 180.492 32.0347V31.2286C180.492 31.0862 180.516 30.9442 180.539 30.8018C180.563 30.7308 180.587 30.6598 180.61 30.5884L169.159 27.4589L169.159 38.5544ZM200.43 39.1471C200.383 39.3605 200.312 39.5504 200.24 39.7163C200.074 40.0721 199.838 40.4039 199.553 40.6883C199.268 40.9492 198.96 41.1861 198.605 41.352C198.415 41.447 198.225 41.4944 198.035 41.5419C197.822 41.5894 197.633 41.6368 197.419 41.6368H170.415C170.201 41.6368 170.011 41.5894 169.798 41.5419C169.609 41.4944 169.419 41.447 169.229 41.352C168.897 41.1861 168.565 40.9492 168.281 40.6648C168.02 40.4039 167.783 40.0721 167.617 39.7163C167.546 39.5264 167.475 39.337 167.427 39.1471C167.38 38.9577 167.356 38.7443 167.356 38.5544V22.2433C167.356 22.0299 167.38 21.8165 167.427 21.627C167.475 21.4372 167.546 21.2473 167.617 21.0579C167.783 20.7021 168.02 20.3942 168.281 20.1094C168.565 19.825 168.897 19.6116 169.229 19.4457C169.419 19.3507 169.609 19.2797 169.798 19.2558C170.011 19.2087 170.201 19.1848 170.415 19.1848H176.911V18.2602C176.911 18.0943 176.935 17.9519 176.958 17.786C176.982 17.6436 177.029 17.5016 177.1 17.3831C177.219 17.1223 177.385 16.8849 177.575 16.6955C177.788 16.4821 178.025 16.3162 178.262 16.1977C178.404 16.1502 178.547 16.1028 178.665 16.0553C178.831 16.0314 178.974 16.0078 179.139 16.0078H188.694C188.86 16.0078 189.002 16.0314 189.168 16.0553C189.287 16.1028 189.429 16.1502 189.571 16.1977C189.808 16.3162 190.046 16.4821 190.259 16.6955C190.448 16.8849 190.638 17.1223 190.757 17.3592C190.804 17.5016 190.852 17.6436 190.899 17.786C190.923 17.9284 190.947 18.0943 190.947 18.2602V19.1848H197.419C197.632 19.1848 197.822 19.2087 198.035 19.2558C198.225 19.2797 198.415 19.3507 198.604 19.4457C198.936 19.5881 199.268 19.825 199.553 20.1094C199.837 20.3702 200.074 20.7021 200.217 21.0579C200.312 21.2238 200.383 21.4137 200.43 21.6271C200.478 21.8165 200.501 22.0299 200.501 22.2433V38.5544C200.501 38.7443 200.478 38.9577 200.43 39.1471L200.43 39.1471ZM189.193 19.184V18.212C189.169 18.1885 189.169 18.1645 189.169 18.141C189.122 18.0696 189.074 17.9986 189.027 17.9512C188.979 17.9037 188.908 17.8562 188.837 17.8092C188.813 17.8092 188.789 17.7852 188.766 17.7852H179.093C179.069 17.7852 179.045 17.8092 178.998 17.8092C178.95 17.8562 178.879 17.9037 178.832 17.9512C178.784 17.9986 178.737 18.0696 178.69 18.1171C178.69 18.1646 178.69 18.1885 178.666 18.212V19.1841L189.193 19.184ZM182.483 30.9915C182.46 31.0151 182.412 31.039 182.388 31.0625C182.365 31.11 182.317 31.1335 182.317 31.181C182.294 31.181 182.294 31.2049 182.294 31.2049V32.0346C182.294 32.0346 182.294 32.0585 182.317 32.0585C182.341 32.1056 182.365 32.153 182.388 32.2005C182.436 32.2244 182.46 32.248 182.507 32.2715H182.531V32.2954H185.328V32.2715H185.352C185.399 32.248 185.447 32.2244 185.494 32.177C185.518 32.153 185.542 32.1056 185.565 32.0585C185.589 32.0346 185.589 32.0346 185.589 32.011V31.181C185.565 31.1575 185.518 31.11 185.494 31.0861C185.447 31.039 185.423 31.0151 185.376 30.9915L182.483 30.9915Z" fill="#26619C"/>
<path fill-rule="evenodd" clip-rule="evenodd" d="M195.048 3.13395C198.439 4.53279 201.426 6.5478 203.939 9.06104C206.452 11.5743 208.467 14.5613 209.866 17.9517C211.241 21.3186 212 25.0407 212 29C212 32.9591 211.241 36.6818 209.866 40.0483C208.467 43.4386 206.452 46.4262 203.939 48.939C201.426 51.4522 198.439 53.4677 195.048 54.8665C191.681 56.2413 187.959 57 184 57C180.041 57 176.318 56.2414 172.952 54.8665C169.561 53.4677 166.574 51.4522 164.061 48.939C161.548 46.4262 159.532 43.4387 158.134 40.0483C156.759 36.6819 156 32.9593 156 29C156 25.0405 156.759 21.3182 158.134 17.9517C159.532 14.5614 161.548 11.5743 164.061 9.06104C166.574 6.5478 169.561 4.53279 172.952 3.13395C176.318 1.75867 180.041 1 184 1C187.959 1 191.682 1.75864 195.048 3.13395ZM194.384 53.1825C197.514 51.9026 200.335 50.0055 202.683 47.6822C205.006 45.3349 206.902 42.5138 208.183 39.3843C209.487 36.2073 210.198 32.7221 210.198 28.9999C210.198 25.2773 209.487 21.7925 208.183 18.6155C206.902 15.4857 205.006 12.6645 202.683 10.3172C200.335 7.99384 197.514 6.09722 194.384 4.8169C191.207 3.51302 187.722 2.80145 184 2.80145C180.278 2.80145 176.792 3.51304 173.615 4.8169C170.486 6.09722 167.665 7.99384 165.318 10.3172C162.994 12.6645 161.097 15.4856 159.817 18.6155C158.513 21.7925 157.802 25.2773 157.802 28.9999C157.802 32.7221 158.513 36.2073 159.817 39.3843C161.097 42.5138 162.994 45.3349 165.318 47.6822C167.665 50.0055 170.486 51.9026 173.615 53.1825C176.792 54.4868 180.278 55.1979 184 55.1979C187.722 55.1979 191.207 54.4867 194.384 53.1825Z" stroke="white" stroke-width="0.2"/>
<path fill-rule="evenodd" clip-rule="evenodd" d="M170.226 21.0098C170.131 21.0098 170.06 21.0334 169.989 21.0808C169.846 21.1522 169.68 21.2468 169.562 21.3892C169.444 21.5076 169.325 21.65 169.254 21.8159C169.23 21.8869 169.206 21.9583 169.183 22.0293C169.159 22.1003 169.159 22.1717 169.159 22.2427V25.5856L182.293 29.1894H185.589L198.699 25.6096V22.2427C198.699 22.1717 198.699 22.1003 198.676 22.0293C198.652 21.9583 198.628 21.8869 198.605 21.8159C198.534 21.65 198.415 21.5076 198.296 21.3892C198.154 21.2468 198.012 21.1522 197.846 21.0808C197.775 21.0334 197.704 21.0098 197.633 21.0098C197.562 20.9863 197.49 20.9863 197.419 20.9863H170.415C170.343 20.9863 170.272 20.9863 170.225 21.0098H170.226ZM169.159 38.5544C169.159 38.6019 169.159 38.6733 169.183 38.7443C169.206 38.8153 169.23 38.8867 169.254 38.9577C169.325 39.1236 169.444 39.2895 169.562 39.408C169.704 39.5264 169.846 39.6453 170.012 39.7163C170.083 39.7638 170.155 39.7873 170.226 39.7873C170.273 39.8112 170.344 39.8348 170.416 39.8348H197.42C197.491 39.8348 197.562 39.8112 197.61 39.7873C197.704 39.7873 197.776 39.7638 197.847 39.7163C198.013 39.6453 198.155 39.5264 198.274 39.408C198.416 39.266 198.511 39.1236 198.605 38.9577C198.629 38.8867 198.653 38.8153 198.676 38.7443C198.7 38.6733 198.7 38.6019 198.7 38.5544V27.4824L187.273 30.5884C187.296 30.6598 187.32 30.7308 187.344 30.7783C187.367 30.9203 187.391 31.0627 187.391 31.2286V32.0347C187.391 32.1771 187.367 32.3191 187.344 32.4615C187.296 32.58 187.273 32.6984 187.202 32.8408C187.107 33.0542 186.941 33.2676 186.751 33.4575C186.585 33.6469 186.372 33.7893 186.135 33.9078C186.016 33.9552 185.874 34.0027 185.755 34.0262C185.613 34.0737 185.471 34.0972 185.328 34.0972H182.531C182.388 34.0972 182.246 34.0737 182.104 34.0262C181.962 34.0027 181.843 33.9552 181.725 33.8838C181.488 33.7893 181.274 33.6234 181.108 33.4335C180.919 33.2676 180.776 33.0542 180.682 32.8173C180.61 32.6984 180.563 32.58 180.539 32.438C180.516 32.2956 180.492 32.1532 180.492 32.0347V31.2286C180.492 31.0862 180.516 30.9442 180.539 30.8018C180.563 30.7308 180.587 30.6598 180.61 30.5884L169.159 27.4589L169.159 38.5544ZM200.43 39.1471C200.383 39.3605 200.312 39.5504 200.24 39.7163C200.074 40.0721 199.838 40.4039 199.553 40.6883C199.268 40.9492 198.96 41.1861 198.605 41.352C198.415 41.447 198.225 41.4944 198.035 41.5419C197.822 41.5894 197.633 41.6368 197.419 41.6368H170.415C170.201 41.6368 170.011 41.5894 169.798 41.5419C169.609 41.4944 169.419 41.447 169.229 41.352C168.897 41.1861 168.565 40.9492 168.281 40.6648C168.02 40.4039 167.783 40.0721 167.617 39.7163C167.546 39.5264 167.475 39.337 167.427 39.1471C167.38 38.9577 167.356 38.7443 167.356 38.5544V22.2433C167.356 22.0299 167.38 21.8165 167.427 21.627C167.475 21.4372 167.546 21.2473 167.617 21.0579C167.783 20.7021 168.02 20.3942 168.281 20.1094C168.565 19.825 168.897 19.6116 169.229 19.4457C169.419 19.3507 169.609 19.2797 169.798 19.2558C170.011 19.2087 170.201 19.1848 170.415 19.1848H176.911V18.2602C176.911 18.0943 176.935 17.9519 176.958 17.786C176.982 17.6436 177.029 17.5016 177.1 17.3831C177.219 17.1223 177.385 16.8849 177.575 16.6955C177.788 16.4821 178.025 16.3162 178.262 16.1977C178.404 16.1502 178.547 16.1028 178.665 16.0553C178.831 16.0314 178.974 16.0078 179.139 16.0078H188.694C188.86 16.0078 189.002 16.0314 189.168 16.0553C189.287 16.1028 189.429 16.1502 189.571 16.1977C189.808 16.3162 190.046 16.4821 190.259 16.6955C190.448 16.8849 190.638 17.1223 190.757 17.3592C190.804 17.5016 190.852 17.6436 190.899 17.786C190.923 17.9284 190.947 18.0943 190.947 18.2602V19.1848H197.419C197.632 19.1848 197.822 19.2087 198.035 19.2558C198.225 19.2797 198.415 19.3507 198.604 19.4457C198.936 19.5881 199.268 19.825 199.553 20.1094C199.837 20.3702 200.074 20.7021 200.217 21.0579C200.312 21.2238 200.383 21.4137 200.43 21.6271C200.478 21.8165 200.501 22.0299 200.501 22.2433V38.5544C200.501 38.7443 200.478 38.9577 200.43 39.1471L200.43 39.1471ZM189.193 19.184V18.212C189.169 18.1885 189.169 18.1645 189.169 18.141C189.122 18.0696 189.074 17.9986 189.027 17.9512C188.979 17.9037 188.908 17.8562 188.837 17.8092C188.813 17.8092 188.789 17.7852 188.766 17.7852H179.093C179.069 17.7852 179.045 17.8092 178.998 17.8092C178.95 17.8562 178.879 17.9037 178.832 17.9512C178.784 17.9986 178.737 18.0696 178.69 18.1171C178.69 18.1646 178.69 18.1885 178.666 18.212V19.1841L189.193 19.184ZM182.483 30.9915C182.46 31.0151 182.412 31.039 182.388 31.0625C182.365 31.11 182.317 31.1335 182.317 31.181C182.294 31.181 182.294 31.2049 182.294 31.2049V32.0346C182.294 32.0346 182.294 32.0585 182.317 32.0585C182.341 32.1056 182.365 32.153 182.388 32.2005C182.436 32.2244 182.46 32.248 182.507 32.2715H182.531V32.2954H185.328V32.2715H185.352C185.399 32.248 185.447 32.2244 185.494 32.177C185.518 32.153 185.542 32.1056 185.565 32.0585C185.589 32.0346 185.589 32.0346 185.589 32.011V31.181C185.565 31.1575 185.518 31.11 185.494 31.0861C185.447 31.039 185.423 31.0151 185.376 30.9915L182.483 30.9915Z" stroke="white" stroke-width="0.2"/>
</svg>
