<svg width="368" height="72" viewBox="0 0 368 72" fill="none" xmlns="http://www.w3.org/2000/svg">
<path d="M211.156 0.903906C210.103 -0.0321202 208.581 -0.266026 207.177 0.31894L194.421 6.28696C192.549 7.10623 190.911 8.39332 189.507 9.79756L186.464 12.9571L183.071 9.56365C182.72 9.21259 182.251 9.09544 181.784 9.32975L156.624 19.6268C155.922 19.9779 155.688 21.0311 156.273 21.616L167.389 32.7326L164.815 35.4239C164.697 35.5411 164.581 35.775 164.464 36.0089L162.825 45.3704C162.708 45.7214 162.825 46.1896 163.176 46.4235L163.528 46.7754L159.783 50.286C159.315 50.7542 159.315 51.4563 159.783 51.9241C160.251 52.3923 160.953 52.3923 161.421 51.9241L165.166 48.2964L165.634 48.7646C165.868 48.9985 166.336 49.1157 166.687 49.1157C166.921 49.1157 176.049 47.4775 176.283 47.3604C176.4 47.3604 176.517 47.2432 176.751 47.1265L179.442 44.5519L190.559 55.6684C191.144 56.2534 192.197 56.0195 192.431 55.3174L202.729 30.2758C202.963 29.8076 202.847 29.3397 202.496 28.9887L199.102 25.5952L202.262 22.5529C203.783 21.1486 204.953 19.5105 205.772 17.638L211.74 4.8825C212.325 3.47786 212.091 1.95646 211.155 0.903284L211.156 0.903906ZM159.199 21.149L181.9 11.7876L184.826 14.7132L169.028 30.9783L159.199 21.149ZM166.922 46.8928L165.167 45.1375L166.337 38.5845L173.476 45.7228L166.922 46.8928ZM190.911 52.8608L181.081 43.0311L197.347 27.2334L200.273 30.159L190.911 52.8608ZM209.634 3.82974L203.666 16.5853C202.964 18.2234 201.911 19.6276 200.624 20.798C195.358 25.83 199.688 21.6173 175.932 44.7874C168.911 37.7662 170.783 39.6387 167.273 36.1281C190.325 12.3723 186.113 16.7024 191.145 11.4365C192.315 10.1494 193.719 9.09624 195.358 8.39412L208.113 2.4261C208.581 2.1922 209.166 2.1922 209.4 2.54326C209.751 2.89432 209.868 3.36214 209.634 3.83034V3.82974Z" fill="#26619C"/>
<path d="M197.081 9.77953C194.273 9.77953 192.049 12.003 192.049 14.8115C192.049 17.62 194.273 19.8435 197.081 19.8435C199.89 19.8435 202.113 17.62 202.113 14.8115C202.113 12.003 199.89 9.77953 197.081 9.77953ZM197.081 17.5028C195.56 17.5028 194.39 16.3325 194.39 14.8115C194.39 13.2901 195.56 12.1202 197.081 12.1202C198.603 12.1202 199.773 13.2905 199.773 14.8115C199.773 16.3329 198.602 17.5028 197.081 17.5028Z" fill="#26619C"/>
</svg>
