<svg width="368" height="72" viewBox="0 0 368 72" fill="none" xmlns="http://www.w3.org/2000/svg">
<path d="M204.068 40.9091L200.334 38.7537C200.046 38.5866 199.69 38.5866 199.401 38.7537L195.668 40.9091C195.379 41.0758 195.201 41.3837 195.201 41.7175V46.0303V46.0299C195.201 46.3637 195.379 46.6717 195.668 46.8384L199.401 48.9937C199.69 49.1608 200.046 49.1608 200.334 48.9937L204.068 46.8384C204.357 46.6717 204.535 46.3637 204.535 46.0299V41.7175C204.535 41.3837 204.357 41.0758 204.068 40.9091ZM202.668 45.4906L199.868 47.1075L197.068 45.4906V42.2568L199.868 40.6399L202.668 42.2568V45.4906Z" fill="#26619C"/>
<path d="M199.868 35.4725C197.64 35.4725 195.503 36.3576 193.928 37.9332C192.353 39.5085 191.468 41.6455 191.468 43.8738C191.468 46.1021 192.353 48.2391 193.928 49.8144C195.503 51.3901 197.64 52.2752 199.868 52.2752C202.096 52.2752 204.233 51.39 205.808 49.8144C207.384 48.2391 208.269 46.1021 208.269 43.8738C208.266 41.6464 207.38 39.511 205.805 37.9358C204.23 36.3609 202.095 35.475 199.868 35.4725ZM199.868 50.4082C198.135 50.4082 196.474 49.7198 195.248 48.4942C194.023 47.269 193.335 45.6071 193.335 43.8738C193.335 42.1405 194.023 40.4787 195.248 39.2534C196.473 38.0279 198.135 37.3394 199.868 37.3394C201.601 37.3394 203.263 38.0279 204.488 39.2534C205.713 40.4786 206.402 42.1405 206.402 43.8738C206.4 45.6062 205.711 47.2673 204.486 48.4921C203.261 49.7172 201.6 50.4061 199.868 50.4082Z" fill="#26619C"/>
<path d="M200.802 31.7854V0.933486C200.802 0.685947 200.703 0.448404 200.528 0.273378C200.353 0.098352 200.116 0 199.868 0H156.933C156.418 0 156 0.417988 156 0.933486V53.2087C156 53.4562 156.098 53.6938 156.273 53.8688C156.448 54.0438 156.686 54.1422 156.933 54.1422H193.427C196.584 56.1254 200.477 56.5459 203.984 55.2827C207.491 54.0196 210.222 51.2133 211.39 47.6732C212.557 44.1325 212.032 40.252 209.964 37.1497C207.897 34.048 204.518 32.0693 200.801 31.7851L200.802 31.7854ZM197.619 1.86697L195.752 3.73394H161.049L159.182 1.86697H197.619ZM198.935 3.18303V31.785C198.306 31.8338 197.682 31.9305 197.068 32.0742V5.05009L198.935 3.18303ZM184.934 44.8069C184.419 44.8069 184.001 45.2249 184.001 45.7404V48.5408H173.734V45.7404C173.734 45.2249 173.316 44.8069 172.801 44.8069C172.285 44.8069 171.867 45.2249 171.867 45.7404V48.5408H167.2V44.8069C167.202 43.237 167.769 41.7201 168.798 40.5336C169.826 39.3476 171.247 38.5712 172.801 38.3471V42.0064C172.801 42.254 172.899 42.4915 173.074 42.6665C173.249 42.8416 173.486 42.9399 173.734 42.9399C173.852 42.9416 173.97 42.9195 174.079 42.8745L178.401 41.1475L182.722 42.8745C182.832 42.9195 182.949 42.9416 183.068 42.9399C183.315 42.9399 183.553 42.8416 183.728 42.6665C183.903 42.4915 184.001 42.254 184.001 42.0064V38.3471C184.449 38.41 184.89 38.5162 185.317 38.6646C185.336 38.6738 185.345 38.6834 185.364 38.6925C186.464 39.1043 187.432 39.8077 188.164 40.7274C187.882 41.7526 187.738 42.8102 187.735 43.8733C187.735 45.4757 188.052 47.0618 188.668 48.5407H185.868V45.7403C185.868 45.4928 185.769 45.2552 185.594 45.0802C185.419 44.9052 185.182 44.8068 184.934 44.8068L184.934 44.8069ZM176.534 36.9564V35.2012C177.752 35.562 179.049 35.562 180.268 35.2012V36.956L178.401 38.823L176.534 36.9564ZM176.739 39.7944L174.667 40.625V38.2725H175.218L176.739 39.7944ZM181.583 38.2725H182.134V40.625L180.062 39.794L181.583 38.2725ZM178.401 33.6051C177.163 33.6051 175.976 33.1133 175.101 32.2382C174.226 31.3627 173.734 30.1754 173.734 28.9376V26.1372H176.852C178.09 26.1401 179.279 25.6496 180.155 24.7745L180.268 24.6532L180.38 24.7745C181.106 25.4996 182.05 25.9655 183.068 26.0997V28.9377C183.068 30.1755 182.576 31.3627 181.701 32.2383C180.826 33.1135 179.638 33.6052 178.401 33.6052L178.401 33.6051ZM182.134 34.296C183.886 33.0737 184.931 31.0738 184.934 28.9376V25.2036C184.934 24.9561 184.836 24.7186 184.661 24.5435C184.486 24.3685 184.248 24.2702 184.001 24.2702H183.683C182.941 24.2739 182.227 23.978 181.705 23.4488L180.93 22.6741H180.93C180.556 22.3286 179.979 22.3286 179.605 22.6741L178.83 23.4488H178.83C178.308 23.978 177.594 24.2739 176.852 24.2702H172.8C172.285 24.2702 171.867 24.6881 171.867 25.2036V28.9376C171.87 31.0737 172.915 33.0737 174.667 34.296V36.4055H173.734C172.951 36.4088 172.172 36.5184 171.419 36.7322C170.499 35.579 169.998 34.1472 170 32.6716V25.4929C169.966 23.3317 170.751 21.2376 172.196 19.6312C173.642 18.0243 175.641 17.0237 177.794 16.8303C180.12 16.6619 182.412 17.4683 184.12 19.0565C185.828 20.6442 186.799 22.8713 186.801 25.2037V32.6716C186.802 34.1497 186.302 35.5846 185.382 36.7414C184.63 36.5217 183.851 36.4084 183.068 36.4055H182.134L182.134 34.296ZM187.156 37.4699C188.142 36.0642 188.67 34.3885 188.668 32.6715V25.2036C188.669 22.352 187.484 19.6277 185.397 17.6849C183.309 15.7425 180.508 14.7561 177.663 14.9631C175.04 15.1928 172.6 16.4055 170.833 18.3583C169.066 20.3107 168.102 22.8594 168.134 25.4928V32.6714C168.132 34.3884 168.66 36.0641 169.646 37.4697C168.34 38.199 167.252 39.2633 166.495 40.5531C165.737 41.8425 165.336 43.3107 165.334 44.8067V48.5407H161.6V21.9358L168.694 16.6149C168.927 16.4374 169.065 16.1615 169.067 15.8681V12.8998C169.904 12.6039 170.551 11.9284 170.811 11.0791C171.071 10.2298 170.913 9.30793 170.385 8.59411C169.857 7.88024 169.022 7.45888 168.134 7.45888C167.246 7.45888 166.411 7.8802 165.883 8.59411C165.355 9.30797 165.197 10.2298 165.456 11.0791C165.716 11.9284 166.363 12.6039 167.201 12.8998V15.4014L161.6 19.6021V5.5998H177.468V7.6347C176.63 7.93057 175.983 8.60611 175.723 9.45537C175.464 10.3047 175.622 11.2265 176.15 11.9404C176.678 12.6542 177.513 13.0756 178.401 13.0756C179.289 13.0756 180.124 12.6543 180.652 11.9404C181.18 11.2265 181.338 10.3047 181.078 9.45537C180.818 8.60606 180.171 7.93053 179.334 7.6347V5.5998H185.868V13.0677C185.87 13.3611 186.008 13.6369 186.241 13.8145L187.874 15.0372C187.785 15.3051 187.738 15.5856 187.734 15.8682C187.734 16.6108 188.029 17.3234 188.554 17.8484C189.079 18.3734 189.792 18.6686 190.534 18.6686C191.277 18.6686 191.99 18.3735 192.514 17.8484C193.039 17.3233 193.334 16.6107 193.334 15.8682C193.334 15.1256 193.039 14.4129 192.514 13.8879C191.989 13.3629 191.277 13.0678 190.534 13.0678C189.984 13.0707 189.446 13.2328 188.985 13.5345L187.734 12.601V5.59987H195.201V32.6709C192.412 33.8449 190.16 36.0144 188.882 38.7574C188.363 38.2569 187.783 37.8243 187.156 37.4693L187.156 37.4699ZM167.201 10.2676C167.201 9.88999 167.428 9.54951 167.777 9.40533C168.126 9.26072 168.527 9.34032 168.794 9.60744C169.061 9.87457 169.141 10.2759 168.996 10.6247C168.852 10.9735 168.512 11.201 168.134 11.201C167.619 11.201 167.201 10.783 167.201 10.2676ZM178.401 9.33407C178.779 9.33407 179.119 9.5616 179.263 9.91041C179.408 10.2592 179.328 10.6605 179.061 10.9277C178.794 11.1948 178.393 11.2744 178.044 11.1298C177.695 10.9856 177.468 10.6451 177.468 10.2676C177.468 9.75205 177.886 9.33407 178.401 9.33407ZM189.602 15.8685C189.602 15.4909 189.829 15.1504 190.178 15.0062C190.527 14.8616 190.928 14.9412 191.195 15.2084C191.462 15.4755 191.542 15.8768 191.397 16.2256C191.253 16.5744 190.912 16.802 190.535 16.802C190.02 16.802 189.602 16.384 189.602 15.8685ZM157.867 3.18266L159.734 5.04963V49.092L157.867 50.959V3.18266ZM159.183 52.2744L161.05 50.4074H189.658C190.086 51.0775 190.58 51.7031 191.133 52.2744H159.183ZM199.868 54.1414C197.145 54.1414 194.534 53.0595 192.608 51.1338C190.683 49.2081 189.601 46.5965 189.601 43.873C189.601 41.1496 190.683 38.538 192.608 36.6122C194.534 34.6865 197.145 33.6047 199.868 33.6047C202.591 33.6047 205.203 34.6866 207.128 36.6122C209.054 38.538 210.135 41.1496 210.135 43.873C210.134 46.5959 209.051 49.2068 207.126 51.1321C205.201 53.0575 202.591 54.1397 199.868 54.1414Z" fill="#26619C"/>
</svg>
